SplineFontDB: 1.0
FontName: Loma-Bold
FullName: Loma Bold
FamilyName: Loma
Weight: Bold
Copyright: Copyright (c) NECTEC, 2003. All rights reserved.
Version: 0.9.1; 2003
ItalicAngle: 0
UnderlinePosition: -170
UnderlineWidth: 10
Ascent: 1638
Descent: 410
NeedsXUIDChange: 1
FSType: 0
PfmFamily: 33
TTFWeight: 700
TTFWidth: 5
Panose: 2 11 6 4 2 2 2 2 2 4
LineGap: 0
VLineGap: 0
OS2TypoAscent: 2089
OS2TypoDescent: -430
OS2TypoLinegap: 0
OS2WinAscent: 2089
OS2WinAOffset: 1
OS2WinDescent: 430
OS2WinDOffset: 1
HheadAscent: 0
HheadAOffset: 1
HheadDescent: 0
HheadDOffset: 1
ScriptLang: 3
 1 latn 1 dflt 
 1 thai 4 KUY  PAL  THA  dflt 
 1 thai 1 PAL  
ContextSub: glyph 0 2 ' RQD' 0 0 0 1
 String: 15 uni0E0D uni0E10
 BString: 0 
 FString: 0 
 1
  SeqLookup: 0 'ndsc'
EndFPST
ChainSub: coverage 0 1 'ccmp' 0 0 0 1
 2 0 0
  Coverage: 19 uni0E4B uni0E4B.low
  Coverage: 7 uni0E4D
 2
  SeqLookup: 0 'amni'
  SeqLookup: 1 'G007'
EndFPST
ChainSub: coverage 0 1 'ccmp' 0 0 0 1
 2 0 0
  Coverage: 19 uni0E4A uni0E4A.low
  Coverage: 7 uni0E4D
 2
  SeqLookup: 0 'amni'
  SeqLookup: 1 'G006'
EndFPST
ChainSub: coverage 0 1 'ccmp' 0 0 0 1
 2 0 0
  Coverage: 19 uni0E49 uni0E49.low
  Coverage: 7 uni0E4D
 2
  SeqLookup: 0 'amni'
  SeqLookup: 1 'G005'
EndFPST
ChainSub: coverage 0 1 'ccmp' 0 0 0 1
 2 0 0
  Coverage: 19 uni0E48 uni0E48.low
  Coverage: 7 uni0E4D
 2
  SeqLookup: 0 'amni'
  SeqLookup: 1 'G004'
EndFPST
ChainSub: coverage 0 1 'ccmp' 0 0 0 1
 1 0 1
  Coverage: 15 uni0E0D uni0E10
  FCoverage: 23 uni0E38 uni0E39 uni0E3A
 1
  SeqLookup: 0 'nds0'
EndFPST
ChainSub: coverage 0 1 'ccmp' 0 0 0 1
 1 2 0
  Coverage: 39 uni0E48 uni0E49 uni0E4A uni0E4B uni0E4C
  BCoverage: 23 uni0E38 uni0E39 uni0E3A

StartChar: .notdef
Encoding: 0 -1 0
OldEncoding: 0
Width: 1536
Flags: HW
Fore
256 0 m 1
 256 1280 l 1
 1280 1280 l 1
 1280 0 l 1
 256 0 l 1
288 32 m 1
 1248 32 l 1
 1248 1248 l 1
 288 1248 l 1
 288 32 l 1
EndSplineSet
EndChar
StartChar: exclam
Encoding: 3 33 5
OldEncoding: 33
Width: 569
Flags: HW
Fore
169 999 m 1
 169 1450 l 1
 408 1450 l 1
 408 999 l 1
 365 365 l 1
 213 365 l 1
 169 999 l 1
177 194 m 1
 400 194 l 1
 400 0 l 1
 177 0 l 1
 177 194 l 1
EndSplineSet
EndChar
StartChar: quotedbl
Encoding: 4 34 6
OldEncoding: 34
Width: 727
Flags: HW
Fore
156 947 m 1
 106 1217 l 1
 106 1450 l 1
 336 1450 l 1
 336 1217 l 1
 291 947 l 1
 156 947 l 1
437 947 m 1
 389 1217 l 1
 389 1450 l 1
 619 1450 l 1
 619 1217 l 1
 572 947 l 1
 437 947 l 1
EndSplineSet
EndChar
StartChar: numbersign
Encoding: 5 35 7
OldEncoding: 35
Width: 1139
Flags: HW
Fore
57 -10 m 1
 144 355 l 1
 21 355 l 1
 21 595 l 1
 183 595 l 1
 248 865 l 1
 21 865 l 1
 21 1105 l 1
 278 1105 l 1
 365 1470 l 1
 605 1470 l 1
 518 1105 l 1
 737 1105 l 1
 824 1470 l 1
 1064 1470 l 1
 977 1105 l 1
 1113 1105 l 1
 1113 865 l 1
 938 864 l 1
 872 595 l 1
 1113 595 l 1
 1113 355 l 1
 842 355 l 1
 763 -10 l 1
 516 -10 l 1
 602 355 l 1
 384 355 l 1
 297 -10 l 1
 57 -10 l 1
414 595 m 1
 632 595 l 1
 698 865 l 1
 479 865 l 1
 414 595 l 1
EndSplineSet
EndChar
StartChar: dollar
Encoding: 6 36 8
OldEncoding: 36
Width: 1139
Flags: HW
Fore
462 -37 m 1
 414 -31 370 -21 330 -6 c 0
 179 51 95 167 79 344 c 1
 76 417 l 1
 285 417 l 1
 285 409 285 409 285 400 c 0
 285 355 291 316 304 284 c 0
 328 225 381 181 462 153 c 1
 462 621 l 1
 386 636 319 666 262 710 c 0
 158 789 106 896 106 1031 c 0
 106 1122 127 1199 169 1264 c 0
 232 1361 329 1416 462 1429 c 1
 462 1488 l 1
 664 1488 l 1
 664 1429 l 1
 878 1405 993 1279 1008 1050 c 1
 805 1050 l 1
 803 1072 797 1094 788 1116 c 0
 763 1179 721 1220 664 1239 c 1
 664 820 l 1
 733 807 794 786 846 755 c 0
 977 679 1042 560 1042 397 c 0
 1042 282 1010 184 946 105 c 0
 875 18 781 -28 664 -35 c 1
 664 -118 l 1
 462 -118 l 1
 462 -37 l 1
462 1241 m 1
 452 1239 442 1237 433 1234 c 0
 369 1212 331 1164 319 1091 c 1
 316 1044 l 1
 316 1028 317 1013 320 999 c 0
 332 925 379 872 462 840 c 1
 462 1241 l 1
704 167 m 1
 741 186 l 1
 800 224 830 291 830 386 c 0
 830 413 827 437 822 458 c 1
 810 495 l 1
 787 546 738 580 664 599 c 1
 664 153 l 1
 704 167 l 1
EndSplineSet
EndChar
StartChar: percent
Encoding: 7 37 9
OldEncoding: 37
Width: 1821
Flags: HW
Fore
119 1114 m 0
 119 1219 145 1308 197 1380 c 0
 250 1454 326 1491 426 1491 c 0
 521 1491 598 1458 655 1392 c 0
 715 1323 745 1227 745 1104 c 1
 744 986 713 890 654 817 c 1
 597 750 521 717 428 717 c 0
 337 717 264 750 208 815 c 0
 149 884 119 984 119 1114 c 0
431 1317 m 0
 394 1317 366 1301 345 1270 c 0
 322 1235 310 1177 310 1096 c 0
 310 1018 322 964 346 933 c 0
 369 902 398 886 431 886 c 0
 466 886 496 902 519 933 c 0
 542 965 554 1023 554 1107 c 0
 554 1184 542 1239 519 1270 c 0
 496 1301 466 1317 431 1317 c 0
1170 1491 m 1
 1447 1491 l 1
 688 -10 l 1
 411 -10 l 1
 1170 1491 l 1
1067 344 m 0
 1067 449 1093 538 1145 610 c 0
 1198 684 1275 721 1376 721 c 0
 1471 721 1547 688 1604 622 c 0
 1665 552 1696 456 1696 334 c 0
 1696 213 1665 117 1604 47 c 0
 1545 -20 1469 -53 1376 -53 c 0
 1283 -53 1209 -20 1155 46 c 0
 1096 117 1067 217 1067 344 c 0
1381 546 m 0
 1342 546 1312 530 1291 499 c 0
 1268 465 1257 408 1257 329 c 0
 1257 254 1269 202 1293 171 c 0
 1317 140 1346 124 1381 124 c 0
 1418 124 1448 140 1472 171 c 0
 1495 202 1507 258 1507 340 c 0
 1507 415 1495 468 1471 499 c 0
 1447 530 1417 546 1381 546 c 0
EndSplineSet
EndChar
StartChar: ampersand
Encoding: 8 38 10
OldEncoding: 38
Width: 1366
Flags: HW
Fore
948 140 m 1
 929 119 907 100 883 83 c 0
 794 19 692 -16 576 -22 c 1
 509 -21 l 1
 378 -12 274 37 195 127 c 1
 124 210 88 302 88 403 c 0
 88 602 194 752 407 852 c 1
 384 879 366 902 352 921 c 0
 299 996 272 1076 272 1163 c 0
 272 1256 307 1334 377 1397 c 0
 448 1460 534 1491 637 1491 c 0
 714 1491 783 1471 842 1431 c 1
 877 1403 l 1
 944 1343 977 1268 977 1178 c 0
 977 1171 977 1163 976 1156 c 0
 969 1020 883 908 720 821 c 1
 926 522 l 1
 956 579 979 648 995 727 c 1
 1221 649 l 1
 1192 540 1150 442 1095 357 c 1
 1162 270 1238 195 1324 132 c 1
 1173 -67 l 1
 1101 -19 1026 50 948 140 c 1
609 983 m 1
 642 1000 668 1018 685 1035 c 0
 717 1066 734 1112 737 1171 c 0
 738 1172 738 1174 737 1176 c 0
 737 1196 732 1215 721 1232 c 0
 700 1267 668 1285 627 1286 c 0
 602 1286 579 1278 560 1263 c 0
 531 1240 515 1212 512 1177 c 0
 512 1167 l 0
 512 1114 544 1052 609 983 c 1
530 671 m 1
 503 655 481 640 462 626 c 0
 372 559 327 488 327 411 c 0
 327 354 346 301 384 253 c 0
 402 230 425 212 454 201 c 0
 480 190 509 185 540 185 c 0
 577 185 615 192 653 207 c 0
 721 233 770 273 800 326 c 1
 530 671 l 1
EndSplineSet
EndChar
StartChar: quotesingle
Encoding: 9 39 11
OldEncoding: 39
Width: 391
Flags: HW
Fore
107 947 m 1
 61 1221 l 1
 61 1466 l 1
 324 1466 l 1
 324 1221 l 1
 276 947 l 1
 107 947 l 1
EndSplineSet
EndChar
StartChar: parenleft
Encoding: 10 40 12
OldEncoding: 40
Width: 682
Flags: HW
Fore
436 -431 m 1
 301 -260 202 -71 141 135 c 0
 101 268 81 400 81 531 c 0
 81 773 138 999 252 1209 c 0
 298 1294 359 1388 436 1491 c 1
 656 1491 l 1
 563 1332 500 1211 466 1130 c 0
 395 961 359 768 357 549 c 0
 357 539 357 539 357 530 c 0
 357 209 457 -111 656 -431 c 1
 436 -431 l 1
EndSplineSet
EndChar
StartChar: parenright
Encoding: 11 41 13
OldEncoding: 41
Width: 682
Flags: HW
Fore
301 -431 m 1
 79 -431 l 1
 278 -111 378 209 378 530 c 0
 378 742 346 931 281 1097 c 0
 255 1164 188 1296 79 1491 c 1
 301 1491 l 1
 428 1321 518 1165 571 1022 c 0
 628 871 656 707 656 531 c 0
 656 283 587 36 449 -209 c 0
 404 -288 355 -362 301 -431 c 1
EndSplineSet
EndChar
StartChar: asterisk
Encoding: 12 42 14
OldEncoding: 42
Width: 797
Flags: HW
Fore
65 1176 m 1
 107 1357 l 1
 274 1301 l 1
 287 1296 299 1290 310 1284 c 1
 305 1327 303 1365 303 1399 c 1
 306 1491 l 1
 483 1491 l 1
 488 1349 l 1
 487 1328 485 1305 482 1282 c 1
 521 1302 583 1326 667 1353 c 0
 679 1357 679 1357 688 1360 c 1
 721 1179 l 1
 643 1153 582 1137 537 1131 c 2
 513 1128 l 1
 544 1101 592 1048 658 967 c 2
 662 962 l 1
 510 858 l 1
 473 909 433 970 392 1041 c 1
 361 982 324 924 283 869 c 2
 277 862 l 1
 126 968 l 1
 200 1059 248 1115 271 1136 c 1
 102 1167 l 2
 90 1170 78 1173 65 1176 c 1
EndSplineSet
EndChar
StartChar: plus
Encoding: 13 43 15
OldEncoding: 43
Width: 1196
Flags: HW
Fore
483 237 m 1
 483 611 l 1
 114 611 l 1
 114 837 l 1
 483 837 l 1
 483 1206 l 1
 713 1206 l 1
 713 837 l 1
 1082 837 l 1
 1082 611 l 1
 713 611 l 1
 713 237 l 1
 483 237 l 1
EndSplineSet
EndChar
StartChar: comma
Encoding: 14 44 16
OldEncoding: 44
Width: 569
Flags: HW
Fore
122 -22 m 1
 122 231 l 1
 419 231 l 1
 419 -22 l 2
 419 -127 396 -201 349 -246 c 0
 330 -265 303 -283 268 -300 c 1
 111 -207 l 1
 167 -182 206 -143 229 -88 c 0
 238 -67 243 -45 244 -22 c 1
 122 -22 l 1
EndSplineSet
EndChar
StartChar: hyphen
Encoding: 15 45 17
OldEncoding: 45
Width: 682
Flags: HW
Fore
65 388 m 1
 65 654 l 1
 618 654 l 1
 618 388 l 1
 65 388 l 1
EndSplineSet
EndChar
StartChar: period
Encoding: 16 46 18
OldEncoding: 46
Width: 569
Flags: HW
Fore
154 0 m 1
 154 220 l 1
 430 220 l 1
 430 0 l 1
 154 0 l 1
EndSplineSet
EndChar
StartChar: slash
Encoding: 17 47 19
OldEncoding: 47
Width: 595
Flags: HW
Fore
-110 -10 m 1
 477 1470 l 1
 716 1470 l 1
 130 -10 l 1
 -110 -10 l 1
EndSplineSet
EndChar
StartChar: zero
Encoding: 18 48 20
OldEncoding: 48
Width: 1139
Flags: HW
Fore
86 736 m 0
 86 886 99 1012 126 1115 c 0
 190 1360 336 1482 563 1482 c 0
 598 1482 630 1479 661 1473 c 0
 914 1424 1040 1178 1040 736 c 0
 1040 575 1024 442 993 337 c 0
 926 114 782 -1 563 -10 c 0
 550 -10 538 -10 526 -9 c 0
 233 10 86 259 86 736 c 0
340 735 m 0
 340 416 413 257 560 257 c 0
 574 258 588 259 601 262 c 0
 721 291 781 449 781 735 c 0
 781 765 780 794 779 821 c 0
 766 1082 692 1213 559 1213 c 0
 513 1213 475 1199 444 1171 c 0
 375 1108 340 962 340 735 c 0
EndSplineSet
EndChar
StartChar: one
Encoding: 19 49 21
OldEncoding: 49
Width: 1139
Flags: HW
Fore
763 0 m 1
 525 0 l 1
 525 1045 l 1
 454 964 376 904 289 867 c 0
 266 857 244 849 223 844 c 1
 223 1104 l 1
 314 1147 381 1196 425 1253 c 0
 468 1308 501 1381 525 1472 c 1
 763 1472 l 1
 763 0 l 1
EndSplineSet
KernsSLIF: 19 -152 0 0
EndChar
StartChar: two
Encoding: 20 50 22
OldEncoding: 50
Width: 1139
Flags: HW
Fore
1031 223 m 1
 1031 0 l 1
 62 0 l 1
 71 112 112 223 185 332 c 0
 213 375 245 415 280 450 c 0
 312 482 399 559 540 682 c 0
 585 721 613 746 625 759 c 0
 715 850 769 932 786 1004 c 0
 791 1027 794 1050 794 1074 c 0
 794 1076 794 1076 794 1079 c 0
 793 1146 759 1198 693 1237 c 0
 652 1260 611 1272 568 1273 c 1
 526 1269 l 1
 456 1257 404 1225 369 1172 c 1
 351 1139 l 1
 338 1110 332 1076 331 1039 c 1
 96 1039 l 1
 96 1176 142 1285 234 1367 c 0
 321 1444 433 1482 572 1482 c 0
 713 1482 826 1443 910 1365 c 0
 989 1292 1029 1195 1029 1075 c 0
 1029 972 986 861 901 742 c 0
 888 724 888 724 873 705 c 0
 836 658 769 592 671 509 c 0
 570 423 501 361 464 323 c 0
 431 288 403 255 382 223 c 1
 1031 223 l 1
EndSplineSet
EndChar
StartChar: three
Encoding: 21 51 23
OldEncoding: 51
Width: 1139
Flags: HW
Fore
86 427 m 1
 316 427 l 1
 325 356 357 299 411 256 c 0
 454 223 501 206 553 206 c 0
 643 206 711 237 758 298 c 0
 789 339 805 388 805 445 c 0
 805 513 775 569 715 613 c 0
 664 650 605 668 537 668 c 0
 504 668 472 663 441 654 c 1
 441 882 l 1
 516 883 l 1
 632 891 703 935 728 1016 c 0
 736 1041 740 1071 740 1105 c 0
 740 1150 717 1189 671 1224 c 0
 632 1253 591 1268 549 1268 c 0
 474 1268 416 1242 376 1189 c 1
 357 1158 l 1
 344 1133 336 1103 333 1070 c 1
 104 1070 l 1
 104 1177 141 1270 216 1348 c 0
 292 1427 388 1471 503 1480 c 0
 517 1481 531 1482 545 1482 c 0
 664 1482 764 1448 845 1381 c 0
 931 1310 974 1216 974 1101 c 0
 974 984 950 901 901 850 c 1
 874 827 l 1
 856 814 835 803 812 794 c 1
 926 775 998 712 1028 606 c 1
 1040 548 l 1
 1044 518 1046 485 1046 449 c 0
 1046 321 1002 214 915 129 c 0
 830 46 723 -0 592 -9 c 0
 579 -10 565 -10 552 -10 c 0
 432 -10 328 26 240 98 c 0
 151 171 101 265 88 379 c 0
 87 395 86 411 86 427 c 1
EndSplineSet
EndChar
StartChar: four
Encoding: 22 52 24
OldEncoding: 52
Width: 1139
Flags: HW
Fore
662 0 m 1
 662 327 l 1
 56 327 l 1
 56 552 l 1
 662 1472 l 1
 892 1472 l 1
 892 552 l 1
 1070 552 l 1
 1070 327 l 1
 892 327 l 1
 892 0 l 1
 662 0 l 1
662 552 m 1
 662 1077 l 1
 321 552 l 1
 662 552 l 1
EndSplineSet
EndChar
StartChar: five
Encoding: 23 53 25
OldEncoding: 53
Width: 1139
Flags: HW
Fore
85 415 m 1
 330 415 l 1
 336 315 380 250 463 220 c 0
 492 209 523 204 556 204 c 0
 639 204 704 234 751 294 c 0
 792 345 814 412 817 496 c 1
 815 550 l 1
 806 645 764 711 690 748 c 0
 651 767 606 777 553 777 c 1
 503 774 l 1
 446 765 396 736 355 686 c 1
 117 708 l 1
 259 1472 l 1
 988 1472 l 1
 988 1244 l 1
 473 1244 l 1
 404 940 l 1
 454 973 496 994 531 1001 c 0
 549 1005 569 1007 591 1007 c 0
 733 1005 847 957 932 863 c 0
 1015 772 1057 655 1057 512 c 0
 1057 365 1015 243 930 147 c 0
 841 47 723 -5 575 -10 c 0
 566 -10 566 -10 556 -10 c 0
 392 -10 268 44 183 152 c 0
 128 222 96 310 85 415 c 1
EndSplineSet
EndChar
StartChar: six
Encoding: 24 54 26
OldEncoding: 54
Width: 1139
Flags: HW
Fore
1019 1103 m 1
 807 1104 l 1
 786 1175 743 1221 680 1244 c 0
 655 1253 629 1257 600 1257 c 0
 427 1257 333 1133 316 885 c 0
 316 876 316 867 315 858 c 1
 380 937 471 977 589 977 c 0
 591 977 591 977 594 977 c 0
 717 976 820 932 905 846 c 1
 940 806 l 1
 995 735 1029 652 1041 559 c 0
 1044 532 1046 506 1046 479 c 0
 1045 342 1005 228 926 137 c 0
 844 43 736 -6 602 -10 c 0
 586 -10 l 0
 357 -10 204 103 129 329 c 0
 94 432 77 556 77 701 c 0
 77 1108 186 1356 403 1446 c 0
 462 1470 528 1482 603 1482 c 0
 717 1482 813 1449 892 1383 c 0
 908 1370 923 1355 936 1339 c 0
 991 1273 1019 1194 1019 1103 c 1
351 489 m 0
 351 388 379 310 434 257 c 0
 474 219 524 200 585 200 c 0
 672 200 737 237 779 310 c 0
 806 357 819 414 819 481 c 0
 819 584 789 661 729 712 c 1
 700 733 l 1
 665 754 625 764 579 764 c 0
 492 764 428 727 388 653 c 0
 363 608 351 553 351 489 c 0
EndSplineSet
EndChar
StartChar: seven
Encoding: 25 55 27
OldEncoding: 55
Width: 1139
Flags: HW
Fore
97 1233 m 1
 97 1472 l 1
 1046 1472 l 1
 1046 1233 l 1
 986 1170 917 1083 839 973 c 0
 757 858 702 764 675 692 c 0
 588 460 536 272 519 129 c 0
 514 84 511 41 511 0 c 1
 253 0 l 1
 254 243 319 502 446 776 c 0
 496 884 590 1025 727 1198 c 0
 742 1217 742 1217 755 1233 c 1
 97 1233 l 1
EndSplineSet
EndChar
StartChar: eight
Encoding: 26 56 28
OldEncoding: 56
Width: 1139
Flags: HW
Fore
362 805 m 1
 215 859 142 959 142 1104 c 0
 142 1223 185 1318 270 1388 c 0
 347 1451 444 1482 563 1482 c 0
 690 1482 793 1446 873 1374 c 1
 904 1342 l 1
 961 1275 989 1194 989 1099 c 0
 989 988 940 902 841 841 c 0
 821 828 798 816 773 805 c 1
 886 768 964 710 1005 629 c 0
 1031 577 1046 512 1049 434 c 1
 1047 380 l 1
 1036 279 988 191 903 116 c 0
 819 43 721 1 609 -8 c 0
 594 -9 580 -10 566 -10 c 0
 423 -10 307 31 218 113 c 0
 129 194 84 301 83 434 c 1
 83 439 l 2
 83 584 137 689 244 756 c 0
 279 777 318 794 362 805 c 1
369 1107 m 0
 370 1030 400 975 459 943 c 0
 490 926 526 918 567 918 c 0
 638 918 691 942 727 990 c 0
 750 1021 761 1057 761 1099 c 0
 761 1166 735 1217 683 1251 c 0
 650 1273 610 1284 565 1284 c 0
 500 1284 448 1262 410 1218 c 0
 383 1187 369 1150 369 1107 c 0
322 437 m 0
 322 358 351 295 409 250 c 0
 453 216 506 199 568 199 c 0
 656 199 722 228 767 287 c 0
 797 326 812 375 812 433 c 0
 812 523 775 586 702 623 c 0
 663 642 617 651 563 651 c 0
 464 651 395 620 354 557 c 1
 338 525 l 1
 327 499 322 470 322 437 c 0
EndSplineSet
EndChar
StartChar: nine
Encoding: 27 57 29
OldEncoding: 57
Width: 1139
Flags: HW
Fore
139 369 m 1
 354 369 l 1
 362 294 405 247 484 228 c 0
 509 222 536 219 566 219 c 0
 671 219 742 257 779 332 c 0
 805 383 820 466 825 579 c 1
 787 541 743 517 693 506 c 0
 659 499 616 495 564 495 c 0
 443 495 340 536 256 619 c 0
 172 701 125 806 115 934 c 0
 114 949 113 965 113 981 c 0
 113 1120 152 1236 230 1329 c 0
 311 1424 416 1475 547 1481 c 0
 555 1482 563 1482 572 1482 c 0
 795 1482 945 1375 1023 1160 c 0
 1062 1054 1081 924 1081 771 c 0
 1081 364 972 116 755 26 c 0
 696 2 630 -10 555 -10 c 0
 441 -10 345 23 266 89 c 0
 182 160 140 254 139 369 c 1
800 982 m 0
 800 1081 773 1155 718 1205 c 1
 691 1226 l 1
 658 1247 621 1257 579 1257 c 0
 496 1257 435 1222 395 1152 c 0
 370 1107 357 1054 357 991 c 0
 357 892 386 818 445 769 c 0
 482 738 529 722 584 722 c 0
 667 722 728 757 765 828 c 0
 788 871 800 922 800 982 c 0
EndSplineSet
EndChar
StartChar: colon
Encoding: 28 58 30
OldEncoding: 58
Width: 569
Flags: HW
Fore
160 832 m 1
 160 1062 l 1
 415 1062 l 1
 415 832 l 1
 160 832 l 1
160 0 m 1
 160 230 l 1
 415 230 l 1
 415 0 l 1
 160 0 l 1
EndSplineSet
EndChar
StartChar: semicolon
Encoding: 29 59 31
OldEncoding: 59
Width: 569
Flags: HW
Fore
157 832 m 1
 157 1062 l 1
 412 1062 l 1
 412 832 l 1
 157 832 l 1
157 0 m 1
 157 205 l 1
 412 205 l 1
 412 0 l 2
 412 -163 365 -262 270 -297 c 1
 145 -213 l 1
 202 -188 238 -140 251 -71 c 0
 255 -50 258 -27 259 0 c 1
 157 0 l 1
EndSplineSet
EndChar
StartChar: less
Encoding: 30 60 32
OldEncoding: 60
Width: 1196
Flags: HW
Fore
112 641 m 1
 112 809 l 1
 1083 1219 l 1
 1083 990 l 1
 423 724 l 1
 1083 455 l 1
 1083 226 l 1
 112 641 l 1
EndSplineSet
EndChar
StartChar: equal
Encoding: 31 61 33
OldEncoding: 61
Width: 1196
Flags: HW
Fore
1082 812 m 1
 114 812 l 1
 114 1030 l 1
 1082 1030 l 1
 1082 812 l 1
1082 417 m 1
 114 417 l 1
 114 635 l 1
 1082 635 l 1
 1082 417 l 1
EndSplineSet
EndChar
StartChar: greater
Encoding: 32 62 34
OldEncoding: 62
Width: 1196
Flags: HW
Fore
1083 641 m 1
 112 226 l 1
 112 455 l 1
 750 724 l 1
 112 990 l 1
 112 1219 l 1
 1083 809 l 1
 1083 641 l 1
EndSplineSet
EndChar
StartChar: question
Encoding: 33 63 35
OldEncoding: 63
Width: 1139
Flags: HW
Fore
432 361 m 1
 435 478 455 569 490 635 c 0
 505 664 525 692 549 719 c 0
 555 726 585 754 639 803 c 0
 723 881 776 950 798 1009 c 0
 808 1036 813 1062 813 1088 c 0
 813 1170 775 1229 698 1264 c 0
 659 1282 615 1291 568 1291 c 0
 502 1291 445 1264 398 1211 c 1
 373 1177 l 1
 351 1138 l 1
 338 1110 329 1079 324 1046 c 1
 90 1046 l 1
 98 1183 145 1293 232 1377 c 0
 319 1462 430 1504 565 1504 c 0
 696 1504 805 1469 892 1398 c 0
 987 1321 1035 1216 1036 1084 c 0
 1036 1066 1035 1048 1032 1030 c 0
 1019 953 974 870 895 782 c 1
 795 676 l 1
 722 597 682 506 675 401 c 0
 674 388 674 374 674 361 c 1
 432 361 l 1
421 0 m 1
 421 235 l 1
 695 235 l 1
 695 0 l 1
 421 0 l 1
EndSplineSet
EndChar
StartChar: at
Encoding: 34 64 36
OldEncoding: 64
Width: 2079
Flags: HW
Fore
1161 121 m 1
 1090 38 987 -3 854 -3 c 0
 746 -3 659 44 594 138 c 0
 533 225 502 332 502 461 c 0
 502 599 540 726 615 842 c 0
 684 948 770 1020 872 1058 c 0
 917 1075 964 1084 1011 1084 c 0
 1107 1084 1182 1057 1236 1002 c 0
 1252 986 1265 968 1274 949 c 0
 1275 945 1277 941 1278 938 c 1
 1312 1079 l 1
 1526 1079 l 1
 1380 379 l 1
 1352 285 l 1
 1353 268 l 1
 1356 258 1362 248 1372 238 c 0
 1386 225 1403 219 1422 219 c 0
 1505 219 1577 268 1640 367 c 0
 1693 450 1725 543 1737 647 c 1
 1740 711 l 1
 1740 714 1740 714 1740 716 c 0
 1737 885 1672 1020 1546 1122 c 0
 1430 1217 1281 1269 1100 1279 c 0
 1097 1279 1097 1279 1093 1279 c 2
 1015 1279 l 1
 828 1268 675 1194 555 1056 c 0
 552 1053 550 1051 548 1048 c 0
 404 877 332 690 332 485 c 0
 332 292 386 132 494 7 c 0
 518 -21 544 -46 572 -68 c 0
 678 -151 804 -202 950 -221 c 0
 1001 -228 1058 -231 1120 -231 c 0
 1268 -231 1385 -213 1471 -177 c 0
 1546 -146 1631 -87 1727 0 c 0
 1737 9 1737 9 1748 19 c 1
 2005 19 l 1
 1941 -113 1835 -219 1686 -300 c 0
 1525 -387 1337 -431 1123 -431 c 0
 831 -431 596 -361 418 -222 c 0
 258 -97 161 68 126 273 c 0
 116 334 111 399 111 469 c 0
 111 705 171 911 291 1087 c 0
 424 1280 604 1405 831 1462 c 0
 916 1483 1007 1493 1102 1493 c 0
 1308 1493 1487 1441 1638 1336 c 0
 1713 1283 1776 1220 1827 1147 c 0
 1913 1022 1956 877 1956 713 c 0
 1956 574 1919 438 1844 305 c 0
 1773 178 1683 86 1576 27 c 0
 1504 -13 1430 -33 1354 -33 c 0
 1308 -33 1271 -26 1242 -12 c 0
 1214 2 1193 22 1180 48 c 0
 1170 67 1164 91 1161 121 c 1
906 238 m 0
 987 238 1055 279 1110 361 c 0
 1153 426 1178 500 1186 583 c 1
 1188 643 l 1
 1186 738 1155 801 1094 831 c 0
 1071 843 1044 849 1013 849 c 0
 926 849 856 801 802 704 c 0
 786 675 772 642 761 607 c 0
 748 564 741 520 741 474 c 0
 741 385 763 319 807 276 c 0
 834 251 867 238 906 238 c 0
EndSplineSet
EndChar
StartChar: A
Encoding: 35 65 37
OldEncoding: 65
Width: 1366
Flags: HW
Fore
559 1450 m 1
 768 1450 l 1
 1368 0 l 1
 1079 0 l 1
 878 433 l 1
 462 433 l 1
 273 0 l 1
 -2 0 l 1
 559 1450 l 1
833 673 m 1
 659 1109 l 1
 505 673 l 1
 833 673 l 1
EndSplineSet
KernsSLIF: 91 -37 0 0 89 -37 0 0 88 -37 0 0 59 -152 0 0 57 -76 0 0 56 -152 0 0 54 -152 0 0
EndChar
StartChar: B
Encoding: 36 66 38
OldEncoding: 66
Width: 1366
Flags: HW
Fore
164 0 m 1
 164 633 l 1
 164 1450 l 1
 700 1450 l 2
 812 1450 902 1435 970 1406 c 0
 1049 1371 1107 1317 1146 1243 c 0
 1173 1192 1186 1138 1186 1079 c 0
 1186 934 1135 834 1032 778 c 0
 1028 776 1024 774 1021 772 c 1
 1178 726 1257 609 1257 421 c 0
 1257 326 1229 240 1172 164 c 0
 1125 101 1056 56 966 29 c 0
 959 28 953 26 946 24 c 0
 881 8 802 0 709 0 c 2
 164 0 l 1
384 842 m 1
 661 842 l 2
 752 842 819 852 862 871 c 0
 871 875 877 879 882 884 c 0
 913 913 934 943 944 972 c 0
 951 995 955 1023 955 1056 c 0
 954 1128 930 1177 882 1204 c 0
 849 1222 768 1231 637 1231 c 2
 384 1231 l 1
 384 842 l 1
384 220 m 1
 709 220 l 2
 822 220 899 232 939 257 c 0
 953 267 l 0
 983 292 1002 321 1010 355 c 0
 1014 374 1016 396 1016 421 c 0
 1016 490 1000 538 968 567 c 1
 953 579 l 1
 912 608 853 624 776 627 c 1
 683 629 l 1
 384 629 l 1
 384 220 l 1
EndSplineSet
EndChar
StartChar: C
Encoding: 37 67 39
OldEncoding: 67
Width: 1479
Flags: HW
Fore
1168 480 m 1
 1398 480 l 1
 1344 269 1237 126 1077 49 c 0
 994 10 898 -10 791 -10 c 0
 561 -10 385 67 262 221 c 0
 158 352 105 522 102 731 c 0
 102 745 l 0
 102 944 156 1110 264 1241 c 0
 368 1368 506 1444 679 1469 c 0
 716 1474 755 1477 794 1477 c 0
 994 1477 1149 1409 1259 1274 c 1
 1294 1226 l 1
 1328 1174 1354 1115 1373 1050 c 1
 1143 1050 l 1
 1116 1134 1058 1193 968 1228 c 0
 917 1247 857 1257 790 1257 c 0
 643 1257 529 1205 448 1101 c 0
 376 1009 340 891 340 746 c 0
 340 598 380 474 459 373 c 0
 533 280 626 226 739 213 c 0
 755 211 771 210 788 210 c 0
 887 210 975 239 1051 296 c 0
 1120 348 1159 409 1168 480 c 1
EndSplineSet
EndChar
StartChar: D
Encoding: 38 68 40
OldEncoding: 68
Width: 1479
Flags: HW
Fore
168 0 m 1
 168 1450 l 1
 673 1450 l 2
 999 1450 1211 1340 1310 1120 c 0
 1357 1017 1380 888 1380 733 c 0
 1380 410 1277 193 1071 82 c 0
 970 27 845 -0 697 0 c 2
 168 0 l 1
390 213 m 1
 675 213 l 2
 821 213 936 262 1021 359 c 0
 1102 452 1142 578 1143 736 c 1
 1139 816 l 1
 1122 999 1044 1124 906 1189 c 0
 839 1221 760 1237 670 1237 c 2
 390 1237 l 1
 390 213 l 1
EndSplineSet
EndChar
StartChar: E
Encoding: 39 69 41
OldEncoding: 69
Width: 1366
Flags: HW
Fore
162 0 m 1
 162 1450 l 1
 1222 1450 l 1
 1222 1218 l 1
 401 1218 l 1
 401 851 l 1
 1021 851 l 1
 1021 621 l 1
 401 621 l 1
 401 229 l 1
 1222 229 l 1
 1222 0 l 1
 162 0 l 1
EndSplineSet
EndChar
StartChar: F
Encoding: 40 70 42
OldEncoding: 70
Width: 1251
Flags: HW
Fore
167 0 m 1
 167 1450 l 1
 1158 1450 l 1
 1158 1218 l 1
 406 1218 l 1
 406 851 l 1
 1008 851 l 1
 1008 621 l 1
 406 621 l 1
 406 0 l 1
 167 0 l 1
EndSplineSet
KernsSLIF: 35 -113 0 0 16 -227 0 0 14 -227 0 0
EndChar
StartChar: G
Encoding: 41 71 43
OldEncoding: 71
Width: 1479
Flags: HW
Fore
1404 684 m 1
 1405 671 1405 657 1405 644 c 1
 1404 546 l 1
 1383 175 1179 -10 791 -10 c 0
 779 -10 767 -10 756 -9 c 0
 538 -1 371 80 254 233 c 0
 153 367 102 538 102 745 c 0
 102 785 104 824 109 862 c 0
 132 1045 202 1191 320 1302 c 0
 445 1419 603 1477 794 1477 c 0
 910 1477 1012 1454 1099 1407 c 0
 1234 1335 1325 1216 1373 1050 c 1
 1115 1050 l 1
 1106 1074 1093 1097 1076 1118 c 1
 1049 1146 l 1
 983 1206 897 1236 790 1236 c 0
 776 1236 762 1235 748 1234 c 0
 635 1224 541 1177 465 1093 c 0
 381 1001 339 885 339 746 c 0
 339 733 339 720 340 707 c 0
 347 568 390 452 467 360 c 0
 550 260 657 210 788 210 c 0
 877 210 955 226 1021 259 c 0
 1100 299 1147 354 1160 425 c 1
 1164 464 l 1
 905 464 l 1
 905 684 l 1
 1404 684 l 1
EndSplineSet
EndChar
StartChar: H
Encoding: 42 72 44
OldEncoding: 72
Width: 1479
Flags: HW
Fore
164 0 m 1
 164 1450 l 1
 404 1450 l 1
 404 863 l 1
 1074 863 l 1
 1074 1450 l 1
 1314 1450 l 1
 1314 0 l 1
 1074 0 l 1
 1074 619 l 1
 404 619 l 1
 404 0 l 1
 164 0 l 1
EndSplineSet
EndChar
StartChar: I
Encoding: 43 73 45
OldEncoding: 73
Width: 650
Flags: HW
Fore
625 210 m 1
 625 0 l 1
 25 0 l 1
 25 210 l 1
 205 210 l 1
 205 1250 l 1
 25 1250 l 1
 25 1450 l 1
 625 1450 l 1
 625 1250 l 1
 445 1250 l 1
 445 210 l 1
 625 210 l 1
EndSplineSet
EndChar
StartChar: J
Encoding: 44 74 46
OldEncoding: 74
Width: 1024
Flags: HW
Fore
865 1450 m 1
 865 456 l 2
 865 329 846 233 809 168 c 0
 801 155 792 142 783 129 c 0
 712 36 605 -10 463 -10 c 0
 335 -10 238 24 173 92 c 0
 118 149 84 237 70 358 c 0
 66 390 64 422 64 455 c 1
 301 455 l 1
 305 352 333 280 386 241 c 0
 410 224 437 215 468 215 c 0
 529 215 576 245 609 306 c 0
 633 351 645 406 645 471 c 2
 645 1235 l 1
 408 1235 l 1
 408 1450 l 1
 865 1450 l 1
EndSplineSet
EndChar
StartChar: K
Encoding: 45 75 47
OldEncoding: 75
Width: 1366
Flags: HW
Fore
150 0 m 1
 150 1450 l 1
 376 1450 l 1
 376 825 l 1
 1022 1450 l 1
 1316 1450 l 1
 659 806 l 1
 1346 0 l 1
 1053 -1 l 1
 479 610 l 1
 376 499 l 1
 376 0 l 1
 150 0 l 1
EndSplineSet
EndChar
StartChar: L
Encoding: 46 76 48
OldEncoding: 76
Width: 1139
Flags: HW
Fore
150 0 m 1
 150 1450 l 1
 380 1450 l 1
 380 219 l 1
 1060 219 l 1
 1060 0 l 1
 150 0 l 1
EndSplineSet
KernsSLIF: 91 -76 0 0 59 -152 0 0 57 -152 0 0 56 -152 0 0 54 -152 0 0
EndChar
StartChar: M
Encoding: 47 77 49
OldEncoding: 77
Width: 1706
Flags: HW
Fore
152 0 m 1
 152 1450 l 1
 360 1450 l 1
 851 202 l 1
 1340 1450 l 1
 1550 1450 l 1
 1550 0 l 1
 1330 0 l 1
 1330 762 l 1
 1026 0 l 1
 676 0 l 1
 372 762 l 1
 372 0 l 1
 152 0 l 1
EndSplineSet
EndChar
StartChar: N
Encoding: 48 78 50
OldEncoding: 78
Width: 1479
Flags: HW
Fore
156 0 m 1
 156 1450 l 1
 395 1450 l 1
 1071 471 l 1
 1071 1450 l 1
 1311 1450 l 1
 1311 0 l 1
 1071 0 l 1
 395 975 l 1
 395 0 l 1
 156 0 l 1
EndSplineSet
EndChar
StartChar: O
Encoding: 49 79 51
OldEncoding: 79
Width: 1593
Flags: HW
Fore
104 714 m 0
 104 955 168 1144 295 1280 c 0
 418 1410 586 1476 801 1478 c 1
 1006 1478 1170 1415 1294 1290 c 0
 1417 1166 1484 999 1495 788 c 0
 1496 769 1496 750 1496 731 c 0
 1496 522 1441 351 1332 218 c 0
 1219 82 1063 7 866 -8 c 0
 844 -9 822 -10 800 -10 c 0
 610 -10 453 46 328 159 c 0
 205 269 133 416 111 601 c 0
 106 638 104 675 104 714 c 0
350 712 m 0
 350 541 398 412 495 325 c 0
 572 255 674 220 800 220 c 0
 975 220 1100 284 1177 413 c 0
 1227 497 1252 603 1252 731 c 0
 1252 914 1202 1051 1103 1142 c 0
 1026 1211 926 1246 803 1246 c 0
 578 1246 436 1145 378 942 c 0
 359 875 350 799 350 712 c 0
EndSplineSet
EndChar
StartChar: P
Encoding: 50 80 52
OldEncoding: 80
Width: 1366
Flags: HW
Fore
158 0 m 1
 158 1450 l 1
 711 1450 l 2
 956 1450 1121 1395 1204 1285 c 0
 1221 1263 1234 1239 1245 1212 c 0
 1266 1160 1277 1098 1277 1026 c 0
 1277 799 1168 658 950 604 c 0
 885 588 811 580 728 580 c 2
 402 580 l 1
 402 0 l 1
 158 0 l 1
402 792 m 1
 677 792 l 2
 843 792 948 828 993 900 c 0
 1013 931 1023 971 1023 1020 c 0
 1023 1109 985 1170 909 1202 c 0
 855 1225 776 1236 673 1236 c 2
 402 1236 l 1
 402 792 l 1
EndSplineSet
KernsSLIF: 35 -152 0 0 16 -264 0 0 14 -264 0 0
EndChar
StartChar: Q
Encoding: 51 81 53
OldEncoding: 81
Width: 1659
Flags: HW
Fore
1167 392 m 1
 1224 461 1256 564 1262 699 c 0
 1262 717 1262 717 1262 736 c 0
 1262 919 1211 1055 1110 1146 c 0
 1032 1216 929 1251 802 1251 c 0
 571 1251 426 1150 367 947 c 0
 347 881 337 804 337 717 c 0
 337 541 390 409 497 322 c 0
 516 306 537 292 560 280 c 1
 580 355 627 413 701 454 c 0
 738 475 777 489 820 496 c 0
 845 501 869 503 894 503 c 0
 984 503 1063 477 1130 425 c 1
 1144 415 1156 404 1167 392 c 1
1317 204 m 1
 1334 185 1359 176 1392 175 c 0
 1406 175 1420 177 1435 181 c 0
 1474 190 1506 206 1533 228 c 1
 1659 90 l 1
 1585 21 1498 -14 1399 -14 c 0
 1320 -14 1252 7 1195 50 c 0
 1180 62 1167 75 1156 88 c 1
 1077 36 993 5 904 -5 c 0
 873 -8 839 -10 800 -10 c 0
 610 -10 453 46 328 159 c 0
 205 269 133 416 111 601 c 0
 106 638 104 675 104 714 c 0
 104 955 168 1144 295 1280 c 0
 418 1410 586 1476 801 1478 c 1
 1003 1478 1166 1416 1290 1292 c 0
 1411 1171 1479 1009 1493 806 c 0
 1495 781 1496 756 1496 731 c 0
 1496 474 1436 299 1317 204 c 1
1050 226 m 1
 1010 273 965 297 914 298 c 0
 902 298 889 297 876 294 c 0
 806 281 760 241 738 174 c 1
 762 167 790 164 821 164 c 0
 894 164 959 178 1017 206 c 0
 1030 213 1041 219 1050 226 c 1
EndSplineSet
EndChar
StartChar: R
Encoding: 52 82 54
OldEncoding: 82
Width: 1400
Flags: HW
Fore
663 580 m 1
 384 580 l 1
 384 0 l 1
 158 0 l 1
 158 1450 l 1
 711 1450 l 2
 970 1450 1139 1387 1218 1262 c 0
 1257 1201 1277 1122 1277 1026 c 0
 1277 879 1228 766 1130 687 c 0
 1074 642 1005 611 924 596 c 1
 1387 0 l 1
 1072 0 l 1
 663 580 l 1
384 786 m 1
 665 786 l 2
 839 786 947 828 989 912 c 0
 1004 942 1011 978 1011 1020 c 0
 1011 1118 965 1182 872 1213 c 0
 820 1230 750 1239 661 1239 c 2
 384 1239 l 1
 384 786 l 1
EndSplineSet
KernsSLIF: 59 -37 0 0 57 -37 0 0 56 -37 0 0 54 -37 0 0
EndChar
StartChar: S
Encoding: 53 83 55
OldEncoding: 83
Width: 1366
Flags: HW
Fore
92 502 m 1
 325 502 l 1
 340 385 397 302 497 255 c 0
 555 228 625 214 708 214 c 0
 823 214 910 241 968 295 c 0
 1004 328 1022 367 1022 413 c 0
 1021 468 1000 510 957 539 c 0
 941 550 921 561 896 572 c 0
 846 593 747 625 598 667 c 0
 455 708 359 742 310 771 c 0
 219 825 166 906 152 1013 c 0
 149 1030 148 1048 148 1067 c 0
 148 1195 200 1296 304 1370 c 0
 399 1437 519 1471 664 1471 c 0
 912 1471 1079 1379 1164 1195 c 0
 1188 1143 1205 1084 1215 1019 c 1
 981 1019 l 1
 953 1163 861 1240 705 1249 c 0
 694 1250 683 1250 672 1250 c 0
 561 1250 480 1226 429 1179 c 1
 409 1157 l 1
 393 1134 385 1109 385 1080 c 0
 386 1033 404 997 439 971 c 0
 452 962 468 953 489 943 c 0
 530 923 658 881 873 816 c 0
 945 795 990 780 1009 773 c 0
 1120 730 1194 669 1229 590 c 0
 1249 545 1259 491 1259 429 c 0
 1259 302 1209 198 1109 116 c 0
 1016 40 898 -2 755 -9 c 0
 742 -10 730 -10 717 -10 c 0
 474 -10 300 56 195 188 c 0
 130 270 95 375 92 502 c 1
EndSplineSet
EndChar
StartChar: T
Encoding: 54 84 56
OldEncoding: 84
Width: 1251
Flags: HW
Fore
508 0 m 1
 508 1231 l 1
 48 1231 l 1
 48 1450 l 1
 1210 1450 l 1
 1210 1231 l 1
 748 1231 l 1
 748 0 l 1
 508 0 l 1
EndSplineSet
KernsSLIF: 91 -113 0 0 89 -113 0 0 87 -76 0 0 85 -227 0 0 84 -76 0 0 81 -227 0 0 75 -76 0 0 71 -227 0 0 69 -227 0 0 67 -227 0 0 49 -37 0 0 35 -152 0 0 29 -227 0 0 28 -227 0 0 16 -227 0 0 15 -113 0 0 14 -227 0 0
EndChar
StartChar: U
Encoding: 55 85 57
OldEncoding: 85
Width: 1479
Flags: HW
Fore
1065 1450 m 1
 1314 1450 l 1
 1314 567 l 2
 1314 182 1123 -10 741 -10 c 0
 437 -10 253 107 188 341 c 0
 170 406 161 482 161 567 c 2
 161 1450 l 1
 411 1450 l 1
 411 568 l 2
 411 442 453 351 537 294 c 0
 590 258 657 240 737 240 c 0
 871 240 965 286 1020 379 c 0
 1050 430 1065 493 1065 568 c 2
 1065 1450 l 1
EndSplineSet
EndChar
StartChar: V
Encoding: 56 86 58
OldEncoding: 86
Width: 1366
Flags: HW
Fore
577 0 m 1
 9 1450 l 1
 344 1450 l 1
 677 471 l 1
 1023 1450 l 1
 1350 1450 l 1
 776 0 l 1
 577 0 l 1
EndSplineSet
KernsSLIF: 91 -76 0 0 87 -76 0 0 84 -76 0 0 81 -113 0 0 75 -37 0 0 71 -113 0 0 67 -152 0 0 35 -152 0 0 29 -76 0 0 28 -76 0 0 16 -188 0 0 15 -113 0 0 14 -188 0 0
EndChar
StartChar: W
Encoding: 57 87 59
OldEncoding: 87
Width: 1933
Flags: HW
Fore
366 0 m 1
 25 1450 l 1
 279 1450 l 1
 513 519 l 1
 822 1450 l 1
 1092 1450 l 1
 1409 519 l 1
 1626 1450 l 1
 1897 1450 l 1
 1566 0 l 1
 1299 0 l 1
 961 999 l 1
 618 0 l 1
 366 0 l 1
EndSplineSet
KernsSLIF: 91 -18 0 0 87 -37 0 0 84 -37 0 0 81 -37 0 0 71 -37 0 0 67 -76 0 0 35 -76 0 0 29 -37 0 0 28 -37 0 0 16 -113 0 0 15 -37 0 0 14 -113 0 0
EndChar
StartChar: X
Encoding: 58 88 60
OldEncoding: 88
Width: 1366
Flags: HW
Fore
9 0 m 1
 494 756 l 1
 76 1450 l 1
 386 1450 l 1
 681 972 l 1
 1003 1450 l 1
 1313 1450 l 1
 868 756 l 1
 1353 0 l 1
 1043 0 l 1
 681 544 l 1
 319 0 l 1
 9 0 l 1
EndSplineSet
EndChar
StartChar: Y
Encoding: 59 89 61
OldEncoding: 89
Width: 1366
Flags: HW
Fore
526 0 m 1
 526 621 l 1
 6 1451 l 1
 326 1451 l 1
 668 887 l 1
 1030 1451 l 1
 1350 1451 l 1
 810 621 l 1
 810 0 l 1
 526 0 l 1
EndSplineSet
KernsSLIF: 88 -113 0 0 87 -113 0 0 83 -188 0 0 82 -152 0 0 81 -188 0 0 75 -76 0 0 71 -188 0 0 67 -152 0 0 35 -152 0 0 29 -133 0 0 28 -113 0 0 16 -264 0 0 15 -188 0 0 14 -264 0 0
EndChar
StartChar: Z
Encoding: 60 90 62
OldEncoding: 90
Width: 1251
Flags: HW
Fore
41 0 m 1
 41 237 l 1
 885 1220 l 1
 45 1220 l 1
 45 1450 l 1
 1213 1450 l 1
 1213 1220 l 1
 375 230 l 1
 1200 230 l 1
 1200 0 l 1
 41 0 l 1
EndSplineSet
EndChar
StartChar: bracketleft
Encoding: 61 91 63
OldEncoding: 91
Width: 569
Flags: HW
Fore
139 -407 m 1
 139 1466 l 1
 536 1466 l 1
 536 1278 l 1
 359 1278 l 1
 359 -219 l 1
 536 -219 l 1
 536 -407 l 1
 139 -407 l 1
EndSplineSet
EndChar
StartChar: backslash
Encoding: 62 92 64
OldEncoding: 92
Width: 569
Flags: HW
Fore
386 -25 m 1
 -39 1491 l 1
 185 1491 l 1
 609 -25 l 1
 386 -25 l 1
EndSplineSet
EndChar
StartChar: bracketright
Encoding: 63 93 65
OldEncoding: 93
Width: 569
Flags: HW
Fore
436 -407 m 1
 39 -407 l 1
 39 -219 l 1
 218 -219 l 1
 218 1277 l 1
 39 1277 l 1
 39 1466 l 1
 436 1466 l 1
 436 -407 l 1
EndSplineSet
EndChar
StartChar: asciicircum
Encoding: 64 94 66
OldEncoding: 94
Width: 961
Flags: HW
Fore
288 690 m 1
 54 690 l 1
 387 1491 l 1
 572 1491 l 1
 907 690 l 1
 676 690 l 1
 479 1209 l 1
 288 690 l 1
EndSplineSet
EndChar
StartChar: underscore
Encoding: 65 95 67
OldEncoding: 95
Width: 1139
Flags: HW
Fore
-31 -427 m 1
 -31 -237 l 1
 1162 -237 l 1
 1162 -427 l 1
 -31 -427 l 1
EndSplineSet
EndChar
StartChar: grave
Encoding: 66 96 68
OldEncoding: 96
Width: 682
Flags: HW
Fore
495 1194 m 1
 291 1194 l 1
 60 1474 l 1
 360 1474 l 1
 495 1194 l 1
EndSplineSet
EndChar
StartChar: a
Encoding: 67 97 69
OldEncoding: 97
Width: 1139
Flags: HW
Fore
792 96 m 1
 719 35 639 -3 551 -16 c 0
 518 -21 480 -24 437 -24 c 0
 320 -24 231 5 168 62 c 0
 105 119 74 191 74 280 c 0
 74 424 152 522 308 573 c 0
 359 590 421 603 492 612 c 0
 600 625 695 645 776 674 c 1
 774 721 l 1
 764 804 715 854 626 870 c 0
 605 874 583 876 558 876 c 0
 481 876 419 855 372 814 c 0
 346 791 328 762 318 729 c 1
 105 759 l 1
 140 926 240 1028 403 1067 c 0
 456 1080 516 1086 584 1086 c 0
 768 1086 889 1039 948 946 c 1
 968 908 l 1
 975 891 981 872 986 851 c 0
 992 820 995 765 995 685 c 2
 995 445 l 2
 995 278 999 172 1006 128 c 0
 1014 83 1029 41 1052 0 c 1
 814 0 l 1
 803 31 795 63 792 96 c 1
775 487 m 1
 718 466 634 448 521 433 c 0
 428 420 367 401 338 376 c 0
 314 355 302 326 302 289 c 0
 302 231 333 191 394 170 c 0
 421 160 452 155 487 155 c 0
 583 155 658 183 713 240 c 0
 728 255 740 272 750 291 c 0
 767 323 775 371 775 434 c 2
 775 487 l 1
EndSplineSet
EndChar
StartChar: b
Encoding: 68 98 70
OldEncoding: 98
Width: 1139
Flags: HW
Fore
345 0 m 1
 134 0 l 1
 134 1466 l 1
 358 1466 l 1
 358 990 l 1
 436 1054 518 1086 605 1086 c 0
 747 1086 859 1033 942 926 c 1
 972 881 l 1
 1027 789 1055 678 1055 547 c 0
 1055 374 1012 237 927 136 c 0
 845 39 735 -10 596 -10 c 0
 506 -10 430 15 367 66 c 0
 360 71 352 77 345 84 c 1
 345 0 l 1
346 538 m 0
 346 411 376 317 435 257 c 0
 474 218 523 198 582 198 c 0
 685 199 760 244 806 333 c 0
 834 387 848 453 848 531 c 0
 848 665 813 761 743 819 c 0
 718 840 688 854 655 863 c 1
 609 869 l 2
 603 870 596 870 589 870 c 0
 513 870 452 833 405 759 c 0
 366 696 346 623 346 538 c 0
EndSplineSet
EndChar
StartChar: c
Encoding: 69 99 71
OldEncoding: 99
Width: 1024
Flags: HW
Fore
788 403 m 1
 1005 403 l 1
 1000 244 942 130 832 59 c 0
 789 31 738 12 681 1 c 0
 644 -6 605 -10 563 -10 c 0
 420 -10 305 38 216 135 c 0
 127 232 82 360 80 518 c 0
 80 523 80 523 80 527 c 0
 80 719 131 864 232 963 c 0
 315 1045 426 1086 564 1086 c 0
 701 1086 810 1046 892 967 c 0
 966 896 1003 805 1003 696 c 1
 788 696 l 1
 787 757 758 806 701 842 c 0
 662 867 618 879 571 879 c 0
 466 879 391 831 345 734 c 0
 324 689 311 637 307 577 c 0
 306 562 305 547 305 532 c 0
 305 421 332 336 385 275 c 0
 429 225 488 200 561 200 c 0
 660 200 727 232 763 297 c 0
 779 326 787 362 788 403 c 1
EndSplineSet
EndChar
StartChar: d
Encoding: 70 100 72
OldEncoding: 100
Width: 1139
Flags: HW
Fore
778 84 m 1
 771 77 763 71 756 66 c 0
 693 15 617 -10 527 -10 c 0
 388 -10 278 39 196 136 c 0
 111 237 68 374 68 547 c 0
 68 702 106 828 181 926 c 0
 264 1033 376 1086 518 1086 c 0
 605 1086 687 1054 765 990 c 1
 765 1466 l 1
 989 1466 l 1
 989 0 l 1
 778 0 l 1
 778 84 l 1
777 538 m 0
 777 623 757 696 718 759 c 0
 671 833 610 870 534 870 c 0
 473 870 421 853 380 819 c 0
 310 761 275 665 275 531 c 0
 275 453 289 387 317 333 c 0
 363 244 438 199 541 198 c 0
 600 198 649 218 688 257 c 0
 747 317 777 411 777 538 c 0
EndSplineSet
EndChar
StartChar: e
Encoding: 71 101 73
OldEncoding: 101
Width: 1139
Flags: HW
Fore
807 333 m 1
 1048 333 l 1
 1023 206 957 113 850 53 c 0
 775 11 685 -10 581 -10 c 0
 388 -10 249 55 163 185 c 0
 104 272 75 385 75 522 c 0
 75 707 124 850 222 951 c 0
 309 1041 426 1086 571 1086 c 0
 731 1086 855 1029 942 916 c 0
 1017 819 1054 693 1055 539 c 0
 1055 521 1054 503 1053 485 c 1
 312 485 l 1
 319 386 355 311 418 260 c 0
 463 223 518 204 582 204 c 0
 677 204 744 232 784 287 c 0
 795 302 802 317 807 333 c 1
318 675 m 1
 816 675 l 1
 803 797 733 863 606 874 c 0
 595 875 584 875 572 875 c 0
 486 875 419 849 371 797 c 1
 349 769 l 1
 333 744 323 717 319 688 c 0
 318 684 318 680 318 675 c 1
EndSplineSet
EndChar
StartChar: f
Encoding: 72 102 74
OldEncoding: 102
Width: 569
Flags: HW
Fore
153 0 m 1
 153 757 l 1
 19 757 l 1
 19 955 l 1
 153 955 l 1
 153 1175 l 2
 153 1318 201 1418 297 1474 c 0
 344 1501 399 1515 462 1515 c 0
 529 1515 589 1506 640 1488 c 1
 640 1277 l 1
 589 1294 555 1303 536 1304 c 0
 524 1304 l 0
 501 1305 481 1302 464 1295 c 0
 408 1273 380 1215 380 1121 c 2
 380 955 l 1
 536 955 l 1
 536 757 l 1
 380 757 l 1
 380 0 l 1
 153 0 l 1
EndSplineSet
KernsSLIF: 72 -37 0 0
EndChar
StartChar: g
Encoding: 73 103 75
OldEncoding: 103
Width: 1139
Flags: HW
Fore
102 -74 m 1
 315 -74 l 1
 315 -109 332 -141 367 -169 c 0
 406 -200 458 -216 521 -216 c 0
 678 -216 762 -139 773 16 c 1
 774 75 l 1
 711 25 628 0 525 0 c 0
 380 0 265 53 182 159 c 0
 105 256 66 382 66 537 c 0
 66 702 107 834 190 934 c 0
 273 1035 385 1086 526 1086 c 0
 667 1086 770 1049 836 974 c 1
 836 1062 l 1
 1002 1062 l 1
 1002 144 l 2
 1002 -107 950 -274 846 -356 c 0
 786 -404 697 -430 578 -434 c 2
 522 -435 l 2
 349 -435 228 -388 160 -293 c 0
 121 -240 102 -173 102 -92 c 0
 102 -74 l 1
315 546 m 0
 315 347 390 247 540 247 c 0
 685 247 757 345 757 541 c 0
 757 688 715 781 632 820 c 0
 605 833 573 839 538 839 c 0
 443 839 377 794 341 703 c 0
 324 659 315 607 315 546 c 0
EndSplineSet
EndChar
StartChar: h
Encoding: 74 104 76
OldEncoding: 104
Width: 1139
Flags: HW
Fore
135 0 m 1
 135 1466 l 1
 365 1466 l 1
 365 1008 l 1
 416 1066 495 1095 600 1095 c 0
 749 1095 859 1044 928 941 c 0
 976 870 1000 781 1000 673 c 2
 1000 0 l 1
 770 0 l 1
 770 624 l 2
 770 727 741 791 682 817 c 0
 659 827 630 832 596 832 c 0
 519 832 459 794 415 719 c 0
 382 663 365 601 365 532 c 2
 365 0 l 1
 135 0 l 1
EndSplineSet
EndChar
StartChar: i
Encoding: 75 105 77
OldEncoding: 105
Width: 455
Flags: HW
Fore
111 1218 m 1
 111 1466 l 1
 342 1466 l 1
 342 1218 l 1
 111 1218 l 1
106 0 m 1
 106 1062 l 1
 346 1062 l 1
 346 0 l 1
 106 0 l 1
EndSplineSet
EndChar
StartChar: j
Encoding: 76 106 78
OldEncoding: 106
Width: 455
Flags: HW
Fore
112 1220 m 1
 112 1466 l 1
 340 1466 l 1
 340 1220 l 1
 112 1220 l 1
-94 -412 m 1
 -94 -205 l 1
 -59 -210 -38 -213 -29 -213 c 0
 30 -213 70 -193 89 -152 c 0
 104 -120 112 -76 112 -20 c 2
 112 1062 l 1
 340 1062 l 1
 340 -58 l 2
 340 -246 289 -362 186 -406 c 0
 151 -421 111 -428 65 -428 c 0
 8 -428 -45 -423 -94 -412 c 1
EndSplineSet
EndChar
StartChar: k
Encoding: 77 107 79
OldEncoding: 107
Width: 1024
Flags: HW
Fore
136 0 m 1
 136 1466 l 1
 356 1466 l 1
 356 684 l 1
 696 1062 l 1
 975 1062 l 1
 592 636 l 1
 1016 0 l 1
 740 0 l 1
 443 484 l 1
 356 390 l 1
 356 0 l 1
 136 0 l 1
EndSplineSet
EndChar
StartChar: l
Encoding: 78 108 80
OldEncoding: 108
Width: 455
Flags: HW
Fore
104 0 m 1
 104 1466 l 1
 340 1466 l 1
 340 0 l 1
 104 0 l 1
EndSplineSet
EndChar
StartChar: m
Encoding: 79 109 81
OldEncoding: 109
Width: 1706
Flags: HW
Fore
135 0 m 1
 135 1062 l 1
 343 1062 l 1
 343 978 l 1
 411 1050 503 1086 618 1086 c 0
 731 1086 818 1057 879 999 c 0
 896 984 909 967 918 948 c 1
 953 1005 1016 1045 1109 1069 c 0
 1154 1080 1199 1086 1246 1086 c 0
 1440 1086 1548 992 1570 803 c 0
 1573 780 1574 755 1574 729 c 2
 1574 0 l 1
 1356 0 l 1
 1356 669 l 1
 1351 782 1301 839 1206 842 c 1
 1078 842 1006 784 989 668 c 0
 987 652 986 635 986 617 c 2
 986 0 l 1
 742 0 l 1
 742 690 l 2
 742 761 711 807 648 830 c 0
 627 838 603 842 578 842 c 0
 457 842 387 773 368 636 c 0
 364 610 362 582 362 551 c 2
 362 0 l 1
 135 0 l 1
EndSplineSet
EndChar
StartChar: n
Encoding: 80 110 82
OldEncoding: 110
Width: 1139
Flags: HW
Fore
135 0 m 1
 135 1064 l 1
 368 1064 l 1
 368 1012 l 1
 409 1050 453 1074 500 1085 c 0
 529 1092 563 1095 600 1095 c 0
 749 1095 859 1044 928 941 c 0
 976 870 1000 781 1000 673 c 2
 1000 0 l 1
 776 0 l 1
 776 624 l 2
 776 737 736 803 657 822 c 0
 639 826 619 828 596 828 c 0
 501 828 435 786 398 701 c 0
 378 655 368 599 368 532 c 2
 368 0 l 1
 135 0 l 1
EndSplineSet
EndChar
StartChar: o
Encoding: 81 111 83
OldEncoding: 111
Width: 1139
Flags: HW
Fore
68 531 m 0
 68 722 120 866 224 964 c 0
 310 1045 424 1086 566 1086 c 0
 728 1086 854 1032 944 924 c 0
 1023 828 1063 702 1063 546 c 0
 1063 306 990 143 843 56 c 0
 768 11 675 -11 566 -11 c 0
 377 -11 240 55 155 187 c 0
 97 276 68 391 68 531 c 0
309 529 m 0
 309 372 357 271 453 228 c 0
 486 213 523 206 566 206 c 0
 689 206 768 266 803 387 c 0
 815 430 821 479 821 534 c 0
 821 665 786 759 716 815 c 0
 675 848 625 864 566 864 c 0
 455 864 379 812 338 708 c 0
 319 658 309 598 309 529 c 0
EndSplineSet
EndChar
StartChar: p
Encoding: 82 112 84
OldEncoding: 112
Width: 1139
Flags: HW
Fore
331 992 m 1
 343 1002 343 1002 353 1010 c 0
 416 1061 492 1086 582 1086 c 0
 721 1086 832 1037 913 940 c 0
 998 839 1041 702 1041 529 c 0
 1041 374 1003 248 928 150 c 0
 846 43 734 -10 591 -10 c 0
 504 -10 422 22 344 86 c 1
 344 -390 l 1
 120 -390 l 1
 120 1076 l 1
 331 1076 l 1
 331 992 l 1
332 538 m 0
 332 453 352 380 391 317 c 0
 438 243 499 206 576 206 c 0
 637 206 688 223 729 257 c 0
 799 315 834 411 834 545 c 0
 834 623 820 689 792 743 c 0
 746 832 672 877 569 878 c 0
 510 878 461 858 422 819 c 0
 362 759 332 665 332 538 c 0
EndSplineSet
EndChar
StartChar: q
Encoding: 83 113 85
OldEncoding: 113
Width: 1139
Flags: HW
Fore
797 1076 m 1
 1008 1076 l 1
 1008 -390 l 1
 784 -390 l 1
 784 86 l 1
 706 22 624 -10 537 -10 c 0
 395 -10 283 43 200 150 c 0
 125 248 87 374 87 529 c 0
 87 702 130 839 215 940 c 0
 297 1037 407 1086 546 1086 c 0
 636 1086 712 1061 775 1010 c 0
 782 1005 790 999 797 992 c 1
 797 1076 l 1
796 538 m 0
 796 665 766 759 707 819 c 0
 668 858 619 878 560 878 c 0
 457 877 382 832 336 743 c 0
 308 689 294 623 294 545 c 0
 294 411 329 315 399 257 c 0
 440 223 492 206 553 206 c 0
 629 206 690 243 737 317 c 0
 776 380 796 453 796 538 c 0
EndSplineSet
EndChar
StartChar: r
Encoding: 84 114 86
OldEncoding: 114
Width: 682
Flags: HW
Fore
133 0 m 1
 133 1062 l 1
 362 1062 l 1
 362 947 l 1
 383 986 403 1014 424 1030 c 0
 435 1038 448 1045 463 1052 c 0
 470 1055 479 1058 488 1062 c 0
 514 1072 545 1077 580 1077 c 0
 614 1077 643 1070 668 1055 c 2
 710 1028 l 1
 648 789 l 1
 598 823 l 1
 578 828 l 1
 565 828 l 2
 542 828 521 824 501 817 c 0
 486 811 471 803 457 792 c 0
 416 761 391 699 384 604 c 0
 381 572 380 532 380 484 c 2
 380 0 l 1
 133 0 l 1
EndSplineSet
KernsSLIF: 16 -113 0 0 14 -113 0 0
EndChar
StartChar: s
Encoding: 85 115 87
OldEncoding: 115
Width: 1024
Flags: HW
Fore
63 358 m 1
 291 358 l 1
 299 297 332 253 389 226 c 0
 424 209 466 201 516 201 c 0
 587 201 643 219 682 255 c 0
 701 272 710 289 710 306 c 0
 710 356 693 390 659 408 c 0
 639 419 594 430 523 443 c 0
 382 469 283 498 226 531 c 0
 147 576 103 646 95 739 c 0
 94 752 93 766 93 780 c 0
 94 884 138 964 227 1020 c 0
 296 1064 382 1086 484 1086 c 0
 655 1086 775 1042 845 953 c 0
 884 902 904 839 905 764 c 1
 679 764 l 1
 674 817 640 852 577 867 c 0
 555 872 528 875 497 875 c 0
 422 874 370 856 343 821 c 0
 334 810 329 797 329 783 c 0
 329 781 329 781 329 778 c 0
 332 733 352 702 390 685 c 0
 407 677 450 667 517 654 c 0
 652 629 748 601 805 570 c 0
 858 541 896 503 919 456 c 0
 936 419 945 376 945 325 c 0
 945 218 900 133 810 71 c 0
 731 16 634 -11 517 -11 c 0
 340 -11 213 41 136 145 c 0
 93 202 69 273 63 358 c 1
EndSplineSet
EndChar
StartChar: t
Encoding: 86 116 88
OldEncoding: 116
Width: 569
Flags: HW
Fore
528 199 m 1
 554 2 l 1
 506 -8 458 -13 411 -13 c 0
 331 -13 275 -4 242 15 c 0
 238 17 l 0
 197 44 169 82 156 130 c 0
 145 170 140 230 140 311 c 2
 140 892 l 1
 18 892 l 1
 18 1088 l 1
 140 1088 l 1
 140 1433 l 1
 372 1433 l 1
 372 1088 l 1
 497 1088 l 1
 497 892 l 1
 372 892 l 1
 372 301 l 2
 372 269 375 248 381 238 c 0
 383 234 383 234 384 232 c 0
 390 222 400 213 413 205 c 0
 428 196 448 191 474 191 c 0
 475 191 493 194 528 199 c 1
EndSplineSet
EndChar
StartChar: u
Encoding: 87 117 89
OldEncoding: 117
Width: 1139
Flags: HW
Fore
969 1085 m 1
 969 0 l 1
 789 0 l 1
 789 64 l 1
 757 29 698 6 612 -5 c 0
 587 -8 562 -10 537 -10 c 0
 368 -10 247 42 175 147 c 0
 128 215 104 303 104 412 c 2
 104 1085 l 1
 330 1085 l 1
 330 461 l 2
 330 361 367 294 442 261 c 0
 469 249 500 243 534 243 c 0
 641 243 704 292 721 390 c 0
 724 410 726 432 726 456 c 2
 726 1085 l 1
 969 1085 l 1
EndSplineSet
EndChar
StartChar: v
Encoding: 88 118 90
OldEncoding: 118
Width: 1024
Flags: HW
Fore
429 0 m 1
 26 1062 l 1
 268 1062 l 1
 520 360 l 1
 760 1062 l 1
 1000 1062 l 1
 599 0 l 1
 429 0 l 1
EndSplineSet
KernsSLIF: 16 -152 0 0 14 -152 0 0
EndChar
StartChar: w
Encoding: 89 119 91
OldEncoding: 119
Width: 1479
Flags: HW
Fore
296 0 m 1
 6 1062 l 1
 256 1062 l 1
 424 364 l 1
 648 1062 l 1
 832 1062 l 1
 1069 364 l 1
 1236 1062 l 1
 1463 1062 l 1
 1200 0 l 1
 956 0 l 1
 915 149 843 374 740 676 c 1
 544 0 l 1
 296 0 l 1
EndSplineSet
KernsSLIF: 16 -113 0 0 14 -113 0 0
EndChar
StartChar: x
Encoding: 90 120 92
OldEncoding: 120
Width: 1024
Flags: HW
Fore
15 0 m 1
 346 552 l 1
 44 1062 l 1
 324 1062 l 1
 499 744 l 1
 700 1062 l 1
 981 1062 l 1
 657 562 l 1
 1009 0 l 1
 732 0 l 1
 505 369 l 1
 284 0 l 1
 15 0 l 1
EndSplineSet
EndChar
StartChar: y
Encoding: 91 121 93
OldEncoding: 121
Width: 1024
Flags: HW
Fore
127 -409 m 1
 107 -192 l 1
 141 -201 177 -206 214 -206 c 0
 261 -206 299 -198 327 -183 c 1
 387 -153 417 -110 417 -54 c 0
 417 -37 414 -19 408 0 c 1
 33 1062 l 1
 292 1062 l 1
 525 372 l 1
 744 1062 l 1
 1006 1062 l 1
 624 0 l 1
 611 -123 573 -223 511 -302 c 0
 488 -331 458 -355 420 -375 c 0
 367 -402 307 -418 239 -422 c 1
 185 -421 l 1
 164 -419 144 -415 127 -409 c 1
EndSplineSet
KernsSLIF: 16 -152 0 0 14 -152 0 0
EndChar
StartChar: z
Encoding: 92 122 94
OldEncoding: 122
Width: 1024
Flags: HW
Fore
40 0 m 1
 40 212 l 1
 664 864 l 1
 60 864 l 1
 60 1062 l 1
 948 1062 l 1
 948 864 l 1
 344 212 l 1
 980 212 l 1
 980 0 l 1
 40 0 l 1
EndSplineSet
EndChar
StartChar: braceleft
Encoding: 93 123 95
OldEncoding: 123
Width: 684
Flags: HW
Fore
57 612 m 1
 108 613 150 627 183 654 c 0
 215 681 236 717 247 762 c 0
 258 808 263 891 264 1011 c 0
 265 1131 269 1217 277 1270 c 0
 286 1323 304 1366 332 1401 c 0
 360 1436 395 1460 438 1475 c 0
 467 1486 515 1491 580 1491 c 2
 636 1491 l 1
 636 1280 l 1
 605 1280 l 2
 577 1280 559 1278 550 1273 c 1
 528 1254 l 2
 507 1236 494 1205 489 1160 c 0
 486 1135 484 1075 484 981 c 0
 484 838 468 736 437 676 c 0
 415 634 415 634 409 623 c 0
 384 582 351 551 308 530 c 1
 333 519 354 505 370 486 c 1
 411 426 l 1
 443 382 464 323 475 249 c 0
 481 204 484 119 484 -6 c 0
 484 -93 495 -149 518 -174 c 1
 536 -196 l 1
 546 -207 569 -212 605 -212 c 2
 636 -212 l 1
 636 -431 l 1
 580 -431 l 2
 523 -431 481 -427 456 -420 c 0
 419 -409 388 -394 364 -374 c 0
 340 -353 320 -326 303 -292 c 0
 287 -259 276 -214 270 -157 c 0
 267 -121 265 -48 264 63 c 0
 263 174 258 253 247 298 c 0
 236 344 215 380 183 407 c 0
 150 434 108 448 57 449 c 1
 57 612 l 1
EndSplineSet
EndChar
StartChar: bar
Encoding: 94 124 96
OldEncoding: 124
Width: 532
Flags: HW
Fore
140 -431 m 1
 140 1491 l 1
 390 1491 l 1
 390 -431 l 1
 140 -431 l 1
EndSplineSet
EndChar
StartChar: braceright
Encoding: 95 125 97
OldEncoding: 125
Width: 684
Flags: HW
Fore
626 612 m 1
 626 449 l 1
 575 448 533 434 500 407 c 0
 468 380 447 344 436 298 c 0
 425 253 420 174 419 63 c 0
 418 -48 416 -122 413 -157 c 0
 407 -214 396 -259 380 -292 c 0
 363 -326 343 -353 319 -374 c 0
 295 -394 264 -409 227 -420 c 0
 202 -427 160 -431 103 -431 c 2
 47 -431 l 1
 47 -212 l 1
 78 -212 l 2
 114 -212 137 -207 147 -196 c 1
 165 -174 l 1
 188 -149 199 -93 199 -6 c 0
 199 119 202 204 208 249 c 0
 219 323 240 382 272 426 c 1
 313 486 l 1
 329 505 350 519 375 530 c 1
 332 551 299 581 275 622 c 0
 270 629 261 647 246 676 c 0
 215 736 199 838 199 981 c 0
 199 1075 197 1135 194 1160 c 0
 189 1205 176 1236 155 1254 c 2
 133 1273 l 1
 113 1278 l 2
 105 1279 93 1280 78 1280 c 2
 47 1280 l 1
 47 1491 l 1
 103 1491 l 2
 168 1491 216 1486 245 1475 c 0
 288 1460 323 1436 351 1401 c 0
 379 1366 397 1323 406 1270 c 0
 414 1217 418 1131 419 1011 c 0
 420 891 425 808 436 762 c 0
 447 717 468 681 500 654 c 0
 533 627 575 613 626 612 c 1
EndSplineSet
EndChar
StartChar: asciitilde
Encoding: 96 126 98
OldEncoding: 126
Width: 1196
Flags: HW
Fore
87 529 m 1
 87 782 l 1
 158 862 250 902 365 902 c 0
 405 902 447 896 491 884 c 0
 535 873 598 850 679 815 c 0
 725 796 759 783 782 777 c 0
 805 771 829 768 852 768 c 0
 895 768 940 781 986 807 c 0
 1033 833 1074 866 1110 905 c 1
 1110 645 l 1
 1067 605 1024 576 980 558 c 0
 937 540 888 531 833 531 c 0
 793 531 755 536 718 545 c 0
 682 554 625 577 546 612 c 0
 467 647 401 665 348 665 c 0
 305 665 265 656 228 638 c 0
 190 619 143 583 87 529 c 1
EndSplineSet
EndChar
StartChar: exclamdown
Encoding: 99 161 101
OldEncoding: 161
Width: 680
Flags: HW
Fore
442 1278 m 1
 238 1278 l 1
 238 1489 l 1
 442 1489 l 1
 442 1278 l 1
452 0 m 1
 228 0 l 1
 256 1079 l 1
 422 1079 l 1
 452 0 l 1
EndSplineSet
EndChar
StartChar: cent
Encoding: 100 162 102
OldEncoding: 162
Width: 1118
Flags: HW
Fore
557 2 m 1
 414 19 304 75 228 171 c 128
 152 267 114 396 114 557 c 0
 114 716 153 844 232 943 c 128
 311 1042 419 1099 557 1115 c 1
 557 1475 l 1
 671 1475 l 1
 671 1116 l 1
 729 1114 785 1105 838 1090 c 128
 892 1074 938 1056 975 1037 c 1
 975 837 l 1
 965 837 l 1
 924 871 880 901 833 926 c 128
 786 951 732 968 671 977 c 1
 671 141 l 1
 704 144 736 152 770 164 c 128
 802 176 830 189 853 202 c 0
 877 216 898 230 917 244 c 128
 936 257 952 270 965 281 c 1
 975 281 l 1
 975 83 l 1
 932 63 886 45 840 30 c 128
 792 14 736 4 671 1 c 1
 671 -361 l 1
 557 -361 l 1
 557 2 l 1
557 146 m 1
 557 971 l 1
 480 957 419 915 374 846 c 128
 329 776 307 680 307 557 c 0
 307 432 330 335 376 268 c 128
 421 200 482 159 557 146 c 1
EndSplineSet
EndChar
StartChar: sterling
Encoding: 101 163 103
OldEncoding: 163
Width: 1118
Flags: HW
Fore
1031 0 m 1
 89 0 l 1
 89 207 l 1
 163 229 215 272 246 335 c 128
 276 398 291 491 291 613 c 1
 130 613 l 1
 130 751 l 1
 291 751 l 1
 291 1071 l 2
 291 1205 330 1313 407 1395 c 128
 484 1477 585 1518 708 1518 c 0
 773 1518 828 1513 874 1502 c 128
 920 1492 962 1481 1001 1470 c 1
 1001 1264 l 1
 991 1264 l 1
 952 1291 909 1313 862 1328 c 128
 815 1343 770 1351 727 1351 c 0
 645 1351 584 1325 544 1274 c 128
 503 1223 483 1149 483 1052 c 2
 483 751 l 1
 847 751 l 1
 847 613 l 1
 483 613 l 1
 483 552 l 2
 483 474 464 403 424 340 c 128
 386 276 331 223 261 182 c 1
 261 171 l 1
 1031 171 l 1
 1031 0 l 1
EndSplineSet
EndChar
StartChar: currency
Encoding: 102 164 104
OldEncoding: 164
Width: 1118
Flags: HW
Fore
1057 272 m 1
 951 166 l 1
 737 378 l 1
 707 360 679 347 653 338 c 128
 627 330 596 326 560 326 c 0
 529 326 498 331 468 341 c 128
 436 351 409 364 385 379 c 1
 170 164 l 1
 65 273 l 1
 277 486 l 1
 260 513 248 542 238 572 c 128
 230 604 225 633 225 661 c 0
 225 690 230 720 238 750 c 128
 248 779 261 808 278 835 c 1
 65 1051 l 1
 172 1157 l 1
 386 944 l 1
 411 960 438 973 469 982 c 128
 500 991 530 996 560 996 c 0
 595 996 627 991 658 980 c 128
 688 970 714 958 736 945 c 1
 948 1157 l 1
 1057 1052 l 1
 843 836 l 1
 861 807 874 780 883 753 c 128
 892 726 896 696 896 661 c 0
 896 631 891 600 882 570 c 128
 872 538 859 511 843 486 c 1
 1057 272 l 1
752 661 m 0
 752 714 733 760 696 800 c 128
 658 838 613 858 560 858 c 0
 509 858 464 839 426 800 c 128
 387 762 368 716 368 661 c 0
 368 608 387 562 424 522 c 128
 462 484 507 464 560 464 c 0
 611 464 656 483 694 522 c 128
 733 560 752 606 752 661 c 0
EndSplineSet
EndChar
StartChar: yen
Encoding: 103 165 105
OldEncoding: 165
Width: 1118
Flags: HW
Fore
1059 1489 m 1
 651 678 l 1
 651 578 l 1
 993 578 l 1
 993 440 l 1
 653 440 l 1
 653 0 l 1
 465 0 l 1
 465 440 l 1
 125 440 l 1
 125 578 l 1
 467 578 l 1
 467 657 l 1
 56 1489 l 1
 266 1489 l 1
 560 850 l 1
 858 1489 l 1
 1059 1489 l 1
EndSplineSet
EndChar
StartChar: brokenbar
Encoding: 104 166 106
OldEncoding: 166
Width: 783
Flags: HW
Fore
475 758 m 1
 308 758 l 1
 308 1556 l 1
 475 1556 l 1
 475 758 l 1
475 -392 m 1
 308 -392 l 1
 308 406 l 1
 475 406 l 1
 475 -392 l 1
EndSplineSet
EndChar
StartChar: section
Encoding: 105 167 107
OldEncoding: 167
Width: 1118
Flags: HW
Fore
759 401 m 0
 775 424 788 447 796 468 c 128
 806 490 810 519 810 555 c 0
 810 588 805 616 796 640 c 128
 786 664 773 684 756 699 c 0
 740 714 721 727 700 738 c 128
 679 748 654 757 626 766 c 0
 593 776 593 776 549 788 c 128
 520 797 487 807 450 819 c 1
 437 811 423 801 408 789 c 128
 394 777 378 760 361 738 c 0
 348 721 336 697 324 668 c 128
 314 639 308 609 308 579 c 0
 308 525 321 482 346 450 c 128
 371 418 420 391 492 369 c 0
 526 359 526 359 570 346 c 128
 613 332 613 332 667 315 c 1
 680 323 694 334 711 348 c 128
 728 362 744 380 759 401 c 0
182 -133 m 1
 199 -142 221 -151 246 -162 c 128
 272 -173 297 -182 321 -190 c 0
 352 -200 381 -208 408 -212 c 128
 435 -218 468 -220 509 -220 c 0
 585 -220 648 -204 700 -174 c 128
 750 -142 776 -97 776 -36 c 0
 776 0 770 29 758 52 c 128
 745 74 725 94 698 111 c 0
 670 128 636 142 594 154 c 128
 533 171 533 171 460 192 c 0
 401 209 352 226 314 243 c 128
 274 260 239 283 208 312 c 0
 178 339 156 371 141 407 c 128
 126 443 119 485 119 533 c 0
 119 596 135 655 168 712 c 128
 201 768 251 817 318 858 c 1
 318 865 l 1
 257 898 214 939 188 986 c 128
 161 1033 148 1087 148 1147 c 0
 148 1259 191 1349 276 1417 c 128
 361 1485 479 1519 628 1519 c 0
 685 1519 737 1515 785 1506 c 128
 833 1497 887 1483 946 1462 c 1
 946 1268 l 1
 936 1268 l 1
 876 1298 820 1320 768 1334 c 128
 717 1348 663 1355 607 1355 c 0
 532 1355 469 1340 418 1310 c 128
 366 1279 340 1235 340 1176 c 0
 340 1138 347 1107 360 1083 c 128
 374 1059 394 1039 420 1024 c 0
 446 1008 479 994 520 981 c 128
 560 968 606 955 657 942 c 0
 780 909 867 866 920 814 c 128
 972 761 998 690 998 601 c 0
 998 529 980 466 944 412 c 128
 907 358 859 313 799 277 c 1
 799 270 l 1
 857 239 900 201 928 154 c 128
 955 107 969 53 969 -10 c 0
 969 -59 958 -108 938 -155 c 128
 916 -202 887 -242 848 -274 c 0
 807 -309 757 -337 700 -356 c 128
 642 -375 572 -385 490 -385 c 0
 437 -385 385 -380 333 -371 c 128
 281 -362 227 -347 172 -327 c 1
 172 -133 l 1
 182 -133 l 1
EndSplineSet
EndChar
StartChar: dieresis
Encoding: 106 168 108
OldEncoding: 168
Width: 1118
Flags: HW
Fore
867 1304 m 1
 666 1304 l 1
 666 1499 l 1
 867 1499 l 1
 867 1304 l 1
454 1304 m 1
 253 1304 l 1
 253 1499 l 1
 454 1499 l 1
 454 1304 l 1
EndSplineSet
EndChar
StartChar: copyright
Encoding: 107 169 109
OldEncoding: 169
Width: 1902
Flags: HW
Fore
1816 655 m 0
 1816 416 1732 212 1562 44 c 128
 1394 -126 1190 -210 951 -210 c 128
 712 -210 508 -126 340 44 c 128
 170 212 86 416 86 655 c 128
 86 894 170 1097 340 1266 c 128
 508 1435 712 1519 951 1519 c 128
 1190 1519 1394 1435 1562 1266 c 128
 1732 1097 1816 894 1816 655 c 0
1701 655 m 0
 1701 864 1628 1042 1482 1188 c 128
 1335 1336 1159 1409 952 1409 c 128
 745 1409 569 1336 422 1188 c 128
 276 1042 203 864 203 655 c 128
 203 446 276 268 422 121 c 128
 569 -26 745 -100 952 -100 c 128
 1159 -100 1335 -26 1482 121 c 128
 1628 268 1701 446 1701 655 c 0
1274 255 m 1
 1229 235 1185 218 1140 202 c 128
 1095 188 1043 180 982 180 c 0
 843 180 733 221 652 304 c 128
 571 386 531 505 531 660 c 0
 531 813 573 932 656 1016 c 128
 739 1101 848 1143 982 1143 c 0
 1037 1143 1090 1136 1141 1121 c 128
 1192 1106 1236 1089 1274 1070 c 1
 1274 889 l 1
 1258 889 l 1
 1229 914 1190 938 1139 962 c 128
 1088 984 1037 996 986 996 c 0
 904 996 838 969 790 914 c 128
 740 859 716 775 716 660 c 0
 716 552 739 470 786 412 c 128
 833 356 899 327 986 327 c 0
 1042 327 1095 339 1145 364 c 128
 1195 388 1233 411 1258 434 c 1
 1274 434 l 1
 1274 255 l 1
EndSplineSet
EndChar
StartChar: ordfeminine
Encoding: 108 170 110
OldEncoding: 170
Width: 1010
Flags: HW
Fore
874 566 m 1
 708 566 l 1
 708 657 l 1
 689 642 689 642 657 618 c 128
 636 603 615 590 594 581 c 0
 567 568 540 558 514 552 c 128
 487 544 451 541 404 541 c 0
 321 541 252 569 197 624 c 128
 142 680 114 752 114 839 c 0
 114 908 128 965 157 1008 c 128
 186 1052 227 1087 280 1112 c 0
 330 1136 393 1153 469 1163 c 128
 545 1173 625 1180 708 1184 c 1
 708 1203 l 2
 708 1238 702 1266 692 1287 c 128
 680 1308 664 1325 643 1337 c 0
 624 1348 600 1356 571 1360 c 128
 542 1363 513 1365 482 1365 c 0
 430 1365 377 1357 324 1342 c 128
 270 1326 230 1313 204 1304 c 1
 189 1304 l 1
 189 1474 l 1
 218 1483 262 1492 320 1503 c 128
 379 1514 433 1519 483 1519 c 0
 611 1519 708 1494 774 1442 c 128
 841 1392 874 1309 874 1194 c 2
 874 566 l 1
708 802 m 1
 708 1045 l 1
 665 1042 614 1038 557 1033 c 128
 500 1028 454 1020 420 1010 c 0
 380 999 348 980 323 954 c 128
 298 929 286 894 286 849 c 0
 286 799 301 761 330 735 c 128
 359 709 403 696 461 696 c 0
 512 696 557 707 598 729 c 128
 638 751 675 775 708 802 c 1
EndSplineSet
EndChar
StartChar: guillemotleft
Encoding: 109 171 111
OldEncoding: 171
Width: 1174
Flags: HW
Fore
1043 191 m 1
 555 610 l 1
 555 695 l 1
 1043 1113 l 1
 1043 925 l 1
 726 652 l 1
 1043 379 l 1
 1043 191 l 1
613 162 m 1
 103 608 l 1
 103 697 l 1
 613 1142 l 1
 613 946 l 1
 282 652 l 1
 613 358 l 1
 613 162 l 1
EndSplineSet
EndChar
StartChar: logicalnot
Encoding: 110 172 112
OldEncoding: 172
Width: 1490
Flags: HW
Fore
1323 57 m 1
 1152 57 l 1
 1152 602 l 1
 157 602 l 1
 157 762 l 1
 1323 762 l 1
 1323 57 l 1
EndSplineSet
EndChar
StartChar: registered
Encoding: 112 174 114
OldEncoding: 174
Width: 1902
Flags: HW
Fore
1816 655 m 0
 1816 416 1732 212 1562 44 c 128
 1394 -126 1190 -210 951 -210 c 128
 712 -210 508 -126 340 44 c 128
 170 212 86 416 86 655 c 128
 86 894 170 1097 340 1266 c 128
 508 1435 712 1519 951 1519 c 128
 1190 1519 1394 1435 1562 1266 c 128
 1732 1097 1816 894 1816 655 c 0
1701 655 m 0
 1701 864 1628 1042 1482 1188 c 128
 1335 1336 1159 1409 952 1409 c 128
 745 1409 569 1336 422 1188 c 128
 276 1042 203 864 203 655 c 128
 203 446 276 268 422 121 c 128
 569 -26 745 -100 952 -100 c 128
 1159 -100 1335 -26 1482 121 c 128
 1628 268 1701 446 1701 655 c 0
1448 215 m 1
 1221 215 l 1
 938 570 l 1
 815 570 l 1
 815 215 l 1
 650 215 l 1
 650 1130 l 1
 929 1130 l 2
 992 1130 1041 1128 1078 1123 c 128
 1114 1118 1151 1105 1188 1084 c 0
 1228 1061 1257 1034 1275 1002 c 128
 1293 970 1302 929 1302 879 c 0
 1302 812 1284 758 1246 715 c 128
 1210 672 1161 639 1102 615 c 1
 1448 215 l 1
1120 868 m 0
 1120 893 1116 914 1108 932 c 128
 1100 950 1086 965 1066 978 c 0
 1049 989 1031 996 1010 1000 c 128
 989 1003 963 1005 930 1005 c 2
 815 1005 l 1
 815 696 l 1
 913 696 l 2
 945 696 975 699 1003 706 c 128
 1031 712 1054 723 1071 738 c 128
 1088 753 1101 771 1108 791 c 128
 1116 811 1120 837 1120 868 c 0
EndSplineSet
EndChar
StartChar: macron
Encoding: 113 175 115
OldEncoding: 175
Width: 1118
Flags: HW
Fore
1134 1659 m 1
 -16 1659 l 1
 -16 1789 l 1
 1134 1789 l 1
 1134 1659 l 1
EndSplineSet
EndChar
StartChar: degree
Encoding: 114 176 116
OldEncoding: 176
Width: 964
Flags: HW
Fore
863 1135 m 0
 863 1028 826 938 753 865 c 128
 680 792 589 755 482 755 c 0
 376 755 286 791 212 864 c 128
 138 937 101 1027 101 1135 c 0
 101 1242 138 1332 211 1405 c 128
 284 1478 375 1515 482 1515 c 128
 589 1515 680 1478 753 1405 c 128
 826 1332 863 1242 863 1135 c 0
706 1135 m 0
 706 1199 685 1253 642 1297 c 128
 599 1341 546 1363 482 1363 c 128
 418 1363 365 1341 322 1297 c 128
 279 1253 258 1199 258 1135 c 0
 258 1070 280 1015 324 972 c 128
 367 929 420 907 482 907 c 0
 546 907 599 929 642 974 c 128
 685 1018 706 1072 706 1135 c 0
EndSplineSet
EndChar
StartChar: plusminus
Encoding: 115 177 117
OldEncoding: 177
Width: 1490
Flags: HW
Fore
1328 159 m 1
 162 159 l 1
 162 317 l 1
 662 317 l 1
 662 739 l 1
 162 739 l 1
 162 897 l 1
 662 897 l 1
 662 1402 l 1
 828 1402 l 1
 828 897 l 1
 1328 897 l 1
 1328 739 l 1
 828 739 l 1
 828 317 l 1
 1328 317 l 1
 1328 159 l 1
EndSplineSet
EndChar
StartChar: uni00B2
Encoding: 116 178 118
OldEncoding: 178
Width: 1010
Flags: HW
Fore
866 566 m 1
 185 566 l 1
 185 718 l 1
 262 777 262 777 332 832 c 128
 380 868 418 900 447 929 c 0
 518 997 564 1050 586 1088 c 128
 608 1127 619 1173 619 1227 c 0
 619 1273 605 1308 576 1334 c 128
 547 1358 508 1371 457 1371 c 0
 411 1371 364 1361 318 1341 c 128
 270 1321 233 1300 206 1279 c 1
 191 1279 l 1
 191 1458 l 1
 233 1476 280 1491 330 1502 c 128
 382 1513 432 1519 481 1519 c 0
 585 1519 665 1493 720 1440 c 128
 776 1388 804 1321 804 1239 c 0
 804 1182 791 1128 764 1076 c 128
 738 1023 689 965 617 900 c 0
 582 869 542 837 496 802 c 128
 427 751 427 751 373 710 c 1
 866 710 l 1
 866 566 l 1
EndSplineSet
EndChar
StartChar: uni00B3
Encoding: 117 179 119
OldEncoding: 179
Width: 1010
Flags: HW
Fore
837 828 m 0
 837 781 827 738 807 700 c 128
 787 663 761 633 729 611 c 0
 694 586 656 569 614 558 c 128
 574 547 527 542 474 542 c 0
 419 542 368 547 320 557 c 128
 273 567 227 581 184 600 c 1
 184 775 l 1
 201 775 l 1
 226 752 264 730 315 710 c 128
 366 691 418 681 471 681 c 0
 527 681 573 693 610 718 c 128
 647 742 665 778 665 826 c 0
 665 874 650 910 622 933 c 128
 592 956 543 968 474 968 c 2
 334 968 l 1
 334 1107 l 1
 459 1107 l 2
 517 1107 562 1120 594 1145 c 128
 625 1170 641 1205 641 1249 c 0
 641 1289 627 1321 600 1344 c 128
 573 1368 530 1380 472 1380 c 0
 428 1380 380 1370 330 1349 c 128
 278 1328 241 1306 216 1283 c 1
 199 1283 l 1
 199 1458 l 1
 242 1476 288 1491 338 1502 c 128
 388 1513 439 1519 492 1519 c 0
 593 1519 672 1496 729 1449 c 128
 786 1402 814 1346 814 1281 c 0
 814 1223 798 1175 766 1138 c 128
 733 1100 691 1072 640 1055 c 1
 640 1047 l 1
 693 1036 740 1013 778 976 c 128
 818 940 837 891 837 828 c 0
EndSplineSet
EndChar
StartChar: acute
Encoding: 118 180 120
OldEncoding: 180
Width: 1118
Flags: HW
Fore
871 1676 m 1
 598 1302 l 1
 449 1302 l 1
 628 1676 l 1
 871 1676 l 1
EndSplineSet
EndChar
StartChar: mu
Encoding: 119 181 121
OldEncoding: 181
Width: 1163
Flags: HW
Fore
1027 0 m 1
 855 0 l 1
 855 116 l 1
 849 116 l 1
 809 74 769 41 728 18 c 128
 688 -5 638 -17 578 -17 c 0
 517 -17 468 -5 433 18 c 128
 398 41 361 74 324 115 c 1
 324 -412 l 1
 136 -412 l 1
 136 1117 l 1
 324 1117 l 1
 324 275 l 1
 352 242 387 215 429 194 c 128
 471 174 521 164 578 164 c 0
 638 164 688 174 730 193 c 128
 770 212 807 240 839 275 c 1
 839 1117 l 1
 1027 1117 l 1
 1027 0 l 1
EndSplineSet
EndChar
StartChar: paragraph
Encoding: 120 182 122
OldEncoding: 182
Width: 1118
Flags: HW
Fore
982 -363 m 1
 842 -363 l 1
 842 1359 l 1
 655 1359 l 1
 655 -363 l 1
 515 -363 l 1
 515 593 l 1
 378 596 267 639 183 722 c 128
 99 805 57 914 57 1050 c 0
 57 1188 100 1296 187 1373 c 128
 274 1450 398 1489 560 1489 c 2
 982 1489 l 1
 982 -363 l 1
EndSplineSet
EndChar
StartChar: periodcentered
Encoding: 121 183 123
OldEncoding: 183
Width: 724
Flags: HW
Fore
482 832 m 1
 243 832 l 1
 243 1117 l 1
 482 1117 l 1
 482 832 l 1
EndSplineSet
EndChar
StartChar: cedilla
Encoding: 122 184 124
OldEncoding: 184
Width: 1118
Flags: HW
Fore
767 20 m 1
 768 8 769 -7 770 -26 c 128
 772 -44 773 -65 773 -89 c 0
 773 -197 744 -280 686 -337 c 128
 628 -394 555 -423 466 -423 c 0
 441 -423 412 -421 379 -417 c 128
 346 -413 316 -407 289 -399 c 1
 289 -239 l 1
 298 -239 l 1
 314 -246 335 -254 361 -262 c 128
 387 -269 413 -273 440 -273 c 0
 503 -273 547 -260 574 -234 c 128
 601 -207 614 -165 614 -107 c 0
 614 -90 614 -71 613 -50 c 128
 612 -29 611 -6 610 20 c 1
 767 20 l 1
EndSplineSet
EndChar
StartChar: uni0E01
Encoding: 123 3585 125
OldEncoding: 3585
Width: 1240
Flags: HW
Fore
1082 673 m 2
 1082 0 l 5
 862 0 l 1
 862 657 l 2
 862 838 783 929 624 929 c 0
 518 929 440 896 390 831 c 1
 464 795 516 739 546 663 c 1
 542 661 512 628 456 563 c 0
 424 526 408 459 408 363 c 2
 408 0 l 1
 188 0 l 1
 188 363 l 2
 188 448 197 509 216 546 c 0
 231 576 265 618 316 671 c 1
 269 727 203 767 118 792 c 1
 131 855 167 917 226 979 c 1
 331 1092 464 1149 624 1149 c 0
 774 1149 891 1102 974 1008 c 0
 1046 927 1082 815 1082 673 c 2
EndSplineSet
EndChar
StartChar: uni0E02
Encoding: 124 3586 126
OldEncoding: 3586
Width: 1400
Flags: HW
Fore
302 662 m 1
 321 660 l 1
 344 662 363 676 378 702 c 0
 383 711 387 719 388 726 c 1
 389 765 l 1
 386 793 372 813 347 824 c 0
 341 827 335 828 330 828 c 1
 314 825 l 1
 305 820 297 812 290 801 c 0
 283 789 276 774 271 755 c 0
 268 740 266 727 266 716 c 1
 269 694 l 1
 274 678 285 667 302 662 c 1
884 771 m 1
 799 688 757 623 757 575 c 2
 757 298 l 2
 757 269 774 246 808 227 c 0
 829 216 852 210 876 210 c 0
 928 210 964 225 985 256 c 0
 993 269 997 283 997 298 c 2
 997 1139 l 1
 1217 1139 l 1
 1217 298 l 2
 1217 173 1169 84 1074 33 c 0
 1020 4 954 -10 876 -10 c 0
 773 -10 690 21 625 83 c 0
 566 140 537 212 537 298 c 2
 537 575 l 2
 537 623 577 686 656 763 c 0
 664 771 l 1
 660 823 644 866 617 899 c 0
 588 935 548 953 499 953 c 0
 493 953 487 953 480 952 c 0
 446 949 422 939 407 923 c 0
 406 922 406 921 405 920 c 1
 456 914 491 881 510 820 c 0
 517 797 520 773 520 748 c 0
 520 685 499 632 457 590 c 1
 431 568 l 1
 396 543 355 531 307 531 c 0
 299 531 291 531 282 532 c 0
 201 539 144 582 113 660 c 0
 98 697 91 740 91 789 c 0
 91 798 91 806 92 815 c 0
 102 912 138 988 199 1043 c 0
 270 1107 350 1142 441 1148 c 0
 452 1149 464 1149 476 1149 c 4
 568 1149 648 1128 716 1086 c 0
 735 1075 751 1062 764 1049 c 0
 803 1011 834 959 859 894 c 0
 876 850 884 809 884 771 c 1
EndSplineSet
EndChar
StartChar: uni0E03
Encoding: 125 3587 127
OldEncoding: 3587
Width: 1450
Flags: HW
Fore
280 588 m 1
 299 586 l 1
 322 588 341 602 356 628 c 0
 361 637 365 645 366 652 c 1
 367 691 l 1
 364 719 350 739 325 750 c 0
 319 753 313 754 308 754 c 1
 292 751 l 1
 283 746 275 738 268 727 c 0
 261 715 254 700 249 681 c 0
 246 666 244 653 244 642 c 0
 244 614 256 596 280 588 c 1
663 929 m 1
 567 857 466 857 360 929 c 1
 341 903 330 882 325 866 c 0
 324 865 324 863 324 862 c 1
 403 862 456 827 483 756 c 0
 493 729 498 702 498 674 c 0
 498 611 477 558 435 516 c 0
 396 477 347 457 286 457 c 0
 277 457 269 457 260 458 c 0
 192 464 141 500 106 567 c 0
 85 608 74 654 74 703 c 0
 74 716 75 729 76 741 c 0
 87 821 102 882 121 923 c 0
 133 948 149 974 168 999 c 0
 206 1048 253 1090 309 1124 c 0
 328 1135 345 1144 360 1149 c 1
 519 1041 l 1
 663 1149 l 1
 708 1137 751 1112 793 1073 c 0
 802 1065 810 1057 817 1049 c 1
 856 1011 887 959 912 894 c 0
 929 850 937 809 937 771 c 1
 852 688 810 623 810 575 c 2
 810 298 l 2
 810 269 827 246 861 227 c 0
 882 216 905 210 929 210 c 0
 981 210 1017 225 1038 256 c 0
 1046 269 1050 283 1050 298 c 2
 1050 1139 l 1
 1270 1139 l 1
 1270 298 l 2
 1270 173 1222 84 1127 33 c 0
 1073 4 1007 -10 929 -10 c 0
 826 -10 743 21 678 83 c 0
 619 140 590 212 590 298 c 2
 590 575 l 2
 590 623 627 680 701 745 c 0
 710 754 720 762 731 771 c 1
 728 806 715 845 692 887 c 0
 683 904 673 918 663 929 c 1
EndSplineSet
EndChar
StartChar: uni0E04
Encoding: 126 3588 128
OldEncoding: 3588
Width: 1370
Flags: HW
Fore
775 565 m 1
 765 571 756 574 747 574 c 0
 726 574 705 559 684 528 c 0
 667 503 658 482 658 464 c 0
 658 448 665 435 679 425 c 0
 688 418 698 415 710 415 c 0
 737 415 761 429 782 457 c 0
 793 472 798 488 798 505 c 0
 798 527 790 547 775 565 c 1
421 384 m 1
 455 476 478 533 490 555 c 0
 496 567 503 579 510 590 c 0
 544 643 590 680 647 702 c 0
 672 711 696 716 720 716 c 0
 734 716 748 714 761 711 c 0
 801 701 837 676 870 637 c 0
 887 616 899 596 904 577 c 1
 913 556 917 535 917 514 c 0
 917 471 900 429 867 388 c 0
 829 341 789 315 748 308 c 1
 707 305 l 2
 705 305 705 305 702 305 c 0
 670 306 644 315 624 331 c 0
 621 334 619 336 618 338 c 1
 601 319 573 254 532 141 c 0
 505 66 492 19 491 0 c 1
 251 0 l 1
 251 108 l 2
 251 145 239 225 214 346 c 0
 184 492 169 603 169 680 c 0
 169 723 173 763 180 798 c 0
 203 909 259 995 348 1056 c 0
 422 1107 508 1137 606 1146 c 0
 629 1148 654 1149 681 1149 c 1
 751 1146 l 1
 836 1137 914 1113 985 1074 c 0
 1042 1043 1087 1005 1120 958 c 0
 1164 898 1190 828 1197 749 c 0
 1199 727 1200 703 1200 677 c 2
 1200 0 l 1
 980 0 l 1
 980 664 l 2
 980 715 972 755 957 782 c 0
 925 839 873 881 801 908 c 0
 762 922 724 929 685 929 c 0
 610 929 542 905 481 857 c 0
 448 832 426 804 413 774 c 0
 397 738 389 696 389 647 c 0
 389 613 396 550 411 459 c 0
 416 428 420 403 421 384 c 1
EndSplineSet
EndChar
StartChar: uni0E05
Encoding: 127 3589 129
OldEncoding: 3589
Width: 1370
Flags: HW
Fore
762 565 m 1
 752 571 742 574 733 574 c 0
 712 574 691 559 670 528 c 0
 653 503 645 482 645 464 c 0
 645 448 652 435 666 425 c 0
 675 418 685 415 696 415 c 0
 724 415 748 429 769 457 c 0
 780 472 785 488 784 505 c 0
 784 527 777 547 762 565 c 1
399 802 m 0
 384 766 376 721 376 668 c 0
 376 630 384 559 399 456 c 0
 403 426 406 402 408 384 c 1
 442 476 465 533 476 555 c 0
 483 567 490 579 497 590 c 0
 531 643 576 680 633 702 c 0
 658 711 682 716 706 716 c 0
 721 716 735 714 748 711 c 0
 787 701 824 676 857 637 c 0
 874 616 885 596 890 577 c 1
 899 556 904 535 904 514 c 0
 904 471 887 429 853 388 c 0
 815 341 775 315 734 308 c 1
 694 305 l 2
 691 305 691 305 689 305 c 0
 656 306 630 315 611 331 c 0
 608 334 606 336 605 338 c 1
 588 319 559 254 519 141 c 0
 492 66 478 19 478 0 c 1
 238 0 l 1
 238 108 l 2
 238 145 225 228 200 356 c 0
 170 510 155 627 155 706 c 0
 155 751 159 791 167 826 c 0
 190 937 246 1023 335 1084 c 0
 388 1121 447 1142 513 1149 c 1
 677 1033 l 1
 850 1149 l 1
 961 1124 1047 1070 1107 986 c 1
 1160 913 1187 810 1187 677 c 2
 1187 0 l 1
 967 0 l 1
 967 664 l 2
 967 734 959 783 944 810 c 0
 922 849 891 882 850 909 c 1
 677 795 l 1
 513 909 l 1
 459 886 421 851 399 802 c 0
EndSplineSet
EndChar
StartChar: uni0E06
Encoding: 128 3590 130
OldEncoding: 3590
Width: 1520
Flags: HW
Fore
270 588 m 1
 289 586 l 1
 312 588 331 602 346 628 c 0
 351 637 355 645 356 652 c 1
 357 691 l 1
 354 719 340 739 315 750 c 0
 309 753 303 754 298 754 c 1
 282 751 l 1
 273 746 265 738 258 727 c 0
 251 715 244 700 239 681 c 0
 236 666 234 653 234 642 c 0
 234 614 246 596 270 588 c 1
800 430 m 1
 870 363 938 312 1003 277 c 1
 1038 260 1066 251 1087 250 c 0
 1094 250 1102 252 1110 255 c 0
 1127 263 1136 278 1138 299 c 0
 1139 306 1139 332 1139 377 c 2
 1139 1139 l 1
 1359 1139 l 1
 1359 218 l 2
 1359 121 1332 55 1279 21 c 0
 1244 -2 1206 -13 1163 -13 c 0
 1132 -13 1100 -7 1069 6 c 0
 1024 24 961 57 882 106 c 0
 847 128 819 147 799 164 c 1
 799 116 781 75 746 42 c 0
 711 10 668 -7 616 -10 c 2
 600 -10 l 2
 533 -8 480 12 439 49 c 0
 432 55 426 61 420 68 c 0
 395 95 379 138 370 198 c 1
 366 249 l 1
 366 255 366 261 367 267 c 0
 374 345 404 407 457 453 c 0
 491 482 532 500 580 507 c 1
 580 575 l 2
 580 623 617 680 691 745 c 0
 700 754 710 762 721 771 c 1
 718 806 705 845 682 887 c 0
 673 904 663 918 653 929 c 1
 557 857 456 857 350 929 c 1
 331 903 320 882 315 866 c 0
 314 865 314 863 314 862 c 1
 393 862 446 827 473 756 c 0
 483 729 488 702 488 674 c 0
 488 611 467 558 425 516 c 0
 386 477 337 457 276 457 c 0
 267 457 259 457 250 458 c 0
 182 464 131 500 96 567 c 0
 75 608 64 654 64 703 c 0
 64 716 65 729 66 741 c 0
 77 821 92 882 111 923 c 0
 123 948 139 974 158 999 c 0
 196 1048 243 1090 299 1124 c 0
 318 1135 335 1144 350 1149 c 1
 509 1041 l 1
 653 1149 l 1
 698 1137 741 1112 783 1073 c 1
 807 1049 l 2
 846 1011 877 959 902 894 c 0
 919 850 927 809 927 771 c 1
 843 689 801 624 800 575 c 1
 800 430 l 1
595 317 m 1
 581 317 569 313 558 304 c 0
 535 285 523 257 522 219 c 0
 522 177 533 156 555 156 c 0
 576 156 589 167 593 190 c 0
 594 198 595 209 595 222 c 2
 595 317 l 1
EndSplineSet
EndChar
StartChar: uni0E07
Encoding: 129 3591 131
OldEncoding: 3591
Width: 1000
Flags: HW
Fore
855 272 m 2
 855 157 812 77 727 30 c 0
 680 3 622 -10 553 -10 c 0
 391 -10 286 68 239 223 c 0
 234 238 230 255 227 272 c 1
 145 719 l 1
 386 640 l 1
 448 312 l 1
 457 255 484 221 529 212 c 0
 536 211 543 210 550 210 c 0
 605 210 634 244 635 312 c 1
 635 759 l 1
 627 754 610 752 585 752 c 0
 578 752 578 752 574 752 c 0
 546 755 518 768 491 792 c 0
 456 823 438 867 438 922 c 0
 438 947 442 974 449 1004 c 0
 460 1047 487 1084 530 1114 c 0
 563 1137 604 1149 651 1149 c 0
 706 1148 751 1130 787 1095 c 0
 832 1052 855 980 855 881 c 2
 855 272 l 2
619 1026 m 0
 600 1026 583 1015 568 994 c 1
 559 977 554 960 554 941 c 0
 554 920 560 902 571 886 c 0
 584 867 601 857 620 857 c 0
 637 857 652 865 663 882 c 1
 670 895 674 916 674 945 c 0
 674 975 669 996 659 1008 c 128
 649 1020 636 1026 619 1026 c 0
EndSplineSet
EndChar
StartChar: uni0E08
Encoding: 130 3592 132
OldEncoding: 3592
Width: 1200
Flags: HW
Fore
468 283 m 2
 468 373 l 1
 458 362 445 355 430 350 c 0
 416 346 402 344 389 344 c 0
 350 345 315 361 284 392 c 0
 250 425 233 469 233 524 c 0
 233 621 270 687 343 723 c 0
 366 734 391 741 418 745 c 0
 501 756 569 739 622 694 c 1
 666 653 688 594 688 517 c 2
 688 283 l 2
 688 234 708 210 748 210 c 0
 788 210 808 233 808 279 c 2
 808 695 l 2
 808 763 793 812 764 842 c 1
 715 890 661 918 600 926 c 0
 583 928 565 929 546 929 c 0
 458 929 379 901 308 846 c 0
 281 825 259 801 242 775 c 1
 104 929 l 1
 144 998 211 1054 306 1097 c 0
 383 1132 462 1149 544 1149 c 0
 729 1149 865 1095 952 987 c 0
 1003 924 1028 841 1028 740 c 2
 1028 279 l 2
 1028 86 935 -10 748 -10 c 0
 561 -10 468 88 468 283 c 2
414 625 m 0
 392 625 374 613 359 590 c 0
 351 577 347 565 347 552 c 0
 347 548 347 544 348 540 c 0
 357 498 370 472 386 463 c 0
 394 458 403 456 414 456 c 0
 450 459 468 484 468 532 c 0
 468 538 468 538 468 545 c 0
 468 598 450 625 414 625 c 0
EndSplineSet
EndChar
StartChar: uni0E09
Encoding: 131 3593 133
OldEncoding: 3593
Width: 1395
Flags: HW
Fore
893 714 m 2
 893 807 852 871 769 907 c 1
 725 922 l 1
 695 930 663 934 629 934 c 0
 540 934 459 907 388 853 c 0
 361 834 339 812 322 788 c 1
 180 942 l 1
 219 1006 285 1058 378 1098 c 0
 457 1132 540 1149 625 1149 c 0
 800 1149 931 1101 1016 1004 c 1
 1044 966 l 1
 1090 898 1113 814 1113 713 c 2
 1113 507 l 1
 1161 500 1202 482 1236 453 c 0
 1273 421 1298 371 1311 304 c 0
 1315 284 1317 264 1317 244 c 0
 1317 176 1305 123 1280 84 c 0
 1277 78 1273 73 1268 68 c 0
 1227 25 1180 -0 1127 -7 c 0
 1116 -8 1105 -9 1093 -10 c 1
 1053 -8 l 1
 1010 -1 975 15 947 42 c 0
 912 75 894 116 894 164 c 1
 839 119 771 74 692 30 c 1
 644 6 l 1
 613 -7 581 -13 550 -13 c 0
 507 -13 469 -2 434 21 c 0
 381 55 354 121 354 218 c 2
 354 393 l 1
 335 374 309 365 276 365 c 0
 221 365 179 389 150 438 c 0
 131 470 121 507 121 550 c 0
 121 574 124 598 130 623 c 0
 140 663 166 698 207 727 c 0
 244 753 283 766 325 766 c 0
 402 766 463 746 508 706 c 0
 551 667 573 613 573 544 c 2
 573 377 l 2
 573 322 574 290 576 282 c 0
 579 269 588 260 602 255 c 1
 621 253 l 1
 665 256 732 295 823 368 c 0
 848 389 872 409 893 430 c 1
 893 714 l 2
298 645 m 0
 274 645 255 631 242 604 c 0
 235 590 232 575 232 560 c 1
 235 523 248 498 271 484 c 0
 280 479 289 476 299 476 c 0
 334 479 352 504 352 553 c 0
 352 558 352 558 352 564 c 0
 352 618 334 645 298 645 c 0
1096 317 m 1
 1096 222 l 2
 1096 187 1103 166 1117 160 c 0
 1122 157 1128 156 1136 156 c 0
 1158 156 1169 177 1169 219 c 0
 1168 257 1156 285 1133 304 c 0
 1122 313 1110 317 1096 317 c 1
EndSplineSet
EndChar
StartChar: uni0E0A
Encoding: 132 3594 134
OldEncoding: 3594
Width: 1390
Flags: HW
Fore
296 662 m 1
 315 660 l 1
 338 662 357 676 372 702 c 0
 377 711 381 719 382 726 c 1
 383 765 l 1
 380 793 366 813 341 824 c 0
 335 827 329 828 324 828 c 1
 308 825 l 1
 299 820 291 812 284 801 c 0
 277 789 270 774 265 755 c 0
 262 740 260 727 260 716 c 0
 260 688 272 670 296 662 c 1
878 719 m 1
 833 690 798 655 773 613 c 0
 758 588 751 566 751 545 c 2
 751 298 l 2
 751 269 768 246 802 227 c 0
 823 216 846 210 870 210 c 0
 922 210 958 225 979 256 c 0
 987 269 991 283 991 298 c 2
 991 546 l 2
 991 593 984 626 971 646 c 0
 962 659 950 671 933 684 c 1
 885 715 l 2
 883 716 881 718 878 719 c 1
841 924 m 1
 928 936 994 970 1039 1025 c 0
 1070 1064 1086 1110 1086 1163 c 2
 1086 1188 l 1
 1321 1188 l 1
 1321 1164 l 2
 1321 1087 1295 1014 1243 945 c 0
 1198 885 1145 845 1084 825 c 1
 1154 782 1195 731 1207 673 c 0
 1210 659 1211 644 1211 629 c 2
 1211 298 l 2
 1211 173 1163 84 1068 33 c 0
 1014 4 948 -10 870 -10 c 0
 767 -10 684 21 619 83 c 0
 560 140 531 212 531 298 c 2
 531 575 l 2
 531 623 571 686 650 763 c 0
 658 771 l 1
 654 823 638 866 611 899 c 0
 582 935 542 953 493 953 c 0
 487 953 481 953 474 952 c 0
 440 949 416 939 401 923 c 0
 400 922 400 921 399 920 c 1
 450 914 485 881 504 820 c 0
 511 797 514 773 514 748 c 0
 514 685 493 632 451 590 c 0
 412 551 362 531 302 531 c 0
 293 531 285 531 276 532 c 0
 195 539 138 582 107 660 c 0
 92 697 85 740 85 789 c 0
 85 798 85 806 86 815 c 0
 96 912 132 988 193 1043 c 0
 264 1107 344 1142 435 1148 c 0
 446 1149 458 1149 470 1149 c 0
 562 1149 642 1128 710 1086 c 0
 729 1075 745 1062 758 1049 c 0
 789 1018 817 977 841 924 c 1
EndSplineSet
EndChar
StartChar: uni0E0B
Encoding: 133 3595 135
OldEncoding: 3595
Width: 1450
Flags: HW
Fore
280 588 m 1
 299 586 l 1
 322 588 341 602 356 628 c 0
 361 637 365 645 366 652 c 1
 367 691 l 1
 364 719 350 739 325 750 c 0
 319 753 313 754 308 754 c 1
 292 751 l 1
 283 746 275 738 268 727 c 0
 261 715 254 700 249 681 c 0
 246 666 244 653 244 642 c 0
 244 614 256 596 280 588 c 1
821 1050 m 0
 856 1017 886 975 913 924 c 1
 1000 936 1066 970 1111 1025 c 0
 1142 1064 1158 1110 1158 1163 c 2
 1158 1188 l 1
 1393 1188 l 1
 1393 1164 l 2
 1393 1087 1367 1014 1315 945 c 0
 1295 918 1273 894 1248 875 c 0
 1225 856 1200 842 1174 832 c 0
 1168 829 1162 827 1156 825 c 1
 1226 782 1267 731 1279 673 c 0
 1282 659 1283 644 1283 629 c 2
 1283 298 l 2
 1283 173 1235 84 1140 33 c 0
 1086 4 1020 -10 942 -10 c 0
 839 -10 756 21 691 83 c 0
 632 140 603 212 603 298 c 2
 603 575 l 2
 603 623 643 686 722 763 c 0
 730 771 l 1
 727 807 714 846 692 887 c 0
 683 904 673 918 663 929 c 1
 567 857 466 857 360 929 c 1
 341 903 330 882 325 866 c 0
 324 865 324 863 324 862 c 1
 403 862 456 827 483 756 c 0
 493 729 498 702 498 674 c 0
 498 611 477 558 435 516 c 0
 396 477 347 457 286 457 c 0
 277 457 269 457 260 458 c 0
 192 464 141 500 106 567 c 0
 85 608 74 654 74 703 c 0
 74 716 75 729 76 741 c 0
 87 821 102 882 121 923 c 0
 133 948 149 974 168 999 c 0
 206 1048 253 1090 309 1124 c 0
 328 1135 345 1144 360 1149 c 1
 519 1041 l 1
 663 1149 l 1
 700 1139 746 1112 799 1068 c 0
 808 1061 815 1055 821 1050 c 0
950 719 m 1
 905 690 870 655 845 613 c 0
 830 588 823 566 823 545 c 2
 823 298 l 2
 823 269 840 246 874 227 c 0
 895 216 918 210 942 210 c 0
 994 210 1030 225 1051 256 c 0
 1059 269 1063 283 1063 298 c 2
 1063 546 l 2
 1063 593 1056 626 1043 646 c 0
 1034 659 1022 671 1005 684 c 1
 957 715 l 2
 955 716 953 718 950 719 c 1
EndSplineSet
EndChar
StartChar: uni0E0C
Encoding: 134 3596 136
OldEncoding: 3596
Width: 1750
Flags: HW
Fore
860 657 m 2
 860 838 781 929 622 929 c 0
 516 929 438 896 388 831 c 1
 462 795 514 739 544 663 c 1
 540 661 510 628 454 563 c 0
 422 526 406 463 406 376 c 2
 406 363 l 1
 423 382 447 391 477 391 c 0
 496 392 515 388 534 380 c 0
 555 371 573 359 588 344 c 0
 623 310 640 264 640 206 c 0
 641 182 637 158 630 133 c 0
 613 76 578 35 525 10 c 0
 496 -3 464 -10 429 -10 c 0
 380 -9 343 -3 316 9 c 0
 293 20 271 35 248 56 c 0
 211 90 190 156 187 254 c 0
 186 269 186 285 186 303 c 2
 186 366 l 2
 186 449 195 509 214 546 c 0
 229 576 263 618 314 671 c 1
 267 727 201 767 116 792 c 1
 129 855 165 917 224 979 c 1
 329 1092 462 1149 622 1149 c 0
 772 1149 889 1102 972 1008 c 0
 1043 928 1079 816 1079 673 c 2
 1079 430 l 1
 1152 359 1203 314 1231 293 c 0
 1269 264 1300 250 1324 250 c 0
 1331 250 1338 252 1345 255 c 0
 1362 263 1371 278 1373 299 c 0
 1374 306 1374 332 1374 377 c 2
 1374 1139 l 1
 1593 1139 l 1
 1593 218 l 2
 1593 121 1566 55 1513 21 c 0
 1478 -2 1440 -13 1397 -13 c 0
 1366 -13 1334 -7 1303 6 c 0
 1263 22 1188 75 1079 164 c 1
 1079 116 1061 75 1026 42 c 0
 991 10 948 -7 896 -10 c 2
 880 -10 l 2
 813 -8 760 12 719 49 c 0
 712 55 706 61 700 68 c 0
 675 95 659 138 650 198 c 1
 646 249 l 1
 646 255 646 261 647 267 c 0
 654 345 684 407 737 453 c 0
 771 482 812 500 860 507 c 1
 860 657 l 2
875 317 m 1
 861 317 849 313 838 304 c 0
 815 285 803 257 802 219 c 0
 802 177 813 156 835 156 c 0
 856 156 869 167 873 190 c 0
 874 198 875 209 875 222 c 2
 875 317 l 1
449 110 m 0
 474 110 493 124 506 152 c 0
 512 165 515 179 515 195 c 1
 512 238 498 265 471 276 c 0
 464 279 457 280 449 280 c 0
 418 280 401 260 397 220 c 0
 396 215 396 210 396 204 c 0
 396 141 414 110 449 110 c 0
EndSplineSet
EndChar
StartChar: uni0E0D
Encoding: 135 3597 137
OldEncoding: 3597
Width: 1745
Flags: HW
Fore
1135 310 m 2
 1135 275 1149 248 1177 229 c 0
 1196 216 1218 210 1244 210 c 0
 1321 210 1360 243 1360 310 c 2
 1360 1139 l 1
 1580 1139 l 1
 1580 241 l 2
 1580 157 1540 91 1461 44 c 0
 1400 8 1330 -10 1250 -10 c 0
 1244 -10 l 0
 1150 -9 1071 17 1008 66 c 0
 946 114 915 175 915 249 c 2
 915 657 l 2
 915 838 836 929 677 929 c 0
 571 929 493 896 443 831 c 1
 517 795 569 739 599 663 c 1
 595 661 565 628 509 563 c 0
 477 526 461 463 461 376 c 2
 461 363 l 1
 478 382 502 391 532 391 c 0
 551 392 570 388 589 380 c 0
 610 371 628 359 643 344 c 0
 678 310 695 264 695 206 c 0
 696 182 692 158 685 133 c 0
 668 76 633 35 580 10 c 0
 551 -3 519 -10 484 -10 c 0
 435 -9 398 -3 371 9 c 0
 348 20 326 35 303 56 c 0
 266 90 245 156 242 254 c 0
 241 269 241 285 241 303 c 2
 241 366 l 2
 241 449 250 509 269 546 c 0
 284 576 318 618 369 671 c 1
 322 727 256 767 171 792 c 1
 184 855 220 917 279 979 c 1
 384 1092 517 1149 677 1149 c 0
 827 1149 944 1102 1027 1008 c 0
 1099 927 1135 815 1135 673 c 2
 1135 310 l 2
504 110 m 0
 529 110 548 124 561 152 c 0
 567 165 570 179 570 195 c 1
 567 238 553 265 526 276 c 0
 519 279 512 280 504 280 c 0
 473 280 456 260 452 220 c 0
 451 215 451 210 451 204 c 0
 451 141 469 110 504 110 c 0
1104 -22 m 0
 1164 -25 1207 -48 1234 -92 c 0
 1249 -116 1256 -145 1256 -178 c 0
 1256 -185 1256 -191 1255 -198 c 0
 1253 -223 1242 -245 1221 -265 c 1
 1319 -246 1386 -196 1423 -113 c 0
 1434 -88 1441 -62 1444 -34 c 1
 1614 -48 l 1
 1611 -137 1579 -217 1517 -286 c 1
 1484 -319 l 1
 1433 -364 1373 -393 1305 -408 c 0
 1276 -414 1245 -417 1214 -417 c 0
 1086 -417 999 -378 954 -300 c 0
 945 -282 l 0
 934 -256 928 -228 928 -199 c 0
 929 -138 949 -91 989 -58 c 0
 1017 -34 1052 -22 1094 -22 c 0
 1104 -22 l 0
1071 -235 m 1
 1090 -237 l 1
 1113 -235 1128 -224 1136 -204 c 0
 1137 -201 1138 -199 1139 -196 c 1
 1139 -176 l 1
 1136 -154 1124 -140 1104 -133 c 0
 1103 -133 1101 -133 1100 -132 c 2
 1078 -130 l 1
 1060 -136 l 2
 1051 -140 1045 -146 1040 -155 c 1
 1034 -171 l 1
 1033 -191 l 1
 1035 -212 1048 -227 1071 -235 c 1
EndSplineSet
Substitution: 0 65534 'nds0' uni0E0D.descless
Substitution: 0 65534 'ndsc' uni0E0D.descless
EndChar
StartChar: uni0E0E
Encoding: 136 3598 138
OldEncoding: 3598
Width: 1375
Flags: HW
AnchorPoint: "BelowBase" 1226 -453 basechar 0
Fore
1006 657 m 2
 1006 838 927 929 768 929 c 0
 662 929 584 896 534 831 c 1
 608 795 660 739 690 663 c 1
 686 661 656 628 600 563 c 0
 568 526 552 463 552 376 c 2
 552 303 l 2
 552 194 538 119 509 78 c 0
 504 70 497 63 490 56 c 0
 446 15 397 -6 342 -9 c 0
 335 -10 324 -10 309 -10 c 0
 235 -10 178 18 138 73 c 0
 125 91 115 111 108 133 c 0
 101 158 97 182 98 206 c 0
 98 264 115 310 150 344 c 0
 181 375 218 391 260 391 c 0
 273 392 285 390 297 386 c 0
 311 381 323 373 332 363 c 1
 332 384 l 2
 332 455 341 509 360 546 c 0
 375 576 409 618 460 671 c 1
 413 727 347 767 262 792 c 1
 275 855 311 917 370 979 c 1
 475 1092 608 1149 768 1149 c 0
 918 1149 1035 1102 1118 1008 c 0
 1190 927 1226 815 1226 673 c 2
 1226 -410 l 1
 1006 -410 l 1
 945 -321 880 -258 812 -220 c 1
 769 -303 714 -361 649 -395 c 1
 646 -396 644 -397 642 -398 c 0
 598 -419 548 -430 492 -430 c 0
 406 -430 342 -405 300 -355 c 0
 299 -354 297 -352 296 -350 c 0
 275 -323 264 -291 264 -255 c 0
 264 -235 267 -214 274 -193 c 0
 293 -134 328 -85 381 -47 c 0
 400 -34 420 -23 440 -16 c 0
 486 1 536 10 589 10 c 0
 638 10 687 3 738 -12 c 1
 820 142 l 1
 956 88 l 1
 878 -67 l 1
 911 -80 948 -103 988 -137 c 0
 995 -144 1001 -150 1006 -155 c 1
 1006 657 l 2
289 110 m 0
 324 110 342 141 342 204 c 0
 342 249 328 274 299 279 c 0
 296 280 292 280 289 280 c 0
 260 280 240 262 229 226 c 0
 226 217 224 206 223 195 c 0
 223 159 235 133 260 118 c 0
 269 113 279 110 289 110 c 0
455 -252 m 0
 464 -266 479 -273 499 -273 c 0
 523 -273 552 -263 587 -243 c 0
 600 -236 617 -218 640 -187 c 0
 650 -174 657 -163 661 -154 c 1
 644 -139 619 -132 586 -132 c 0
 583 -132 583 -132 579 -132 c 0
 542 -134 510 -145 482 -164 c 1
 465 -178 454 -196 449 -218 c 1
 449 -237 l 1
 450 -242 452 -247 455 -252 c 0
EndSplineSet
EndChar
StartChar: uni0E0F
Encoding: 137 3599 139
OldEncoding: 3599
Width: 1375
Flags: HW
AnchorPoint: "BelowBase" 1225 -453 basechar 0
Fore
288 110 m 0
 323 110 341 141 341 204 c 0
 341 249 327 274 298 279 c 0
 295 280 291 280 288 280 c 0
 259 280 239 262 228 226 c 0
 225 217 223 206 222 195 c 0
 222 159 234 133 259 118 c 0
 268 113 278 110 288 110 c 0
1005 657 m 1
 1004 838 925 929 767 929 c 0
 661 929 583 896 533 831 c 1
 607 795 659 739 689 663 c 1
 685 661 655 628 599 563 c 0
 567 526 551 463 551 376 c 2
 551 303 l 2
 551 194 537 119 508 78 c 0
 503 70 496 63 489 56 c 0
 445 15 396 -6 341 -9 c 0
 334 -10 323 -10 308 -10 c 0
 234 -10 177 18 137 73 c 0
 124 91 114 111 107 133 c 0
 100 158 96 182 97 206 c 0
 97 264 114 310 149 344 c 0
 180 375 217 391 259 391 c 0
 272 392 284 390 296 386 c 0
 310 381 322 373 331 363 c 1
 331 384 l 2
 331 455 340 509 359 546 c 0
 374 576 408 618 459 671 c 1
 412 727 346 767 261 792 c 1
 274 855 310 917 369 979 c 1
 474 1092 607 1149 767 1149 c 0
 917 1149 1034 1102 1117 1008 c 0
 1189 927 1225 815 1225 673 c 2
 1225 -410 l 5
 1008 -410 l 1
 989 -314 956 -260 911 -247 c 1
 893 -245 l 1
 862 -245 827 -283 788 -360 c 0
 781 -374 774 -388 768 -403 c 1
 733 -343 705 -303 684 -284 c 0
 674 -276 l 1
 642 -323 609 -359 574 -384 c 0
 531 -414 477 -429 410 -429 c 0
 394 -429 378 -428 362 -426 c 0
 300 -419 253 -390 221 -341 c 0
 200 -310 190 -274 190 -234 c 0
 190 -162 223 -103 290 -57 c 0
 346 -19 410 0 482 1 c 1
 533 -3 l 1
 566 -8 598 -17 630 -32 c 1
 716 119 l 1
 843 73 l 1
 760 -90 l 1
 768 -97 776 -107 784 -122 c 1
 809 -77 836 -44 864 -23 c 0
 875 -14 885 -10 893 -10 c 0
 922 -10 960 -27 1005 -61 c 1
 1005 657 l 1
358 -268 m 0
 371 -285 389 -293 411 -293 c 0
 434 -293 464 -283 500 -263 c 1
 513 -254 530 -235 550 -205 c 0
 559 -192 565 -181 568 -173 c 1
 553 -159 523 -152 478 -152 c 0
 443 -152 412 -160 387 -176 c 0
 371 -187 359 -203 352 -224 c 1
 349 -245 l 1
 350 -252 352 -258 355 -263 c 0
 356 -265 357 -267 358 -268 c 0
EndSplineSet
EndChar
StartChar: uni0E10
Encoding: 138 3600 140
OldEncoding: 3600
Width: 1130
Flags: HW
Fore
809 529 m 2
 809 562 794 587 764 603 c 1
 685 636 l 1
 576 672 401 707 160 742 c 1
 178 829 205 901 241 957 c 0
 278 1016 330 1063 396 1099 c 0
 457 1132 534 1149 629 1149 c 0
 706 1149 777 1134 844 1103 c 0
 901 1077 960 1064 1022 1064 c 0
 1049 1064 1074 1067 1097 1072 c 1
 1058 862 l 1
 1041 858 1022 856 999 856 c 0
 978 855 955 857 932 861 c 0
 891 867 858 876 831 889 c 0
 770 918 705 935 638 940 c 2
 618 941 l 2
 545 941 499 925 480 892 c 1
 683 853 819 815 888 778 c 0
 982 728 1029 660 1029 573 c 2
 1029 279 l 2
 1029 86 936 -10 749 -10 c 0
 562 -10 469 88 469 283 c 2
 469 289 l 1
 459 278 446 271 431 266 c 0
 417 262 403 260 390 260 c 0
 351 261 316 277 285 308 c 0
 251 341 234 385 234 440 c 0
 234 537 271 603 344 639 c 0
 367 650 392 657 419 661 c 0
 502 672 570 655 623 610 c 1
 667 569 689 510 689 433 c 2
 689 283 l 2
 689 234 709 210 749 210 c 0
 789 210 809 233 809 279 c 2
 809 529 l 2
415 541 m 0
 391 541 372 528 359 502 c 0
 352 489 349 475 349 460 c 0
 349 456 l 0
 351 405 370 377 406 373 c 0
 409 372 412 372 415 372 c 0
 451 375 469 400 469 448 c 0
 469 454 469 454 469 461 c 0
 469 514 451 541 415 541 c 0
747 -319 m 1
 747 -273 l 1
 720 -276 l 1
 686 -275 658 -265 635 -246 c 0
 609 -226 596 -200 596 -168 c 0
 596 -153 599 -139 605 -124 c 1
 613 -95 635 -72 672 -53 c 0
 696 -40 721 -34 746 -34 c 0
 802 -34 846 -45 878 -66 c 0
 911 -88 930 -128 934 -187 c 0
 935 -198 935 -210 935 -223 c 2
 935 -530 l 1
 752 -530 l 1
 732 -480 703 -453 665 -450 c 1
 635 -450 602 -473 567 -520 c 0
 564 -524 564 -524 560 -529 c 1
 537 -496 503 -459 457 -418 c 1
 430 -453 397 -483 356 -508 c 1
 315 -530 273 -541 229 -541 c 0
 187 -541 151 -531 121 -510 c 0
 108 -501 97 -491 87 -478 c 0
 74 -463 68 -441 68 -414 c 0
 68 -383 76 -353 91 -326 c 0
 98 -313 105 -303 114 -294 c 1
 157 -255 212 -235 280 -234 c 0
 321 -234 354 -239 379 -249 c 0
 397 -256 397 -256 402 -258 c 1
 433 -217 l 2
 438 -210 443 -202 448 -192 c 1
 568 -239 l 1
 525 -306 l 1
 532 -309 545 -319 564 -336 c 1
 588 -300 622 -282 665 -282 c 0
 696 -282 724 -294 747 -319 c 1
732 -106 m 1
 709 -106 693 -116 684 -136 c 0
 681 -142 680 -148 680 -155 c 0
 680 -162 681 -168 683 -174 c 0
 691 -193 706 -204 727 -205 c 0
 731 -205 l 0
 753 -205 767 -195 774 -176 c 1
 777 -158 l 1
 776 -131 765 -114 743 -108 c 2
 732 -106 l 1
200 -418 m 0
 211 -429 223 -435 238 -435 c 0
 247 -435 256 -433 266 -430 c 0
 275 -427 285 -423 296 -418 c 0
 308 -412 324 -397 343 -374 c 1
 348 -369 351 -365 354 -360 c 1
 341 -351 321 -346 294 -346 c 0
 267 -346 243 -351 222 -362 c 1
 203 -374 194 -387 194 -402 c 0
 194 -408 196 -413 200 -418 c 0
EndSplineSet
Substitution: 0 65534 'nds0' uni0E10.descless
Substitution: 0 65534 'ndsc' uni0E10.descless
EndChar
StartChar: uni0E11
Encoding: 139 3601 141
OldEncoding: 3601
Width: 1700
Flags: HW
Fore
335 588 m 1
 354 586 l 1
 377 588 396 602 411 628 c 0
 416 637 420 645 421 652 c 1
 422 691 l 1
 419 719 405 739 380 750 c 0
 374 753 368 754 363 754 c 1
 347 751 l 1
 338 746 330 738 323 727 c 0
 316 715 309 700 304 681 c 0
 301 666 299 653 299 642 c 0
 299 614 311 596 335 588 c 1
645 0 m 1
 645 575 l 2
 645 623 682 680 756 745 c 0
 765 754 775 762 786 771 c 1
 783 806 770 845 747 887 c 0
 738 904 728 918 718 929 c 1
 622 857 521 857 415 929 c 1
 396 903 385 882 380 866 c 0
 379 865 379 863 379 862 c 1
 458 862 511 827 538 756 c 0
 548 729 553 702 553 674 c 0
 553 611 532 558 490 516 c 0
 451 477 402 457 341 457 c 0
 332 457 324 457 315 458 c 0
 247 464 196 500 161 567 c 0
 140 608 129 654 129 703 c 0
 129 716 130 729 131 741 c 0
 142 821 157 882 176 923 c 0
 188 948 204 974 223 999 c 0
 261 1048 308 1090 364 1124 c 0
 383 1135 400 1144 415 1149 c 1
 574 1041 l 1
 718 1149 l 1
 763 1137 806 1112 848 1073 c 1
 872 1049 l 2
 911 1011 942 959 967 894 c 0
 984 850 992 809 992 771 c 1
 907 688 865 623 865 575 c 2
 865 410 l 1
 1141 990 l 1
 1175 1068 1229 1115 1302 1131 c 0
 1317 1134 1332 1136 1347 1136 c 0
 1366 1135 1385 1133 1402 1128 c 0
 1466 1110 1509 1067 1530 1000 c 0
 1539 973 1543 943 1543 910 c 2
 1543 0 l 1
 1323 0 l 1
 1323 659 l 2
 1323 710 1321 740 1316 749 c 0
 1314 753 1310 757 1304 761 c 0
 1300 764 1296 765 1292 765 c 1
 1278 761 l 1
 1266 753 l 1
 1263 750 1261 746 1260 742 c 1
 919 0 l 1
 645 0 l 1
EndSplineSet
EndChar
StartChar: uni0E12
Encoding: 140 3602 142
OldEncoding: 3602
Width: 1850
Flags: HW
Fore
1173 677 m 2
 1173 430 l 1
 1246 359 1297 314 1325 293 c 0
 1363 264 1394 250 1418 250 c 0
 1425 250 1432 252 1439 255 c 0
 1456 263 1465 278 1467 299 c 0
 1468 306 1468 332 1468 377 c 2
 1468 1139 l 1
 1687 1139 l 1
 1687 218 l 2
 1687 121 1660 55 1607 21 c 0
 1572 -2 1534 -13 1491 -13 c 0
 1460 -13 1428 -7 1397 6 c 0
 1357 22 1282 75 1173 164 c 1
 1173 116 1155 75 1120 42 c 0
 1085 9 1042 -9 992 -10 c 2
 974 -10 l 1
 928 -7 890 7 860 32 c 1
 827 63 l 1
 826 65 824 67 823 68 c 0
 798 95 782 138 773 198 c 1
 769 249 l 1
 769 255 769 261 770 267 c 0
 777 344 804 404 852 447 c 0
 860 453 l 0
 887 474 918 492 953 507 c 1
 953 664 l 2
 953 734 945 783 930 810 c 0
 909 849 877 882 836 909 c 1
 663 793 l 1
 499 909 l 1
 446 886 408 851 386 802 c 0
 367 761 358 711 358 650 c 0
 358 554 385 421 438 252 c 1
 443 234 l 1
 474 246 505 272 534 312 c 0
 544 326 551 338 555 349 c 1
 535 349 l 1
 512 353 490 363 470 378 c 0
 429 409 405 450 399 500 c 1
 397 547 l 1
 398 629 429 685 490 716 c 1
 516 735 552 744 599 744 c 0
 633 744 662 738 685 727 c 0
 756 693 792 622 792 515 c 0
 792 503 792 490 791 477 c 0
 782 339 727 220 626 120 c 1
 618 111 609 103 600 95 c 0
 552 52 507 21 464 0 c 1
 224 0 l 1
 224 108 l 2
 224 145 212 228 187 356 c 0
 157 510 142 627 142 706 c 0
 142 751 146 791 153 826 c 0
 176 937 232 1023 321 1084 c 0
 374 1121 433 1142 499 1149 c 1
 663 1033 l 1
 836 1149 l 1
 947 1124 1033 1070 1093 986 c 1
 1146 913 1173 810 1173 677 c 2
969 317 m 1
 955 317 943 313 932 304 c 0
 909 285 897 257 896 219 c 0
 896 177 907 156 929 156 c 0
 950 156 963 167 967 190 c 0
 968 198 969 209 969 222 c 2
 969 317 l 1
568 624 m 1
 550 620 l 1
 531 613 519 605 514 597 c 0
 502 580 495 563 494 546 c 0
 492 525 496 506 505 489 c 0
 517 468 532 456 551 455 c 0
 570 454 585 461 597 476 c 0
 606 488 611 508 614 537 c 0
 617 567 614 589 605 602 c 1
 595 615 583 622 568 624 c 1
EndSplineSet
EndChar
StartChar: uni0E13
Encoding: 141 3603 143
OldEncoding: 3603
Width: 1900
Flags: HW
Fore
1092 673 m 2
 1092 377 l 2
 1092 322 1094 290 1097 281 c 0
 1100 270 1108 261 1121 255 c 0
 1128 252 1135 250 1143 250 c 0
 1180 251 1242 292 1328 373 c 0
 1330 375 1330 375 1387 430 c 1
 1387 1139 l 1
 1606 1139 l 1
 1606 507 l 1
 1654 500 1695 482 1729 453 c 0
 1782 407 1812 345 1819 267 c 1
 1819 220 l 1
 1814 161 1799 114 1775 79 c 0
 1770 73 1770 73 1766 68 c 0
 1725 23 1675 -2 1614 -8 c 2
 1586 -10 l 1
 1546 -7 l 1
 1503 -0 1468 16 1440 42 c 0
 1405 75 1387 116 1387 164 c 1
 1278 75 1203 22 1163 6 c 0
 1132 -7 1100 -13 1069 -13 c 0
 1026 -13 988 -2 953 21 c 0
 900 55 873 121 873 218 c 2
 873 657 l 2
 873 838 794 929 635 929 c 0
 529 929 451 896 401 831 c 1
 475 795 527 739 557 663 c 1
 553 661 523 628 467 563 c 0
 435 526 419 463 419 376 c 2
 419 363 l 1
 436 382 460 391 490 391 c 0
 509 392 528 388 547 380 c 0
 568 371 586 359 601 344 c 0
 636 310 653 264 653 206 c 0
 654 182 650 158 643 133 c 0
 626 76 591 35 538 10 c 0
 509 -3 477 -10 442 -10 c 0
 393 -9 356 -3 329 9 c 0
 306 20 284 35 261 56 c 0
 224 90 203 156 200 254 c 0
 199 269 199 285 199 303 c 2
 199 366 l 2
 199 449 208 509 227 546 c 0
 242 576 276 618 327 671 c 1
 280 727 214 767 129 792 c 1
 142 855 178 917 237 979 c 1
 342 1092 475 1149 635 1149 c 0
 785 1149 902 1102 985 1008 c 0
 1056 928 1092 816 1092 673 c 2
1591 317 m 1
 1591 222 l 2
 1591 187 1598 166 1612 160 c 0
 1617 157 1623 156 1631 156 c 0
 1653 156 1664 177 1664 219 c 0
 1663 257 1651 285 1628 304 c 0
 1617 313 1605 317 1591 317 c 1
462 110 m 0
 487 110 506 124 519 152 c 0
 525 165 528 179 528 195 c 1
 525 238 511 265 484 276 c 0
 477 279 470 280 462 280 c 0
 431 280 414 260 410 220 c 0
 409 215 409 210 409 204 c 0
 409 141 427 110 462 110 c 0
EndSplineSet
EndChar
StartChar: uni0E14
Encoding: 142 3604 144
OldEncoding: 3604
Width: 1330
Flags: HW
Fore
579 624 m 1
 543 618 520 599 509 568 c 0
 506 561 505 553 504 546 c 1
 506 517 l 1
 512 485 527 465 550 457 c 0
 554 456 558 455 562 455 c 2
 582 457 l 1
 607 464 621 491 625 537 c 1
 625 573 l 1
 621 603 606 620 579 624 c 1
462 0 m 1
 222 0 l 1
 222 108 l 2
 222 145 210 225 185 346 c 0
 155 492 140 603 140 680 c 0
 140 723 144 763 151 798 c 0
 174 909 230 995 319 1056 c 0
 393 1107 479 1137 577 1146 c 0
 600 1148 625 1149 652 1149 c 1
 722 1146 l 1
 807 1137 885 1113 956 1074 c 0
 1013 1043 1058 1005 1091 958 c 0
 1135 898 1161 828 1168 749 c 0
 1170 727 1171 703 1171 677 c 2
 1171 0 l 1
 951 0 l 1
 951 664 l 2
 951 715 943 755 928 782 c 0
 896 839 844 881 772 908 c 0
 733 922 695 929 656 929 c 0
 581 929 512 905 451 856 c 0
 419 830 397 803 384 774 c 0
 365 733 356 684 356 627 c 0
 356 543 380 426 428 277 c 1
 441 234 l 1
 472 246 503 272 532 312 c 0
 542 326 549 338 553 349 c 1
 533 349 l 1
 510 353 488 363 468 378 c 0
 427 409 403 450 397 500 c 1
 395 547 l 1
 396 629 427 685 488 716 c 1
 514 735 550 744 597 744 c 0
 631 744 660 738 683 727 c 0
 754 693 790 623 790 516 c 0
 790 503 790 490 789 477 c 0
 780 339 725 220 624 120 c 1
 616 111 607 103 598 95 c 0
 550 52 505 21 462 0 c 1
EndSplineSet
EndChar
StartChar: uni0E15
Encoding: 143 3605 145
OldEncoding: 3605
Width: 1330
Flags: HW
Fore
579 624 m 1
 543 618 520 599 509 568 c 0
 506 561 505 553 504 546 c 1
 506 517 l 1
 512 485 527 465 550 457 c 0
 554 456 558 455 562 455 c 2
 582 457 l 1
 607 464 621 491 625 537 c 1
 625 573 l 1
 621 603 606 620 579 624 c 1
462 0 m 1
 222 0 l 1
 222 108 l 2
 222 145 210 228 185 356 c 0
 155 510 140 627 140 706 c 0
 140 751 144 791 151 826 c 0
 174 937 230 1023 319 1084 c 0
 372 1121 431 1142 497 1149 c 1
 661 1033 l 1
 834 1149 l 1
 945 1124 1031 1070 1091 986 c 1
 1144 913 1171 810 1171 677 c 2
 1171 0 l 1
 951 0 l 1
 951 664 l 2
 951 734 943 783 928 810 c 0
 907 849 875 882 834 909 c 1
 661 793 l 1
 497 909 l 1
 444 886 406 851 384 802 c 0
 365 761 356 711 356 650 c 0
 356 554 383 421 436 252 c 1
 441 234 l 1
 472 246 503 272 532 312 c 0
 542 326 549 338 553 349 c 1
 533 349 l 1
 510 353 488 363 468 378 c 0
 427 409 403 450 397 500 c 1
 395 547 l 1
 396 629 427 685 488 716 c 1
 514 735 550 744 597 744 c 0
 631 744 660 738 683 727 c 0
 754 693 790 623 790 516 c 0
 790 503 790 490 789 477 c 0
 780 339 725 220 624 120 c 1
 616 111 607 103 598 95 c 0
 550 52 505 21 462 0 c 1
EndSplineSet
EndChar
StartChar: uni0E16
Encoding: 144 3606 146
OldEncoding: 3606
Width: 1240
Flags: HW
Fore
408 376 m 2
 408 363 l 1
 425 382 449 391 479 391 c 0
 498 392 517 388 536 380 c 0
 557 371 575 359 590 344 c 0
 625 310 642 264 642 206 c 0
 643 182 639 158 632 133 c 0
 615 76 580 35 527 10 c 0
 498 -3 466 -10 431 -10 c 0
 382 -9 345 -3 318 9 c 0
 295 20 273 35 250 56 c 0
 213 90 192 156 189 254 c 0
 188 269 188 285 188 303 c 2
 188 366 l 2
 188 449 197 509 216 546 c 0
 231 576 265 618 316 671 c 1
 269 727 203 767 118 792 c 1
 131 855 167 917 226 979 c 1
 331 1092 464 1149 624 1149 c 0
 774 1149 891 1102 974 1008 c 0
 1046 927 1082 815 1082 673 c 2
 1082 0 l 1
 862 0 l 1
 862 657 l 2
 862 838 783 929 624 929 c 0
 518 929 440 896 390 831 c 1
 464 795 516 739 546 663 c 1
 542 661 512 628 456 563 c 0
 424 526 408 463 408 376 c 2
451 110 m 0
 476 110 495 124 508 152 c 0
 514 165 517 179 517 195 c 1
 514 238 500 265 473 276 c 0
 466 279 459 280 451 280 c 0
 420 280 403 260 399 220 c 1
 398 204 l 1
 398 141 416 110 451 110 c 0
EndSplineSet
EndChar
StartChar: uni0E17
Encoding: 145 3607 147
OldEncoding: 3607
Width: 1350
Flags: HW
Fore
538 410 m 1
 814 990 l 1
 848 1068 902 1115 975 1131 c 0
 990 1134 1005 1136 1020 1136 c 0
 1039 1135 1058 1133 1075 1128 c 0
 1139 1110 1182 1067 1203 1000 c 0
 1212 973 1216 943 1216 910 c 2
 1216 0 l 1
 996 0 l 1
 996 659 l 2
 996 710 994 740 989 749 c 0
 987 753 983 757 977 761 c 0
 973 764 969 765 965 765 c 1
 951 761 l 2
 943 758 937 751 933 742 c 2
 592 0 l 1
 318 0 l 1
 318 759 l 1
 310 754 293 752 268 752 c 2
 257 752 l 2
 229 755 201 768 174 792 c 0
 139 823 121 867 121 922 c 0
 121 947 125 974 132 1004 c 0
 143 1047 170 1084 213 1114 c 0
 246 1137 287 1149 334 1149 c 0
 389 1148 434 1130 470 1095 c 0
 515 1052 538 980 538 881 c 2
 538 410 l 1
302 1026 m 0
 283 1026 266 1015 251 994 c 1
 242 977 237 960 237 941 c 0
 237 920 243 902 254 886 c 0
 267 867 284 857 303 857 c 0
 320 857 335 865 346 882 c 1
 353 895 357 916 357 945 c 0
 357 975 352 996 342 1008 c 128
 332 1020 319 1026 302 1026 c 0
EndSplineSet
EndChar
StartChar: uni0E18
Encoding: 146 3608 148
OldEncoding: 3608
Width: 1250
Flags: HW
Fore
804 529 m 2
 804 562 789 587 759 603 c 1
 680 636 l 1
 571 672 396 707 155 742 c 1
 173 829 200 901 236 957 c 0
 273 1016 325 1063 391 1099 c 0
 452 1132 529 1149 624 1149 c 0
 701 1149 772 1134 839 1103 c 0
 896 1077 955 1064 1017 1064 c 0
 1044 1064 1069 1067 1092 1072 c 1
 1053 862 l 1
 1036 858 1017 856 994 856 c 0
 973 855 950 857 927 861 c 0
 886 867 853 876 826 889 c 0
 765 918 700 935 633 940 c 2
 613 941 l 2
 540 941 494 925 475 892 c 1
 678 853 814 815 883 778 c 0
 977 728 1024 660 1024 573 c 2
 1024 303 l 2
 1024 168 976 77 879 32 c 0
 818 4 733 -10 624 -10 c 0
 411 -10 289 68 258 223 c 0
 253 250 250 281 250 314 c 2
 250 650 l 1
 470 650 l 1
 470 314 l 2
 470 270 498 239 555 221 c 0
 576 214 599 211 624 210 c 1
 668 212 l 1
 725 220 766 240 789 271 c 0
 799 284 804 299 804 314 c 2
 804 529 l 2
EndSplineSet
EndChar
StartChar: uni0E19
Encoding: 147 3609 149
OldEncoding: 3609
Width: 1400
Flags: HW
Fore
360 776 m 1
 341 757 315 748 282 748 c 0
 227 748 185 772 156 821 c 0
 137 853 127 890 127 933 c 0
 127 957 130 981 136 1006 c 0
 146 1046 172 1081 213 1110 c 0
 250 1136 289 1149 331 1149 c 0
 408 1149 469 1129 514 1089 c 0
 557 1050 579 996 579 927 c 2
 579 377 l 2
 579 322 581 290 584 281 c 1
 592 267 l 1
 596 262 601 258 608 255 c 0
 615 252 622 250 631 250 c 0
 679 251 751 290 847 367 c 0
 873 388 897 409 919 430 c 1
 919 1139 l 1
 1139 1139 l 1
 1139 507 l 1
 1187 500 1228 482 1262 453 c 0
 1308 414 1334 355 1341 278 c 0
 1342 267 1343 255 1343 244 c 0
 1343 154 1329 95 1302 66 c 0
 1260 22 1208 -3 1145 -9 c 0
 1136 -10 1128 -10 1119 -10 c 2
 1078 -7 l 1
 1035 -0 1000 16 973 42 c 0
 938 75 920 116 920 164 c 1
 871 123 797 78 698 28 c 1
 650 6 l 1
 619 -7 587 -13 556 -13 c 0
 513 -13 475 -2 440 21 c 0
 387 55 360 121 360 218 c 2
 360 776 l 1
306 1028 m 0
 282 1028 263 1014 250 987 c 1
 242 962 l 1
 241 956 240 950 240 943 c 0
 243 906 256 881 279 867 c 0
 288 862 297 859 307 859 c 0
 342 862 360 887 360 936 c 0
 360 941 360 941 360 947 c 0
 360 1001 342 1028 306 1028 c 0
1124 317 m 1
 1124 222 l 2
 1124 187 1131 166 1145 160 c 0
 1150 157 1156 156 1164 156 c 0
 1186 156 1197 177 1197 219 c 0
 1196 257 1184 285 1161 304 c 0
 1150 313 1138 317 1124 317 c 1
EndSplineSet
EndChar
StartChar: uni0E1A
Encoding: 148 3610 150
OldEncoding: 3610
Width: 1300
Flags: HW
Fore
547 379 m 2
 547 288 591 233 680 215 c 0
 699 212 719 210 742 210 c 0
 849 211 911 250 928 327 c 0
 931 342 933 360 933 379 c 2
 933 1139 l 1
 1153 1139 l 1
 1153 273 l 2
 1153 147 1097 64 986 24 c 0
 924 1 841 -10 737 -10 c 0
 488 -10 352 67 330 222 c 0
 328 237 327 252 327 268 c 2
 327 759 l 1
 312 753 294 750 273 749 c 0
 241 749 211 756 184 770 c 0
 171 777 159 785 149 795 c 0
 114 830 97 874 97 929 c 0
 97 952 100 978 107 1005 c 0
 118 1050 145 1088 188 1117 c 0
 212 1134 237 1144 263 1148 c 1
 311 1151 l 1
 379 1151 433 1135 473 1104 c 0
 476 1102 479 1100 482 1097 c 0
 519 1062 540 1000 545 909 c 1
 547 835 l 1
 547 379 l 2
278 1028 m 0
 253 1028 235 1015 222 988 c 0
 215 974 212 959 212 943 c 1
 215 906 228 880 251 866 c 0
 259 861 268 859 278 859 c 0
 314 862 332 887 332 935 c 0
 332 941 332 941 332 948 c 0
 332 1001 314 1028 278 1028 c 0
EndSplineSet
EndChar
StartChar: uni0E1B
Encoding: 149 3611 151
OldEncoding: 3611
Width: 1300
Flags: HW
AnchorPoint: "AboveBase" 861 1227 basechar 0
Fore
547 379 m 2
 547 288 591 233 680 215 c 0
 699 212 719 210 742 210 c 0
 849 211 911 250 928 327 c 0
 931 342 933 360 933 379 c 2
 933 1480 l 5
 1153 1480 l 1
 1153 273 l 2
 1153 147 1097 64 986 24 c 0
 924 1 841 -10 737 -10 c 0
 488 -10 352 67 330 222 c 0
 328 237 327 252 327 268 c 2
 327 759 l 1
 312 753 294 750 273 749 c 0
 241 749 211 756 184 770 c 0
 171 777 159 785 149 795 c 0
 114 830 97 874 97 929 c 0
 97 952 100 978 107 1005 c 0
 118 1050 145 1088 188 1117 c 0
 212 1134 237 1144 263 1148 c 1
 311 1151 l 1
 379 1151 433 1135 473 1104 c 0
 476 1102 479 1100 482 1097 c 0
 519 1062 540 1000 545 909 c 1
 547 835 l 1
 547 379 l 2
278 1028 m 0
 253 1028 235 1015 222 988 c 0
 215 974 212 959 212 943 c 1
 215 906 228 880 251 866 c 0
 259 861 268 859 278 859 c 0
 314 862 332 887 332 935 c 0
 332 941 332 941 332 948 c 0
 332 1001 314 1028 278 1028 c 0
EndSplineSet
EndChar
StartChar: uni0E1C
Encoding: 150 3612 152
OldEncoding: 3612
Width: 1200
Flags: HW
Fore
133 835 m 2
 133 942 145 1017 168 1059 c 0
 177 1074 187 1086 198 1097 c 0
 234 1130 287 1148 356 1151 c 1
 406 1150 l 2
 409 1149 413 1149 417 1148 c 0
 466 1141 508 1114 542 1069 c 0
 557 1048 568 1027 573 1005 c 0
 580 978 583 953 583 930 c 1
 579 888 l 1
 572 851 556 820 531 795 c 0
 501 765 460 750 408 749 c 0
 389 749 373 752 358 757 c 2
 353 759 l 1
 353 268 l 2
 353 235 368 214 398 205 c 0
 405 203 411 202 417 202 c 0
 448 202 468 215 476 242 c 0
 479 250 480 259 480 268 c 2
 480 698 l 1
 700 698 l 1
 700 268 l 2
 700 236 715 215 744 205 c 0
 751 203 758 202 764 202 c 0
 790 202 808 213 817 236 c 0
 821 245 823 256 823 268 c 2
 823 1139 l 1
 1043 1139 l 1
 1043 268 l 2
 1043 156 1014 77 956 30 c 0
 922 3 879 -10 828 -10 c 0
 757 -10 713 -9 697 -6 c 0
 648 1 615 21 597 54 c 1
 570 16 528 -5 470 -9 c 0
 461 -10 432 -10 381 -10 c 0
 249 -10 170 51 143 173 c 0
 136 202 133 233 133 268 c 2
 133 835 l 2
402 1028 m 0
 366 1028 348 1001 348 948 c 1
 350 911 l 1
 357 888 l 1
 366 870 381 860 402 859 c 1
 431 859 451 876 462 911 c 0
 465 922 467 932 468 943 c 0
 468 978 456 1004 431 1019 c 0
 422 1025 412 1028 402 1028 c 0
EndSplineSet
EndChar
StartChar: uni0E1D
Encoding: 151 3613 153
OldEncoding: 3613
Width: 1200
Flags: HW
AnchorPoint: "AboveBase" 751 1227 basechar 0
Fore
133 835 m 2
 133 942 145 1017 168 1059 c 0
 177 1074 187 1086 198 1097 c 0
 234 1130 287 1148 356 1151 c 1
 406 1150 l 2
 409 1149 413 1149 417 1148 c 0
 466 1141 508 1114 542 1069 c 0
 557 1048 568 1027 573 1005 c 0
 580 978 583 953 583 930 c 1
 579 888 l 1
 572 851 556 820 531 795 c 0
 501 765 460 750 408 749 c 0
 389 749 373 752 358 757 c 2
 353 759 l 1
 353 268 l 2
 353 235 368 214 398 205 c 0
 405 203 411 202 417 202 c 0
 448 202 468 215 476 242 c 0
 479 250 480 259 480 268 c 2
 480 698 l 1
 700 698 l 1
 700 268 l 2
 700 236 715 215 744 205 c 0
 751 203 758 202 764 202 c 0
 790 202 808 213 817 236 c 0
 821 245 823 256 823 268 c 2
 823 1480 l 1
 1043 1480 l 1
 1043 268 l 2
 1043 156 1014 77 956 30 c 0
 922 3 879 -10 828 -10 c 0
 757 -10 713 -9 697 -6 c 0
 648 1 615 21 597 54 c 1
 570 16 528 -5 470 -9 c 0
 461 -10 432 -10 381 -10 c 0
 249 -10 170 51 143 173 c 0
 136 202 133 233 133 268 c 2
 133 835 l 2
402 1028 m 0
 366 1028 348 1001 348 948 c 1
 350 911 l 1
 357 888 l 1
 366 870 381 860 402 859 c 1
 431 859 451 876 462 911 c 0
 465 922 467 932 468 943 c 0
 468 978 456 1004 431 1019 c 0
 422 1025 412 1028 402 1028 c 0
EndSplineSet
EndChar
StartChar: uni0E1E
Encoding: 152 3614 154
OldEncoding: 3614
Width: 1350
Flags: HW
Fore
297 268 m 2
 297 759 l 1
 282 753 264 750 243 749 c 0
 211 749 181 756 154 770 c 0
 141 777 129 785 119 795 c 0
 84 830 67 874 67 929 c 0
 67 952 70 978 77 1005 c 0
 88 1050 115 1088 158 1117 c 0
 182 1134 207 1144 233 1148 c 1
 281 1151 l 1
 349 1151 403 1135 443 1104 c 0
 446 1102 449 1100 452 1097 c 0
 489 1062 510 1000 515 909 c 1
 517 835 l 1
 517 268 l 2
 517 235 532 214 562 205 c 0
 569 203 575 202 581 202 c 0
 612 202 632 215 640 242 c 0
 643 250 644 259 644 268 c 2
 644 1039 l 1
 864 1039 l 1
 864 268 l 2
 864 236 879 215 908 205 c 0
 915 203 922 202 928 202 c 0
 954 202 972 213 981 236 c 0
 985 245 987 256 987 268 c 2
 987 1139 l 1
 1207 1139 l 1
 1207 268 l 2
 1207 156 1178 77 1120 30 c 0
 1086 3 1043 -10 992 -10 c 0
 921 -10 877 -9 861 -6 c 0
 812 1 779 21 761 54 c 1
 734 16 692 -5 634 -9 c 0
 625 -10 596 -10 545 -10 c 0
 413 -10 334 51 307 173 c 0
 300 202 297 233 297 268 c 2
248 1028 m 0
 223 1028 205 1015 192 988 c 0
 185 974 182 959 182 943 c 1
 185 906 198 880 221 866 c 0
 229 861 238 859 248 859 c 0
 284 862 302 887 302 935 c 0
 302 941 302 941 302 948 c 0
 302 1001 284 1028 248 1028 c 0
EndSplineSet
EndChar
StartChar: uni0E1F
Encoding: 153 3615 155
OldEncoding: 3615
Width: 1450
Flags: HW
AnchorPoint: "AboveBase" 966 1227 basechar 0
Fore
348 268 m 2
 348 759 l 1
 333 753 315 750 294 749 c 0
 262 749 232 756 205 770 c 0
 192 777 180 785 170 795 c 0
 135 830 118 874 118 929 c 0
 118 952 121 978 128 1005 c 0
 139 1050 166 1088 209 1117 c 0
 233 1134 258 1144 284 1148 c 1
 332 1151 l 1
 400 1151 454 1135 494 1104 c 0
 497 1102 500 1100 503 1097 c 0
 540 1062 561 1000 566 909 c 1
 568 835 l 1
 568 268 l 2
 568 235 583 214 613 205 c 0
 620 203 626 202 632 202 c 0
 663 202 683 215 691 242 c 0
 694 250 695 259 695 268 c 2
 695 1039 l 1
 915 1039 l 1
 915 268 l 2
 915 236 930 215 959 205 c 0
 966 203 973 202 979 202 c 0
 1005 202 1023 213 1032 236 c 0
 1036 245 1038 256 1038 268 c 2
 1038 1480 l 1
 1258 1480 l 1
 1258 268 l 2
 1258 156 1229 77 1171 30 c 0
 1137 3 1094 -10 1043 -10 c 0
 972 -10 928 -9 912 -6 c 0
 863 1 830 21 812 54 c 1
 785 16 743 -5 685 -9 c 0
 676 -10 647 -10 596 -10 c 0
 464 -10 385 51 358 173 c 0
 351 202 348 233 348 268 c 2
299 1028 m 0
 274 1028 256 1015 243 988 c 0
 236 974 233 959 233 943 c 1
 236 906 249 880 272 866 c 0
 280 861 289 859 299 859 c 0
 335 862 353 887 353 935 c 0
 353 941 353 941 353 948 c 0
 353 1001 335 1028 299 1028 c 0
EndSplineSet
EndChar
StartChar: uni0E20
Encoding: 154 3616 156
OldEncoding: 3616
Width: 1350
Flags: HW
Fore
538 376 m 2
 538 303 l 2
 538 194 524 119 495 78 c 0
 490 70 483 63 476 56 c 0
 432 15 383 -6 328 -9 c 0
 321 -10 310 -10 295 -10 c 0
 221 -10 164 18 124 73 c 0
 111 91 101 111 94 133 c 0
 87 158 83 182 84 206 c 0
 84 264 101 310 136 344 c 0
 167 375 204 391 246 391 c 0
 259 392 271 390 283 386 c 0
 297 381 309 373 318 363 c 1
 318 384 l 2
 318 455 327 509 346 546 c 0
 361 576 395 618 446 671 c 1
 399 727 333 767 248 792 c 1
 261 855 297 917 356 979 c 1
 461 1092 594 1149 754 1149 c 0
 904 1149 1021 1102 1104 1008 c 0
 1176 927 1212 815 1212 673 c 2
 1212 0 l 1
 992 0 l 1
 992 657 l 2
 992 838 913 929 754 929 c 0
 648 929 570 896 520 831 c 1
 594 795 646 739 676 663 c 1
 672 661 642 628 586 563 c 0
 554 526 538 463 538 376 c 2
275 110 m 0
 310 110 328 141 328 204 c 0
 328 249 314 274 285 279 c 2
 275 280 l 2
 246 280 226 262 215 226 c 0
 212 217 210 206 209 195 c 0
 209 159 221 133 246 118 c 0
 255 113 265 110 275 110 c 0
EndSplineSet
EndChar
StartChar: uni0E21
Encoding: 155 3617 157
OldEncoding: 3617
Width: 1350
Flags: HW
Fore
1153 1139 m 1
 1153 218 l 2
 1153 121 1126 55 1073 21 c 0
 1038 -2 1000 -13 957 -13 c 0
 926 -13 894 -7 863 6 c 0
 852 10 836 17 815 28 c 0
 716 78 642 123 593 164 c 1
 593 116 575 75 540 42 c 0
 512 16 477 -0 434 -7 c 1
 394 -10 l 2
 384 -10 375 -9 366 -8 c 0
 305 -2 255 23 214 68 c 0
 210 73 210 73 205 79 c 0
 181 114 166 161 161 220 c 1
 161 267 l 1
 168 345 198 407 251 453 c 0
 285 482 326 500 374 507 c 1
 374 776 l 1
 355 757 329 748 296 748 c 0
 262 748 232 758 206 779 c 0
 163 814 141 865 141 932 c 0
 141 956 144 981 150 1006 c 0
 157 1031 171 1056 193 1080 c 0
 236 1126 286 1149 345 1149 c 0
 422 1149 483 1129 528 1089 c 0
 571 1050 593 996 593 927 c 2
 593 430 l 1
 599 424 l 2
 620 404 643 384 667 365 c 0
 762 289 834 251 882 250 c 0
 891 250 898 252 905 255 c 0
 912 258 917 262 921 267 c 1
 929 281 l 1
 932 290 934 322 934 377 c 2
 934 1139 l 1
 1153 1139 l 1
320 1028 m 0
 309 1028 298 1024 288 1017 c 0
 265 1000 254 976 254 943 c 0
 255 930 257 919 261 908 c 0
 274 875 294 859 321 859 c 1
 350 862 367 879 372 910 c 1
 374 947 l 1
 374 1001 356 1028 320 1028 c 0
389 317 m 1
 375 317 363 313 352 304 c 0
 329 285 317 257 316 219 c 0
 316 177 327 156 349 156 c 0
 357 156 363 157 368 160 c 0
 382 166 389 187 389 222 c 2
 389 317 l 1
EndSplineSet
EndChar
StartChar: uni0E22
Encoding: 156 3618 158
OldEncoding: 3618
Width: 1200
Flags: HW
Fore
435 1028 m 1
 416 1025 l 1
 405 1021 396 1012 390 999 c 1
 383 974 l 1
 382 966 381 957 381 947 c 0
 381 888 399 859 435 859 c 1
 453 861 l 1
 478 870 493 895 500 936 c 0
 501 939 501 941 501 943 c 1
 500 966 l 1
 495 992 481 1011 458 1022 c 0
 451 1026 443 1028 435 1028 c 1
224 477 m 0
 240 502 261 525 287 544 c 2
 310 562 l 1
 275 581 249 602 230 624 c 0
 199 661 184 730 184 831 c 0
 184 905 187 956 194 983 c 0
 205 1025 228 1062 261 1093 c 0
 290 1120 325 1138 364 1146 c 0
 373 1148 382 1149 391 1149 c 0
 472 1149 531 1131 569 1094 c 0
 602 1061 624 1021 633 972 c 0
 635 960 636 948 636 936 c 0
 636 873 612 823 564 786 c 1
 545 773 l 1
 520 759 486 752 445 752 c 0
 429 752 418 753 413 756 c 1
 413 725 429 696 461 669 c 0
 462 668 467 664 476 657 c 0
 495 641 530 632 579 629 c 0
 592 628 607 628 624 628 c 1
 624 495 l 1
 552 494 l 1
 491 487 454 453 443 390 c 0
 440 377 439 362 439 347 c 0
 439 271 482 227 568 214 c 0
 584 211 601 210 618 210 c 0
 744 210 807 254 807 341 c 2
 807 1139 l 1
 1027 1139 l 1
 1027 269 l 2
 1027 136 963 51 835 14 c 0
 785 -1 723 -9 650 -10 c 2
 626 -10 l 2
 452 -10 333 22 269 86 c 0
 226 129 203 189 201 264 c 1
 201 349 l 1
 202 410 l 1
 205 435 212 458 224 477 c 0
EndSplineSet
EndChar
StartChar: uni0E23
Encoding: 157 3619 159
OldEncoding: 3619
Width: 1100
Flags: HW
Fore
943 303 m 2
 943 207 937 142 924 109 c 0
 907 62 873 28 824 7 c 0
 797 -4 769 -10 738 -10 c 0
 611 -10 533 32 502 117 c 0
 492 144 487 173 487 202 c 0
 487 259 503 306 535 342 c 0
 566 378 607 398 657 401 c 1
 700 399 l 2
 711 398 719 396 724 393 c 1
 724 529 l 2
 724 562 709 589 679 609 c 1
 634 634 l 2
 632 635 630 635 629 636 c 0
 520 672 345 707 104 742 c 1
 122 829 149 901 185 957 c 0
 222 1016 274 1063 340 1099 c 0
 401 1132 478 1149 573 1149 c 0
 650 1149 721 1134 788 1103 c 0
 845 1077 904 1064 966 1064 c 0
 993 1064 1018 1067 1041 1072 c 1
 1002 862 l 1
 985 858 966 856 943 856 c 0
 922 855 899 857 876 861 c 0
 843 866 814 873 788 883 c 0
 783 885 779 887 775 889 c 0
 714 918 649 935 582 940 c 2
 562 941 l 2
 489 941 443 925 424 892 c 1
 583 861 689 837 744 818 c 0
 781 805 810 792 832 778 c 0
 897 737 933 678 941 601 c 0
 942 592 943 582 943 573 c 2
 943 303 l 2
724 192 m 1
 724 251 706 280 670 280 c 0
 641 280 621 263 610 229 c 1
 604 197 l 1
 604 195 l 0
 607 156 621 130 644 116 c 0
 651 112 657 110 664 110 c 1
 683 113 l 1
 708 126 722 153 724 192 c 1
EndSplineSet
EndChar
StartChar: uni0E24
Encoding: 158 3620 160
OldEncoding: 3620
Width: 1240
Flags: HW
Fore
408 376 m 2
 408 363 l 1
 425 382 449 391 479 391 c 0
 498 392 517 388 536 380 c 0
 557 371 575 359 590 344 c 0
 625 310 642 264 642 206 c 0
 643 182 639 158 632 133 c 0
 615 76 580 35 527 10 c 0
 498 -3 466 -10 431 -10 c 0
 382 -9 345 -3 318 9 c 0
 295 20 273 35 250 56 c 0
 213 90 192 156 189 254 c 0
 188 269 188 285 188 303 c 2
 188 366 l 2
 188 449 197 509 216 546 c 0
 231 576 265 618 316 671 c 1
 269 727 203 767 118 792 c 1
 131 855 167 917 226 979 c 1
 331 1092 464 1149 624 1149 c 0
 774 1149 891 1102 974 1008 c 0
 1046 927 1082 815 1082 673 c 2
 1082 -380 l 1
 862 -380 l 1
 862 657 l 2
 862 838 783 929 624 929 c 0
 518 929 440 896 390 831 c 1
 464 795 516 739 546 663 c 1
 542 661 512 628 456 563 c 0
 424 526 408 463 408 376 c 2
451 110 m 0
 476 110 495 124 508 152 c 0
 514 165 517 179 517 195 c 1
 514 238 500 265 473 276 c 0
 466 279 459 280 451 280 c 0
 420 280 403 260 399 220 c 1
 398 204 l 1
 398 141 416 110 451 110 c 0
EndSplineSet
EndChar
StartChar: uni0E25
Encoding: 159 3621 161
OldEncoding: 3621
Width: 1250
Flags: HW
Fore
1020 915 m 2
 1042 868 1053 801 1053 713 c 2
 1053 0 l 1
 833 0 l 1
 833 263 l 2
 833 356 810 424 764 468 c 0
 728 503 668 520 585 520 c 0
 578 520 578 520 570 520 c 0
 503 519 457 498 430 457 c 1
 417 434 411 410 410 383 c 1
 410 363 l 1
 427 382 451 391 481 391 c 0
 500 392 519 388 538 380 c 0
 559 371 577 359 592 344 c 0
 627 310 644 264 644 206 c 0
 645 182 641 158 634 133 c 0
 617 76 582 35 529 10 c 0
 500 -3 468 -10 433 -10 c 0
 384 -9 347 -3 320 9 c 0
 297 20 275 35 252 56 c 0
 215 90 194 156 191 254 c 0
 190 269 190 285 190 303 c 2
 190 438 l 2
 190 551 240 635 339 688 c 0
 403 723 479 740 566 740 c 0
 659 740 734 724 792 691 c 0
 809 682 822 671 832 658 c 1
 832 714 l 2
 832 771 818 816 790 848 c 0
 786 852 l 0
 759 882 717 904 662 918 c 0
 632 925 601 929 570 929 c 0
 479 929 400 902 332 849 c 0
 305 827 283 802 266 775 c 1
 126 929 l 1
 165 996 230 1050 319 1092 c 0
 399 1130 482 1149 567 1149 c 0
 678 1149 779 1124 870 1074 c 0
 879 1069 888 1063 896 1058 c 0
 928 1037 960 1005 992 960 c 1
 1017 922 l 1
 1020 915 l 2
463 110 m 0
 488 110 507 124 520 152 c 0
 526 165 529 179 529 195 c 1
 526 238 512 265 485 276 c 0
 478 279 471 280 463 280 c 0
 432 280 415 260 411 220 c 1
 410 204 l 1
 410 141 428 110 463 110 c 0
EndSplineSet
EndChar
StartChar: uni0E26
Encoding: 160 3622 162
OldEncoding: 3622
Width: 1350
Flags: HW
Fore
538 376 m 2
 538 303 l 2
 538 194 524 119 495 78 c 0
 490 70 483 63 476 56 c 0
 432 15 383 -6 328 -9 c 0
 321 -10 310 -10 295 -10 c 0
 221 -10 164 18 124 73 c 0
 111 91 101 111 94 133 c 0
 87 158 83 182 84 206 c 0
 84 264 101 310 136 344 c 0
 167 375 204 391 246 391 c 0
 259 392 271 390 283 386 c 0
 297 381 309 373 318 363 c 1
 318 384 l 2
 318 455 327 509 346 546 c 0
 361 576 395 618 446 671 c 1
 399 727 333 767 248 792 c 1
 261 855 297 917 356 979 c 1
 461 1092 594 1149 754 1149 c 0
 904 1149 1021 1102 1104 1008 c 0
 1176 927 1212 815 1212 673 c 2
 1212 -380 l 1
 992 -380 l 1
 992 657 l 2
 992 838 913 929 754 929 c 0
 648 929 570 896 520 831 c 1
 594 795 646 739 676 663 c 1
 672 661 642 628 586 563 c 0
 554 526 538 463 538 376 c 2
275 110 m 0
 310 110 328 141 328 204 c 0
 328 249 314 274 285 279 c 2
 275 280 l 2
 246 280 226 262 215 226 c 0
 212 217 210 206 209 195 c 0
 209 159 221 133 246 118 c 0
 255 113 265 110 275 110 c 0
EndSplineSet
EndChar
StartChar: uni0E27
Encoding: 161 3623 163
OldEncoding: 3623
Width: 1150
Flags: HW
Fore
1032 714 m 2
 1032 303 l 2
 1032 205 1026 140 1013 108 c 0
 1004 85 989 63 966 42 c 0
 934 12 887 -5 824 -10 c 0
 817 -11 810 -11 803 -11 c 0
 723 -11 662 18 620 75 c 1
 593 113 580 158 579 211 c 1
 580 269 599 317 638 354 c 0
 667 381 699 395 736 395 c 0
 770 395 794 390 809 381 c 0
 810 380 812 378 814 377 c 1
 814 675 l 2
 814 736 809 777 799 800 c 0
 792 815 783 829 770 842 c 0
 715 900 629 929 512 929 c 0
 423 929 344 903 277 852 c 0
 248 829 225 804 208 775 c 1
 68 929 l 1
 100 971 144 1012 200 1053 c 0
 223 1070 244 1083 263 1093 c 0
 336 1130 419 1149 510 1149 c 0
 618 1149 717 1129 806 1090 c 0
 828 1081 848 1070 866 1059 c 0
 927 1021 970 974 995 918 c 0
 1020 863 1032 795 1032 714 c 2
814 192 m 0
 814 251 796 280 760 280 c 0
 734 280 715 264 702 233 c 0
 697 221 695 209 694 196 c 0
 694 163 706 139 730 122 c 0
 737 117 745 113 754 111 c 1
 778 113 l 1
 800 119 812 142 814 182 c 0
 814 192 l 0
EndSplineSet
EndChar
StartChar: uni0E28
Encoding: 162 3624 164
OldEncoding: 3624
Width: 1300
Flags: HW
Fore
938 1061 m 1
 986 1094 1027 1148 1062 1224 c 1
 1280 1224 l 1
 1243 1109 1173 1013 1069 937 c 1
 1112 870 1134 774 1134 651 c 2
 1134 0 l 1
 954 0 l 1
 954 702 l 2
 954 767 927 827 873 880 c 0
 854 899 832 915 809 928 c 0
 759 955 697 969 624 969 c 2
 617 969 l 2
 552 968 494 955 443 930 c 1
 384 903 341 862 314 808 c 0
 295 768 285 714 285 646 c 0
 285 603 289 562 298 525 c 1
 351 316 l 1
 372 421 408 511 457 587 c 0
 493 644 535 683 582 705 c 0
 616 721 655 724 698 714 c 0
 738 704 775 679 808 640 c 0
 825 620 836 601 841 582 c 0
 848 558 851 536 851 517 c 0
 851 480 836 439 805 395 c 2
 801 389 l 2
 763 338 718 313 666 313 c 0
 655 313 643 314 631 317 c 0
 609 321 586 333 562 353 c 0
 555 358 550 364 547 369 c 1
 512 302 476 206 440 81 c 0
 432 52 425 25 419 0 c 1
 186 0 l 1
 186 108 l 2
 186 161 169 266 135 424 c 1
 114 515 103 599 103 676 c 0
 103 721 107 763 115 800 c 0
 140 907 202 992 303 1057 c 1
 396 1114 493 1145 595 1149 c 2
 617 1149 l 2
 715 1148 799 1131 869 1098 c 0
 875 1095 l 0
 894 1086 915 1075 938 1061 c 1
670 574 m 1
 656 570 640 555 622 530 c 0
 605 507 597 487 597 472 c 0
 596 453 603 438 619 427 c 0
 628 420 637 417 648 417 c 0
 657 417 666 419 675 423 c 0
 692 430 707 443 720 460 c 0
 730 473 736 491 737 512 c 0
 738 533 731 551 716 565 c 0
 709 572 698 576 684 576 c 1
 670 574 l 1
EndSplineSet
EndChar
StartChar: uni0E29
Encoding: 163 3625 165
OldEncoding: 3625
Width: 1350
Flags: HW
Fore
247 1028 m 0
 222 1028 204 1015 191 988 c 0
 184 974 181 959 181 943 c 1
 184 906 197 880 220 866 c 0
 228 861 237 859 247 859 c 0
 283 862 301 887 301 935 c 0
 301 941 301 941 301 948 c 0
 301 1001 283 1028 247 1028 c 0
1122 463 m 1
 1122 273 l 2
 1122 147 1066 64 955 24 c 0
 893 1 810 -10 706 -10 c 0
 457 -10 321 67 299 222 c 0
 297 237 296 252 296 268 c 2
 296 759 l 1
 281 753 263 750 242 749 c 0
 210 749 180 756 153 770 c 0
 140 777 128 785 118 795 c 0
 83 830 66 874 66 929 c 0
 66 952 69 978 76 1005 c 0
 87 1050 114 1088 157 1117 c 0
 181 1134 206 1144 232 1148 c 1
 280 1151 l 1
 348 1151 402 1135 442 1104 c 0
 445 1102 448 1100 451 1097 c 0
 488 1062 509 1000 514 909 c 1
 516 835 l 1
 516 379 l 2
 516 288 560 233 649 215 c 0
 668 212 688 210 711 210 c 0
 818 211 880 250 897 327 c 0
 900 342 902 360 902 379 c 2
 902 421 l 1
 887 418 868 417 844 417 c 0
 840 417 l 0
 789 418 743 432 700 457 c 0
 663 480 635 513 618 556 c 0
 610 577 606 597 606 618 c 0
 606 621 606 621 606 625 c 0
 610 714 649 766 722 781 c 0
 729 782 737 783 745 784 c 1
 779 783 l 1
 817 777 847 757 868 723 c 0
 879 706 884 683 884 655 c 0
 884 644 883 634 881 625 c 0
 877 608 866 592 847 575 c 1
 850 568 862 564 883 564 c 0
 892 563 898 564 902 566 c 1
 902 1139 l 1
 1122 1139 l 1
 1122 642 l 1
 1148 668 1161 711 1161 771 c 1
 1294 771 l 1
 1294 698 1285 642 1266 603 c 0
 1261 590 1254 578 1246 566 c 0
 1221 527 1180 493 1122 463 c 1
794 651 m 1
 789 678 774 694 749 697 c 1
 734 696 l 1
 721 692 712 683 707 669 c 1
 703 653 l 1
 703 634 712 620 729 611 c 0
 736 608 742 607 749 607 c 0
 768 607 781 616 790 635 c 0
 793 640 794 646 794 651 c 1
EndSplineSet
EndChar
StartChar: uni0E2A
Encoding: 164 3626 166
OldEncoding: 3626
Width: 1250
Flags: HW
Fore
1020 915 m 1
 1042 862 1053 795 1053 713 c 2
 1053 0 l 1
 833 0 l 1
 833 263 l 2
 833 356 810 424 764 468 c 0
 728 503 668 520 585 520 c 0
 578 520 578 520 570 520 c 0
 503 519 457 498 430 457 c 1
 417 434 411 410 410 383 c 1
 410 363 l 1
 427 382 451 391 481 391 c 0
 500 392 519 388 538 380 c 0
 559 371 577 359 592 344 c 0
 627 310 644 264 644 206 c 0
 645 182 641 158 634 133 c 0
 617 76 582 35 529 10 c 0
 500 -3 468 -10 433 -10 c 0
 384 -9 347 -3 320 9 c 0
 297 20 275 35 252 56 c 0
 215 90 194 156 191 254 c 0
 190 269 190 285 190 303 c 2
 190 438 l 2
 190 551 240 635 339 688 c 0
 403 723 479 740 566 740 c 0
 659 740 734 724 792 691 c 0
 809 682 822 671 832 658 c 1
 832 714 l 2
 832 771 818 816 790 848 c 0
 786 852 l 0
 759 882 717 904 662 918 c 0
 632 925 601 929 570 929 c 0
 479 929 400 902 332 849 c 0
 305 827 283 802 266 775 c 1
 126 929 l 1
 165 996 230 1050 319 1092 c 0
 399 1130 482 1149 567 1149 c 0
 702 1149 807 1119 880 1059 c 1
 931 1094 972 1144 1002 1209 c 1
 1270 1209 l 1
 1258 1138 1205 1063 1111 985 c 1
 1022 916 l 1
 1020 915 l 1
463 110 m 0
 488 110 507 124 520 152 c 0
 526 165 529 179 529 195 c 1
 526 238 512 265 485 276 c 0
 478 279 471 280 463 280 c 0
 432 280 415 260 411 220 c 1
 410 204 l 1
 410 141 428 110 463 110 c 0
EndSplineSet
EndChar
StartChar: uni0E2B
Encoding: 165 3627 167
OldEncoding: 3627
Width: 1350
Flags: HW
Fore
553 385 m 1
 623 510 l 1
 644 544 666 578 691 611 c 0
 742 681 792 736 839 776 c 1
 790 828 766 885 766 948 c 0
 766 1006 789 1055 834 1095 c 0
 874 1131 922 1149 979 1149 c 0
 1056 1149 1115 1122 1155 1068 c 1
 1173 1038 l 1
 1187 1002 l 1
 1192 984 1194 965 1194 946 c 0
 1194 863 1165 802 1107 764 c 1
 1138 747 1163 719 1182 680 c 0
 1193 656 1198 633 1198 610 c 2
 1198 0 l 1
 978 0 l 1
 978 538 l 2
 978 567 970 589 955 606 c 1
 901 571 841 495 774 376 c 0
 704 251 648 126 606 0 c 1
 332 0 l 1
 332 759 l 1
 317 750 292 745 255 745 c 0
 200 745 158 769 128 818 c 0
 109 851 99 889 99 932 c 0
 99 955 102 979 108 1003 c 0
 121 1055 155 1095 208 1122 c 0
 242 1139 280 1148 323 1149 c 1
 365 1146 l 1
 430 1135 480 1103 515 1049 c 0
 540 1011 553 968 553 921 c 2
 553 385 l 1
278 1025 m 1
 253 1025 235 1012 222 987 c 1
 214 963 l 1
 212 940 l 1
 213 907 225 882 247 866 c 0
 256 859 267 856 278 856 c 0
 310 858 328 879 332 919 c 0
 333 926 333 935 333 944 c 1
 326 995 307 1022 278 1025 c 1
982 863 m 0
 1011 863 1031 876 1043 902 c 0
 1048 911 1050 921 1050 932 c 0
 1050 966 1037 990 1011 1004 c 0
 1002 1009 991 1011 980 1012 c 1
 957 1009 l 1
 936 1002 922 988 915 967 c 1
 911 941 l 1
 911 938 l 2
 911 907 924 884 949 871 c 0
 959 866 970 863 982 863 c 0
EndSplineSet
EndChar
StartChar: uni0E2C
Encoding: 166 3628 168
OldEncoding: 3628
Width: 1400
Flags: HW
AnchorPoint: "AboveBase" 792 1227 basechar 0
Fore
262 1028 m 0
 237 1028 219 1015 206 988 c 0
 199 974 196 959 196 943 c 1
 199 906 212 880 235 866 c 0
 243 861 252 859 262 859 c 0
 298 862 316 887 316 935 c 0
 316 941 316 941 316 948 c 0
 316 1001 298 1028 262 1028 c 0
1221 268 m 2
 1221 156 1192 77 1134 30 c 0
 1100 3 1057 -10 1006 -10 c 0
 935 -10 891 -9 875 -6 c 0
 826 1 793 21 775 54 c 1
 748 16 706 -5 648 -9 c 0
 639 -10 610 -10 559 -10 c 0
 427 -10 348 51 321 173 c 0
 314 202 311 233 311 268 c 2
 311 759 l 1
 296 753 278 750 257 749 c 0
 225 749 195 756 168 770 c 0
 155 777 143 785 133 795 c 0
 98 830 81 874 81 929 c 0
 81 952 84 978 91 1005 c 0
 102 1050 129 1088 172 1117 c 0
 196 1134 221 1144 247 1148 c 1
 295 1151 l 1
 363 1151 417 1135 457 1104 c 0
 460 1102 463 1100 466 1097 c 0
 503 1062 524 1000 529 909 c 1
 531 835 l 1
 531 268 l 2
 531 235 546 214 576 205 c 0
 583 203 589 202 595 202 c 0
 626 202 646 215 654 242 c 0
 657 250 658 259 658 268 c 2
 658 1039 l 1
 878 1039 l 1
 878 268 l 2
 878 236 893 215 922 205 c 0
 929 203 936 202 942 202 c 0
 968 202 986 213 995 236 c 0
 999 245 1001 256 1001 268 c 2
 1001 1158 l 1
 944 1168 899 1193 868 1234 c 0
 841 1269 828 1310 828 1357 c 4
 828 1380 831 1403 837 1426 c 0
 852 1481 886 1519 939 1541 c 0
 965 1552 994 1557 1025 1557 c 0
 1087 1557 1138 1534 1178 1489 c 1
 1186 1479 1193 1469 1198 1459 c 0
 1214 1428 1222 1384 1222 1325 c 2
 1222 1301 l 1
 1259 1304 1288 1317 1311 1338 c 0
 1341 1367 1357 1417 1359 1487 c 1
 1493 1487 l 1
 1491 1436 l 1
 1488 1407 1483 1378 1474 1350 c 0
 1456 1291 1423 1244 1374 1207 c 1
 1337 1180 1291 1163 1237 1156 c 2
 1221 1154 l 1
 1221 268 l 2
1013 1302 m 0
 1037 1302 1055 1313 1068 1335 c 0
 1073 1344 1076 1354 1076 1365 c 0
 1076 1388 1065 1406 1044 1419 c 0
 1034 1425 1024 1428 1013 1428 c 0
 989 1428 970 1417 957 1396 c 0
 951 1386 948 1376 948 1365 c 0
 948 1340 959 1322 982 1310 c 0
 992 1305 1002 1302 1013 1302 c 0
EndSplineSet
EndChar
StartChar: uni0E2D
Encoding: 167 3629 169
OldEncoding: 3629
Width: 1230
Flags: HW
Fore
223 270 m 2
 223 434 l 2
 223 529 230 595 245 631 c 0
 268 684 306 719 361 737 c 0
 383 744 406 748 431 748 c 0
 444 748 458 747 472 745 c 0
 532 736 577 704 608 649 c 0
 622 624 631 596 635 565 c 0
 637 552 638 539 638 525 c 0
 638 482 621 442 588 404 c 0
 559 371 522 354 478 354 c 0
 466 354 454 355 443 358 c 1
 443 325 l 2
 443 268 478 232 549 217 c 0
 570 212 593 210 619 210 c 0
 694 210 751 229 790 266 c 0
 817 291 830 323 830 360 c 2
 830 715 l 2
 830 808 788 871 703 905 c 0
 664 921 619 929 568 929 c 0
 445 928 351 888 287 808 c 1
 263 775 l 1
 116 936 l 1
 218 1078 368 1149 565 1149 c 0
 694 1149 803 1118 892 1057 c 0
 933 1030 966 997 991 959 c 0
 1030 900 1050 830 1050 751 c 2
 1050 273 l 2
 1050 146 994 63 881 24 c 0
 818 1 730 -10 615 -10 c 0
 362 -10 231 78 223 253 c 0
 223 262 223 262 223 270 c 2
458 625 m 0
 422 625 404 598 404 545 c 0
 404 495 417 466 443 458 c 0
 448 457 453 457 458 456 c 0
 485 456 504 472 516 504 c 0
 521 515 523 527 524 540 c 0
 524 571 513 595 491 613 c 0
 480 621 469 625 458 625 c 0
EndSplineSet
EndChar
StartChar: uni0E2E
Encoding: 168 3630 170
OldEncoding: 3630
Width: 1250
Flags: HW
Fore
837 741 m 2
 837 769 836 791 833 808 c 1
 760 767 673 746 572 746 c 0
 554 746 l 0
 449 748 363 769 294 809 c 0
 233 845 201 890 200 944 c 1
 203 970 l 1
 214 1012 247 1048 301 1079 c 0
 306 1081 310 1083 315 1086 c 0
 394 1126 484 1147 585 1149 c 1
 702 1149 806 1121 898 1064 c 1
 926 1100 943 1131 950 1158 c 1
 1072 1116 l 1
 1049 1061 1023 1014 994 975 c 1
 1036 914 1057 851 1057 786 c 2
 1057 273 l 2
 1057 146 1001 63 888 24 c 0
 825 1 737 -10 622 -10 c 0
 369 -10 238 78 230 253 c 0
 230 262 230 262 230 270 c 2
 230 434 l 2
 230 529 237 595 252 631 c 0
 275 684 313 719 368 737 c 0
 390 744 413 748 438 748 c 0
 451 748 465 747 479 745 c 0
 539 736 584 704 615 649 c 0
 629 624 638 596 642 565 c 0
 644 552 645 539 645 525 c 0
 645 482 628 442 595 404 c 0
 566 371 529 354 485 354 c 0
 473 354 461 355 450 358 c 1
 450 325 l 2
 450 268 485 232 556 217 c 0
 577 212 600 210 626 210 c 0
 701 210 758 229 797 266 c 0
 824 291 837 323 837 360 c 2
 837 741 l 2
465 625 m 0
 429 625 411 598 411 545 c 0
 411 495 424 466 450 458 c 0
 455 457 460 457 465 456 c 0
 492 456 511 472 523 504 c 0
 528 515 530 527 531 540 c 0
 531 571 520 595 498 613 c 0
 487 621 476 625 465 625 c 0
736 935 m 1
 713 956 666 969 595 972 c 0
 587 972 587 972 580 972 c 0
 549 972 519 965 492 950 c 0
 481 943 475 937 475 932 c 0
 475 915 498 903 545 897 c 0
 558 895 570 894 582 894 c 0
 641 894 688 905 724 927 c 0
 729 930 733 932 736 935 c 1
EndSplineSet
EndChar
StartChar: uni0E2F
Encoding: 169 3631 171
OldEncoding: 3631
Width: 1150
Flags: HW
Fore
1025 1149 m 1
 1025 0 l 1
 805 0 l 1
 805 776 l 1
 762 722 687 687 581 672 c 0
 550 667 519 665 487 665 c 0
 390 665 309 683 243 719 c 0
 199 743 166 782 143 836 c 0
 132 861 126 887 125 914 c 1
 127 958 l 1
 135 1023 164 1074 214 1110 c 0
 240 1129 269 1140 300 1144 c 1
 347 1147 l 1
 422 1146 481 1117 523 1061 c 1
 525 1057 527 1053 530 1050 c 0
 542 1031 548 1005 548 972 c 0
 549 944 544 918 535 895 c 0
 530 880 523 869 514 860 c 1
 549 857 l 1
 598 858 641 871 678 895 c 0
 681 896 683 898 686 900 c 0
 745 943 783 1011 799 1103 c 0
 802 1118 804 1133 805 1149 c 1
 1025 1149 l 1
260 958 m 1
 262 936 l 1
 267 911 283 896 309 890 c 0
 314 889 319 889 324 889 c 0
 349 889 369 899 384 920 c 0
 392 932 396 945 396 958 c 0
 396 981 385 1000 364 1013 c 0
 353 1020 342 1023 330 1023 c 0
 296 1023 274 1008 264 978 c 1
 260 958 l 1
EndSplineSet
EndChar
StartChar: uni0E30
Encoding: 170 3632 172
OldEncoding: 3632
Width: 1100
Flags: HW
Fore
171 312 m 0
 172 412 217 472 306 491 c 0
 325 495 345 497 366 498 c 1
 405 495 l 1
 464 484 504 450 526 391 c 0
 533 374 537 357 538 340 c 1
 537 303 l 1
 534 275 525 252 511 233 c 1
 544 235 l 1
 597 243 645 272 690 322 c 0
 714 348 730 374 739 399 c 0
 747 423 753 450 756 480 c 1
 922 480 l 1
 922 369 883 275 805 199 c 0
 728 125 632 85 517 80 c 0
 508 79 500 79 492 79 c 0
 397 79 319 102 258 149 c 0
 217 180 190 220 177 268 c 0
 173 283 171 297 171 312 c 0
287 327 m 1
 291 307 l 1
 299 285 315 273 338 270 c 0
 341 269 343 269 345 269 c 2
 368 272 l 1
 392 280 406 296 411 319 c 0
 412 322 412 326 412 330 c 1
 408 350 l 1
 400 371 384 383 361 387 c 0
 358 388 354 388 351 388 c 0
 323 388 304 376 293 352 c 0
 289 345 287 336 287 327 c 1
171 836 m 0
 172 936 217 996 306 1015 c 0
 325 1019 345 1021 366 1022 c 1
 405 1019 l 1
 464 1008 504 974 526 915 c 0
 533 898 537 881 538 864 c 1
 537 827 l 1
 529 792 l 1
 524 779 518 767 511 757 c 1
 544 759 l 1
 597 767 645 796 690 846 c 0
 714 872 730 898 739 923 c 0
 747 947 753 974 756 1004 c 1
 922 1004 l 1
 922 893 883 799 805 723 c 0
 728 649 632 609 517 604 c 0
 508 603 500 603 492 603 c 0
 397 603 319 626 258 673 c 0
 217 704 190 744 177 792 c 0
 173 807 171 821 171 836 c 0
287 851 m 1
 291 831 l 1
 299 809 315 797 338 794 c 0
 341 793 343 793 345 793 c 2
 368 796 l 1
 392 804 406 820 411 843 c 0
 412 846 412 850 412 854 c 1
 408 874 l 1
 400 895 384 907 361 911 c 0
 358 912 354 912 351 912 c 0
 323 912 304 900 293 876 c 0
 289 869 287 860 287 851 c 1
EndSplineSet
EndChar
StartChar: uni0E31
Encoding: 171 3633 173
OldEncoding: 3633
Width: 0
Flags: HW
AnchorPoint: "AboveMark" -262 1740 basemark 0
AnchorPoint: "AboveBase" -180 1227 mark 0
Fore
-734 1466 m 0
 -733 1566 -688 1626 -599 1645 c 0
 -580 1649 -560 1651 -539 1652 c 1
 -500 1649 l 1
 -441 1638 -401 1604 -379 1545 c 0
 -372 1528 -368 1511 -367 1494 c 1
 -368 1457 l 1
 -376 1422 l 1
 -381 1409 -387 1397 -394 1387 c 1
 -361 1389 l 1
 -308 1397 -260 1426 -215 1476 c 0
 -191 1502 -175 1528 -166 1553 c 0
 -158 1577 -152 1604 -149 1634 c 1
 17 1634 l 1
 17 1523 -22 1429 -100 1353 c 0
 -177 1279 -273 1239 -388 1234 c 0
 -397 1233 -405 1233 -413 1233 c 0
 -508 1233 -586 1256 -647 1303 c 0
 -688 1334 -715 1374 -728 1422 c 0
 -732 1437 -734 1451 -734 1466 c 0
-618 1481 m 1
 -614 1461 l 1
 -606 1439 -590 1427 -567 1424 c 0
 -564 1423 -562 1423 -560 1423 c 2
 -537 1426 l 1
 -513 1434 -499 1450 -494 1473 c 0
 -493 1476 -493 1480 -493 1484 c 1
 -497 1504 l 1
 -502 1519 -513 1530 -529 1537 c 1
 -550 1542 l 1
 -554 1542 l 2
 -582 1542 -601 1530 -612 1506 c 1
 -618 1486 l 1
 -618 1484 -618 1484 -618 1481 c 1
EndSplineSet
EndChar
StartChar: uni0E32
Encoding: 172 3634 174
OldEncoding: 3634
Width: 1150
Flags: HW
Fore
956 753 m 2
 956 0 l 1
 736 0 l 1
 736 729 l 2
 736 810 708 867 651 901 c 0
 620 920 580 929 533 929 c 0
 474 929 420 904 373 853 c 0
 348 826 329 796 318 764 c 1
 120 846 l 1
 153 928 206 998 278 1056 c 0
 355 1118 436 1149 522 1149 c 0
 670 1149 783 1107 861 1022 c 1
 889 987 l 1
 934 924 956 846 956 753 c 2
EndSplineSet
EndChar
StartChar: uni0E33
Encoding: 173 3635 175
OldEncoding: 3635
Width: 1050
Flags: HW
Fore
902 753 m 2
 902 0 l 1
 682 0 l 1
 682 729 l 2
 682 810 654 867 597 901 c 0
 566 920 526 929 479 929 c 0
 420 929 366 904 319 853 c 0
 294 826 275 796 264 764 c 1
 66 846 l 1
 99 928 152 998 224 1056 c 0
 301 1118 382 1149 468 1149 c 0
 616 1149 729 1107 807 1022 c 0
 866 958 898 875 902 773 c 0
 902 753 l 2
-300 1668 m 0
 -229 1668 -171 1643 -125 1594 c 0
 -103 1570 -87 1543 -78 1512 c 0
 -71 1489 -67 1466 -67 1441 c 0
 -67 1370 -94 1312 -147 1267 c 0
 -190 1231 -241 1213 -300 1212 c 1
 -345 1216 l 1
 -413 1227 -464 1262 -497 1321 c 0
 -518 1357 -528 1397 -528 1441 c 0
 -528 1506 -503 1562 -454 1607 c 0
 -411 1648 -359 1668 -300 1668 c 0
-299 1509 m 0
 -333 1509 -357 1496 -371 1470 c 0
 -376 1459 -379 1448 -379 1435 c 0
 -379 1404 -365 1381 -337 1368 c 0
 -326 1362 -313 1359 -299 1359 c 0
 -260 1359 -235 1374 -222 1404 c 0
 -217 1413 -215 1424 -215 1435 c 0
 -215 1467 -230 1489 -261 1502 c 1
 -287 1509 l 1
 -299 1509 l 0
EndSplineSet
MultipleSubs: 0 1 'ccmp' uni0E4D uni0E32
EndChar
StartChar: uni0E34
Encoding: 174 3636 176
OldEncoding: 3636
Width: 0
Flags: HW
AnchorPoint: "AboveMark" -307 1740 basemark 0
AnchorPoint: "AboveBase" -180 1227 mark 0
Fore
-180 1228 m 1
 -305 1255 -498 1281 -760 1306 c 0
 -935 1323 -1075 1331 -1181 1331 c 1
 -1162 1398 -1117 1466 -1046 1534 c 0
 -1011 1567 -976 1595 -940 1616 c 0
 -867 1658 -784 1679 -690 1679 c 0
 -668 1679 -646 1678 -623 1676 c 0
 -536 1666 -453 1632 -376 1575 c 0
 -362 1564 -349 1553 -336 1542 c 0
 -258 1471 -206 1367 -180 1228 c 1
-435 1392 m 1
 -454 1433 -492 1466 -548 1491 c 0
 -582 1506 -618 1516 -655 1519 c 1
 -711 1520 l 1
 -792 1516 -853 1490 -894 1441 c 1
 -796 1441 -681 1432 -549 1413 c 0
 -502 1406 -464 1399 -435 1392 c 1
EndSplineSet
EndChar
StartChar: uni0E35
Encoding: 175 3637 177
OldEncoding: 3637
Width: 0
Flags: HW
AnchorPoint: "AboveMark" -279 1740 basemark 0
AnchorPoint: "AboveBase" -180 1227 mark 0
Fore
-188 1260 m 1
 -185 1249 -183 1238 -181 1228 c 1
 -302 1254 -489 1278 -741 1301 c 0
 -900 1316 -1028 1323 -1125 1323 c 1
 -1100 1406 -1049 1477 -971 1537 c 0
 -880 1607 -776 1642 -659 1642 c 0
 -552 1642 -465 1617 -397 1568 c 0
 -388 1561 -379 1554 -370 1546 c 1
 -370 1735 l 1
 -188 1735 l 5
 -188 1260 l 1
-429 1387 m 1
 -445 1420 -479 1448 -531 1471 c 0
 -563 1486 -595 1495 -628 1498 c 1
 -682 1499 l 1
 -754 1494 -808 1471 -844 1429 c 1
 -750 1429 -642 1420 -521 1403 c 0
 -484 1398 -453 1392 -429 1387 c 1
EndSplineSet
EndChar
StartChar: uni0E36
Encoding: 176 3638 178
OldEncoding: 3638
Width: 0
Flags: HW
AnchorPoint: "AboveMark" -197 1740 basemark 0
AnchorPoint: "AboveBase" -90 1227 mark 0
Fore
-382 1562 m 1
 -367 1606 -337 1639 -292 1661 c 0
 -265 1674 -236 1681 -206 1681 c 4
 -202 1681 -202 1681 -199 1681 c 0
 -139 1679 -91 1656 -55 1613 c 0
 -28 1582 -15 1545 -15 1502 c 0
 -15 1443 -38 1395 -84 1360 c 0
 -118 1334 -158 1321 -203 1321 c 1
 -197 1304 -190 1273 -181 1228 c 1
 -302 1254 -489 1278 -741 1301 c 0
 -900 1316 -1028 1323 -1125 1323 c 1
 -1100 1409 -1045 1481 -961 1540 c 1
 -868 1607 -759 1640 -636 1640 c 0
 -623 1640 -611 1640 -599 1639 c 0
 -510 1634 -440 1611 -391 1570 c 0
 -388 1567 -385 1565 -382 1562 c 1
-199 1559 m 0
 -226 1559 -245 1548 -256 1526 c 1
 -262 1507 l 1
 -262 1500 l 2
 -262 1473 -250 1455 -227 1444 c 0
 -218 1439 -209 1437 -199 1437 c 0
 -168 1437 -147 1450 -137 1476 c 0
 -134 1483 -133 1491 -133 1500 c 0
 -133 1527 -146 1545 -171 1554 c 0
 -180 1557 -189 1559 -199 1559 c 0
-432 1376 m 1
 -449 1410 -480 1440 -527 1467 c 0
 -561 1486 -595 1497 -628 1500 c 1
 -667 1499 l 1
 -720 1494 -768 1476 -809 1447 c 0
 -823 1438 -833 1428 -839 1419 c 1
 -749 1419 -645 1410 -526 1393 c 0
 -487 1388 -456 1382 -432 1376 c 1
EndSplineSet
EndChar
StartChar: uni0E37
Encoding: 177 3639 179
OldEncoding: 3639
Width: 0
Flags: HW
AnchorPoint: "AboveMark" -381 1740 basemark 0
AnchorPoint: "AboveBase" -180 1227 mark 0
Fore
-404 1587 m 1
 -389 1583 -373 1571 -358 1551 c 1
 -358 1722 l 5
 -188 1722 l 1
 -188 1285 l 1
 -186 1228 l 1
 -297 1252 -474 1276 -719 1299 c 0
 -882 1315 -1011 1323 -1106 1323 c 1
 -1077 1409 -1023 1481 -944 1539 c 0
 -857 1602 -759 1634 -648 1634 c 0
 -642 1634 l 0
 -625 1634 -605 1631 -580 1625 c 1
 -580 1723 l 1
 -404 1723 l 1
 -404 1587 l 1
-400 1370 m 1
 -430 1433 -480 1474 -550 1495 c 0
 -571 1501 -594 1505 -617 1506 c 1
 -677 1506 l 1
 -756 1500 -816 1470 -859 1417 c 2
 -861 1414 l 1
 -712 1408 -576 1396 -453 1379 c 0
 -428 1376 -411 1373 -400 1370 c 1
EndSplineSet
EndChar
StartChar: uni0E38
Encoding: 178 3640 180
OldEncoding: 3640
Width: 0
Flags: HW
AnchorPoint: "BelowBase" -161 -85 mark 0
Fore
-361 -534 m 1
 -361 -370 l 1
 -372 -375 -384 -378 -397 -378 c 0
 -429 -377 -459 -365 -486 -341 c 0
 -512 -318 -525 -283 -525 -238 c 0
 -525 -224 -523 -210 -520 -197 c 0
 -519 -190 -517 -183 -514 -177 c 0
 -496 -130 -457 -100 -397 -89 c 0
 -382 -86 -367 -85 -352 -85 c 0
 -303 -85 -262 -97 -230 -120 c 0
 -226 -123 -222 -126 -219 -129 c 0
 -188 -160 -169 -203 -163 -258 c 0
 -162 -275 -161 -293 -161 -313 c 2
 -161 -534 l 1
 -361 -534 l 1
-383 -176 m 0
 -405 -176 -421 -187 -431 -209 c 0
 -434 -218 -436 -227 -436 -236 c 0
 -434 -263 -423 -282 -403 -292 c 0
 -398 -295 -391 -296 -383 -296 c 0
 -355 -296 -341 -275 -341 -233 c 0
 -341 -195 -355 -176 -383 -176 c 0
EndSplineSet
EndChar
StartChar: uni0E39
Encoding: 179 3641 181
OldEncoding: 3641
Width: 0
Flags: HW
AnchorPoint: "BelowBase" -161 -85 mark 0
Fore
-426 -375 m 1
 -310 -375 l 1
 -310 -98 l 1
 -161 -98 l 5
 -161 -504 l 1
 -575 -504 l 1
 -575 -335 l 1
 -583 -343 -593 -348 -606 -349 c 0
 -646 -355 -680 -344 -709 -317 c 1
 -746 -284 -756 -237 -740 -176 c 1
 -731 -145 -710 -118 -677 -97 c 0
 -654 -82 -629 -75 -604 -75 c 0
 -555 -75 -517 -85 -488 -106 c 1
 -453 -133 -433 -175 -428 -232 c 0
 -427 -248 -426 -267 -426 -290 c 2
 -426 -375 l 1
-615 -161 m 0
 -629 -161 -641 -168 -652 -182 c 1
 -659 -193 -663 -205 -663 -218 c 0
 -662 -233 -657 -246 -650 -255 c 0
 -639 -269 -627 -275 -615 -274 c 1
 -601 -274 -590 -268 -582 -257 c 0
 -577 -250 -575 -236 -575 -215 c 0
 -576 -194 -580 -180 -586 -173 c 0
 -593 -165 -603 -161 -615 -161 c 0
EndSplineSet
EndChar
StartChar: uni0E3A
Encoding: 180 3642 182
OldEncoding: 3642
Width: 0
Flags: HW
AnchorPoint: "BelowBase" -158 -65 mark 0
Fore
-246 -60 m 0
 -209 -60 -178 -73 -152 -99 c 0
 -125 -128 -111 -160 -111 -195 c 0
 -111 -232 -125 -263 -152 -289 c 1
 -178 -316 -209 -330 -246 -330 c 0
 -281 -330 -313 -316 -340 -289 c 0
 -367 -262 -380 -231 -380 -195 c 0
 -380 -160 -367 -128 -340 -99 c 1
 -313 -73 -282 -60 -246 -60 c 0
EndSplineSet
EndChar
StartChar: uni0E3F
Encoding: 181 3647 183
OldEncoding: 3647
Width: 1250
Flags: HW
Fore
962 827 m 1
 1058 800 1126 739 1166 644 c 0
 1189 589 1200 527 1200 457 c 0
 1200 314 1149 200 1047 117 c 1
 1005 86 l 1
 921 33 820 5 702 2 c 1
 702 -133 l 1
 541 -133 l 1
 541 0 l 1
 132 0 l 1
 132 1489 l 1
 541 1489 l 1
 541 1595 l 1
 702 1595 l 1
 702 1489 l 1
 893 1486 1021 1430 1086 1323 c 0
 1116 1274 1131 1214 1131 1144 c 0
 1131 1039 1113 963 1078 915 c 0
 1069 904 1060 893 1049 884 c 1
 1019 862 l 1
 1006 854 991 847 976 841 c 0
 971 839 967 837 962 836 c 1
 962 827 l 1
541 916 m 1
 541 1291 l 1
 368 1291 l 1
 368 916 l 1
 541 916 l 1
702 916 m 1
 783 917 836 942 861 992 c 0
 877 1023 885 1067 885 1124 c 0
 885 1200 859 1249 806 1272 c 0
 780 1283 745 1289 702 1291 c 1
 702 916 l 1
541 190 m 1
 541 689 l 1
 368 689 l 1
 368 190 l 1
 541 190 l 1
702 194 m 1
 797 199 867 233 911 298 c 0
 939 339 953 389 953 449 c 0
 952 572 904 647 808 674 c 0
 779 683 743 687 702 687 c 1
 702 194 l 1
EndSplineSet
EndChar
StartChar: uni0E40
Encoding: 182 3648 184
OldEncoding: 3648
Width: 700
Flags: HW
Fore
144 1146 m 1
 364 1146 l 1
 364 364 l 1
 381 383 405 392 435 392 c 0
 454 393 473 389 492 381 c 0
 513 372 531 360 546 345 c 0
 581 311 598 265 598 207 c 0
 599 183 595 159 588 134 c 0
 571 77 536 36 483 11 c 0
 454 -2 422 -9 387 -9 c 0
 338 -8 301 -2 274 10 c 0
 251 21 229 36 206 57 c 0
 169 91 148 157 145 255 c 0
 144 270 144 286 144 304 c 2
 144 1146 l 1
407 111 m 0
 432 111 451 125 464 153 c 0
 470 166 473 180 473 196 c 1
 470 239 456 266 429 277 c 0
 422 280 415 281 407 281 c 0
 376 281 359 261 355 221 c 0
 354 216 354 211 354 205 c 0
 354 142 372 111 407 111 c 0
EndSplineSet
EndChar
StartChar: uni0E41
Encoding: 183 3649 185
OldEncoding: 3649
Width: 1320
Flags: HW
Fore
769 1146 m 1
 989 1146 l 1
 989 364 l 1
 1006 383 1030 392 1060 392 c 0
 1079 393 1098 389 1117 381 c 0
 1138 372 1156 360 1171 345 c 0
 1206 311 1223 265 1223 207 c 0
 1224 183 1220 159 1213 134 c 0
 1196 77 1161 36 1108 11 c 0
 1079 -2 1047 -9 1012 -9 c 0
 963 -8 926 -2 899 10 c 0
 876 21 854 36 831 57 c 0
 794 91 773 157 770 255 c 0
 769 270 769 286 769 304 c 2
 769 1146 l 1
1032 111 m 0
 1057 111 1076 125 1089 153 c 0
 1095 166 1098 180 1098 196 c 1
 1095 239 1081 266 1054 277 c 1
 1034 281 l 1
 1032 281 l 2
 1001 281 984 261 980 221 c 0
 979 216 979 211 979 205 c 0
 979 142 997 111 1032 111 c 0
176 1146 m 1
 396 1146 l 1
 396 364 l 1
 413 383 437 392 467 392 c 0
 486 393 505 389 524 381 c 0
 545 372 563 360 578 345 c 0
 613 311 630 265 630 207 c 0
 631 183 627 159 620 134 c 0
 603 77 568 36 515 11 c 0
 486 -2 454 -9 419 -9 c 0
 370 -8 333 -2 306 10 c 0
 283 21 261 36 238 57 c 0
 201 91 180 157 177 255 c 0
 176 270 176 286 176 304 c 2
 176 1146 l 1
439 111 m 0
 464 111 483 125 496 153 c 0
 502 166 505 180 505 196 c 1
 502 239 488 266 461 277 c 0
 454 280 447 281 439 281 c 0
 408 281 391 261 387 221 c 0
 386 216 386 211 386 205 c 0
 386 142 404 111 439 111 c 0
EndSplineSet
EndChar
StartChar: uni0E42
Encoding: 184 3650 186
OldEncoding: 3650
Width: 1100
Flags: HW
Fore
761 850 m 2
 761 388 l 1
 782 394 803 397 823 397 c 0
 870 397 910 380 943 345 c 0
 978 308 995 262 995 205 c 0
 995 181 992 157 985 134 c 0
 968 77 933 36 880 11 c 0
 851 -2 819 -9 784 -9 c 0
 735 -8 698 -2 671 10 c 0
 648 21 626 36 603 57 c 0
 566 91 545 157 542 255 c 0
 541 270 541 286 541 304 c 2
 541 850 l 2
 541 931 531 987 511 1016 c 0
 467 1083 340 1132 130 1161 c 0
 100 1166 64 1170 21 1175 c 1
 21 1195 38 1240 72 1309 c 0
 84 1334 95 1355 105 1370 c 0
 156 1451 222 1507 303 1539 c 0
 345 1556 385 1564 423 1564 c 0
 432 1564 442 1564 452 1563 c 0
 485 1561 547 1545 636 1516 c 0
 743 1481 821 1464 872 1463 c 0
 950 1463 1011 1483 1056 1524 c 1
 1004 1297 l 1
 948 1267 886 1252 818 1252 c 0
 771 1252 705 1268 621 1301 c 0
 548 1329 498 1344 470 1347 c 1
 435 1347 l 1
 423 1346 412 1343 402 1338 c 0
 386 1330 371 1316 358 1295 c 1
 473 1276 568 1237 644 1177 c 0
 645 1176 647 1174 649 1173 c 0
 704 1130 738 1071 751 998 c 1
 759 930 l 1
 760 907 761 880 761 850 c 2
804 111 m 0
 829 111 848 125 861 153 c 0
 867 166 870 180 870 196 c 1
 867 239 853 266 826 277 c 0
 819 280 812 281 804 281 c 0
 773 281 756 261 752 221 c 0
 751 216 751 211 751 205 c 0
 751 142 769 111 804 111 c 0
EndSplineSet
EndChar
StartChar: uni0E43
Encoding: 185 3651 187
OldEncoding: 3651
Width: 1000
Flags: HW
Fore
494 633 m 2
 494 721 505 788 526 834 c 0
 539 861 555 887 575 910 c 2
 620 962 l 2
 674 1025 706 1078 716 1121 c 0
 719 1134 721 1149 722 1165 c 1
 720 1206 l 1
 712 1260 685 1300 638 1326 c 0
 610 1342 573 1350 528 1350 c 1
 558 1344 582 1317 599 1268 c 1
 611 1225 l 1
 614 1207 616 1190 616 1173 c 0
 616 1158 615 1143 612 1130 c 0
 599 1060 559 1008 492 975 c 0
 447 953 395 942 336 942 c 0
 237 942 163 979 114 1052 c 0
 82 1099 66 1154 66 1217 c 0
 67 1345 123 1439 233 1499 c 0
 288 1530 354 1549 430 1557 c 0
 454 1560 478 1561 501 1561 c 0
 617 1560 716 1531 798 1474 c 0
 819 1459 836 1444 850 1428 c 0
 891 1383 916 1314 925 1222 c 0
 927 1203 928 1185 928 1166 c 0
 927 1083 896 1009 834 942 c 0
 799 903 771 866 750 829 c 2
 742 815 l 2
 724 782 715 739 714 685 c 0
 714 677 714 677 714 633 c 2
 714 388 l 1
 735 394 756 397 776 397 c 0
 823 397 863 380 896 345 c 0
 931 308 948 262 948 205 c 0
 948 181 945 157 938 134 c 0
 921 77 886 36 833 11 c 0
 804 -2 772 -9 737 -9 c 0
 688 -8 651 -2 624 10 c 0
 601 21 579 36 556 57 c 0
 519 91 498 157 495 255 c 0
 494 270 494 286 494 304 c 2
 494 633 l 2
757 111 m 0
 782 111 801 125 814 153 c 0
 820 166 823 180 823 196 c 1
 820 239 806 266 779 277 c 0
 772 280 765 281 757 281 c 0
 726 281 709 261 705 221 c 0
 704 216 704 211 704 205 c 0
 704 142 722 111 757 111 c 0
259 1188 m 0
 261 1134 289 1106 342 1103 c 1
 368 1106 l 1
 399 1113 420 1132 429 1162 c 0
 432 1171 433 1181 433 1190 c 0
 432 1224 416 1248 385 1261 c 1
 360 1268 l 2
 355 1269 350 1269 345 1269 c 0
 307 1269 281 1254 266 1224 c 0
 261 1213 259 1201 259 1188 c 0
EndSplineSet
EndChar
StartChar: uni0E44
Encoding: 186 3652 188
OldEncoding: 3652
Width: 1140
Flags: HW
Fore
629 1194 m 2
 629 1235 617 1256 594 1256 c 0
 579 1256 564 1242 551 1215 c 1
 516 1148 l 1
 476 1082 413 1048 326 1047 c 0
 311 1047 297 1049 283 1052 c 0
 192 1075 119 1180 64 1366 c 0
 59 1385 45 1436 23 1521 c 1
 220 1521 l 1
 252 1408 279 1336 302 1305 c 0
 314 1290 325 1282 336 1282 c 0
 359 1282 381 1302 402 1343 c 1
 455 1454 l 1
 494 1525 542 1564 600 1571 c 0
 608 1572 616 1572 624 1572 c 0
 727 1567 795 1527 828 1450 c 0
 842 1419 849 1382 849 1341 c 2
 849 388 l 1
 870 394 891 397 911 397 c 0
 958 397 998 380 1031 345 c 0
 1066 308 1083 262 1083 205 c 0
 1083 181 1080 157 1073 134 c 0
 1056 77 1021 36 968 11 c 0
 939 -2 907 -9 872 -9 c 0
 823 -8 786 -2 759 10 c 0
 736 21 714 36 691 57 c 0
 653 92 633 162 630 269 c 0
 629 281 629 294 629 308 c 2
 629 1194 l 2
892 111 m 0
 917 111 936 125 949 153 c 0
 955 166 958 180 958 196 c 1
 955 239 941 266 914 277 c 0
 907 280 900 281 892 281 c 0
 861 281 844 261 840 221 c 0
 839 216 839 211 839 205 c 0
 839 142 857 111 892 111 c 0
EndSplineSet
EndChar
StartChar: uni0E45
Encoding: 187 3653 189
OldEncoding: 3653
Width: 1000
Flags: HW
Fore
884 753 m 2
 884 -380 l 1
 664 -380 l 1
 664 729 l 2
 664 810 636 867 579 901 c 0
 548 920 508 929 461 929 c 0
 402 929 348 904 301 853 c 0
 276 826 257 796 246 764 c 1
 48 846 l 1
 81 928 134 998 206 1056 c 0
 283 1118 364 1149 450 1149 c 0
 598 1149 711 1107 789 1022 c 0
 848 958 880 875 884 773 c 0
 884 753 l 2
EndSplineSet
EndChar
StartChar: uni0E46
Encoding: 188 3654 190
OldEncoding: 3654
Width: 1100
Flags: HW
Fore
312 588 m 1
 331 586 l 1
 354 588 373 602 388 628 c 0
 393 637 397 645 398 652 c 1
 399 691 l 1
 396 719 382 739 357 750 c 0
 351 753 345 754 340 754 c 1
 324 751 l 1
 315 746 307 738 300 727 c 0
 293 715 286 700 281 681 c 0
 278 666 276 653 276 642 c 0
 276 614 288 596 312 588 c 1
969 -380 m 1
 763 -380 l 1
 763 771 l 2
 763 800 751 837 728 880 c 1
 718 901 707 917 695 929 c 1
 599 857 498 857 392 929 c 1
 373 903 362 882 357 866 c 0
 356 865 356 863 356 862 c 1
 435 862 488 827 515 756 c 0
 525 729 530 702 530 674 c 0
 530 611 509 558 467 516 c 0
 428 477 379 457 318 457 c 0
 309 457 301 457 292 458 c 0
 224 464 173 500 138 567 c 0
 117 608 106 654 106 703 c 0
 106 716 107 729 108 741 c 0
 119 821 134 882 153 923 c 0
 165 948 181 974 200 999 c 0
 238 1048 285 1090 341 1124 c 0
 360 1135 377 1144 392 1149 c 1
 551 1041 l 1
 695 1149 l 1
 740 1137 783 1112 825 1073 c 1
 849 1049 l 2
 888 1011 919 959 944 894 c 0
 961 850 969 809 969 771 c 2
 969 -380 l 1
EndSplineSet
EndChar
StartChar: uni0E47
Encoding: 189 3655 191
OldEncoding: 3655
Width: 0
Flags: HW
AnchorPoint: "AboveMark" -663 1227 mark 0
AnchorPoint: "AboveBase" -310 1227 mark 0
Fore
-455 1562 m 1
 -472 1561 -483 1553 -490 1538 c 1
 -493 1522 l 1
 -493 1521 l 1
 -492 1504 -482 1493 -463 1488 c 1
 -450 1487 l 1
 -432 1488 -420 1495 -414 1510 c 0
 -413 1514 -412 1518 -412 1523 c 0
 -412 1540 -421 1552 -438 1559 c 1
 -455 1562 l 1
-527 1434 m 1
 -559 1454 -575 1483 -576 1522 c 0
 -576 1533 -574 1544 -571 1553 c 0
 -556 1596 -524 1623 -476 1633 c 0
 -469 1634 -461 1635 -453 1636 c 1
 -415 1634 l 1
 -366 1627 -332 1605 -313 1566 c 0
 -300 1539 -293 1509 -293 1476 c 0
 -293 1447 -298 1420 -308 1395 c 0
 -333 1334 -376 1298 -436 1287 c 0
 -447 1285 -458 1284 -469 1284 c 0
 -544 1284 -608 1300 -661 1333 c 2
 -710 1362 l 1
 -725 1369 -740 1372 -755 1372 c 0
 -776 1372 -787 1354 -789 1318 c 0
 -790 1296 -793 1285 -796 1284 c 0
 -895 1284 -965 1320 -1006 1393 c 0
 -1026 1428 -1036 1467 -1036 1510 c 0
 -1036 1529 -1034 1546 -1030 1563 c 0
 -1010 1640 -968 1696 -904 1730 c 0
 -887 1739 -869 1746 -850 1751 c 1
 -821 1761 -763 1768 -676 1773 c 0
 -584 1779 -519 1791 -482 1809 c 0
 -444 1828 -419 1856 -408 1894 c 1
 -226 1894 l 1
 -231 1844 -259 1793 -312 1741 c 0
 -356 1698 -400 1671 -444 1660 c 0
 -468 1653 -527 1646 -622 1637 c 0
 -725 1628 -793 1612 -825 1589 c 0
 -844 1576 -855 1559 -858 1538 c 1
 -861 1511 l 1
 -861 1509 -861 1507 -860 1506 c 0
 -859 1502 -856 1495 -850 1486 c 1
 -832 1521 -806 1539 -773 1539 c 0
 -766 1539 -759 1538 -752 1536 c 0
 -720 1528 -691 1513 -664 1492 c 0
 -621 1459 -593 1439 -580 1434 c 0
 -568 1429 -558 1427 -551 1427 c 1
 -534 1430 l 1
 -531 1431 -529 1433 -527 1434 c 1
EndSplineSet
EndChar
StartChar: uni0E48
Encoding: 190 3656 192
OldEncoding: 3656
Width: 0
Flags: HW
AnchorPoint: "AboveMark" -262 1740 mark 0
Fore
-378 2106 m 1
 -147 2106 l 1
 -147 1826 l 5
 -378 1826 l 1
 -378 2106 l 1
EndSplineSet
Substitution: 0 65534 'loww' uni0E48.low
Substitution: 0 65534 'amni' uni0E4D
EndChar
StartChar: uni0E49
Encoding: 191 3657 193
OldEncoding: 3657
Width: 0
Flags: HW
AnchorPoint: "AboveMark" -286 1740 mark 0
Fore
66 2156 m 1
 33 2021 -52 1910 -188 1825 c 0
 -274 1770 -373 1734 -485 1716 c 0
 -516 1711 -551 1707 -592 1703 c 1
 -592 1810 l 1
 -547 1821 -518 1840 -506 1867 c 0
 -503 1872 -501 1878 -500 1885 c 1
 -514 1880 -528 1878 -543 1878 c 0
 -563 1877 -582 1882 -600 1891 c 1
 -624 1906 l 2
 -629 1910 -634 1915 -639 1920 c 0
 -666 1950 -680 1987 -680 2030 c 1
 -677 2080 -656 2119 -617 2146 c 0
 -594 2161 -568 2169 -540 2170 c 1
 -501 2167 l 1
 -446 2158 -405 2131 -376 2087 c 1
 -361 2057 l 1
 -352 2025 l 1
 -350 2009 l 1
 -351 1966 l 1
 -360 1925 l 1
 -364 1915 l 1
 -311 1926 -263 1953 -218 1994 c 0
 -201 2010 -185 2027 -172 2046 c 0
 -147 2081 -129 2117 -116 2156 c 1
 66 2156 l 1
-528 1966 m 0
 -508 1966 -493 1975 -482 1994 c 0
 -477 2002 -475 2011 -475 2020 c 0
 -475 2039 -484 2054 -503 2065 c 0
 -511 2070 -519 2073 -528 2073 c 0
 -550 2073 -566 2063 -576 2044 c 1
 -582 2026 l 2
 -583 2024 -583 2022 -583 2020 c 0
 -583 1997 -572 1980 -551 1970 c 0
 -544 1967 -536 1966 -528 1966 c 0
EndSplineSet
Substitution: 0 65534 'loww' uni0E49.low
Substitution: 0 65534 'amni' uni0E4D
EndChar
StartChar: uni0E4A
Encoding: 192 3658 194
OldEncoding: 3658
Width: 0
Flags: HW
AnchorPoint: "AboveMark" -458 1740 mark 0
Fore
-598 1798 m 0
 -603 1822 -614 1835 -630 1837 c 1
 -642 1836 l 1
 -661 1831 -673 1821 -678 1806 c 1
 -679 1794 l 1
 -673 1769 -660 1756 -640 1756 c 0
 -623 1756 -611 1764 -602 1780 c 0
 -599 1785 -597 1791 -598 1798 c 0
-153 1918 m 1
 -55 2169 l 1
 125 2169 l 2
 124 2169 81 2057 -4 1832 c 0
 -37 1747 -120 1695 -254 1677 c 0
 -277 1674 -301 1672 -325 1672 c 1
 -300 1711 -287 1754 -287 1802 c 0
 -287 1861 -304 1911 -337 1950 c 1
 -346 1961 -355 1970 -365 1976 c 1
 -507 1858 l 1
 -606 1946 l 1
 -646 1975 l 1
 -647 1976 l 1
 -671 1967 -690 1949 -704 1922 c 0
 -706 1919 -707 1915 -708 1912 c 0
 -710 1906 -712 1897 -713 1886 c 1
 -692 1905 -666 1914 -635 1914 c 0
 -587 1914 -554 1893 -536 1851 c 0
 -533 1843 -530 1835 -528 1826 c 1
 -525 1793 l 1
 -526 1750 -543 1717 -577 1694 c 0
 -582 1691 -587 1689 -592 1686 c 0
 -616 1674 -644 1668 -677 1668 c 0
 -705 1668 -731 1672 -754 1681 c 0
 -803 1700 -838 1738 -858 1795 c 0
 -867 1822 -872 1851 -872 1882 c 0
 -872 1891 -872 1899 -871 1908 c 0
 -867 1972 -832 2031 -766 2086 c 0
 -729 2116 -690 2139 -647 2154 c 1
 -507 2036 l 1
 -365 2154 l 1
 -299 2132 -245 2096 -202 2046 c 0
 -169 2007 -152 1969 -152 1931 c 1
 -153 1918 l 1
EndSplineSet
Substitution: 0 65534 'loww' uni0E4A.low
Substitution: 0 65534 'amni' uni0E4D
EndChar
StartChar: uni0E4B
Encoding: 193 3659 195
OldEncoding: 3659
Width: 0
Flags: HW
AnchorPoint: "AboveMark" -373 1640 mark 0
Fore
-164 1793 m 1
 -287 1793 l 1
 -287 1670 l 1
 -459 1670 l 1
 -459 1793 l 1
 -590 1793 l 1
 -590 1967 l 1
 -459 1967 l 1
 -459 2096 l 1
 -287 2096 l 1
 -287 1967 l 1
 -164 1967 l 1
 -164 1793 l 1
EndSplineSet
Substitution: 0 65534 'loww' uni0E4B.low
Substitution: 0 65534 'amni' uni0E4D
EndChar
StartChar: uni0E4C
Encoding: 194 3660 196
OldEncoding: 3660
Width: 0
Flags: HW
AnchorPoint: "AboveMark" -415 1740 mark 0
Fore
52 2169 m 1
 32 2114 -10 2060 -74 2009 c 0
 -119 1974 -168 1947 -222 1930 c 0
 -243 1923 -262 1919 -280 1918 c 1
 -246 1901 -223 1867 -212 1817 c 5
 -210 1789 l 1
 -211 1764 -221 1734 -240 1699 c 0
 -260 1662 -298 1637 -355 1625 c 0
 -367 1623 -379 1622 -390 1621 c 1
 -433 1624 l 1
 -490 1633 -533 1651 -563 1680 c 2
 -566 1683 l 2
 -597 1716 -614 1756 -618 1805 c 1
 -618 1831 l 1
 -613 1891 -591 1937 -554 1969 c 0
 -520 1998 -455 2023 -358 2044 c 0
 -316 2053 -290 2060 -280 2063 c 0
 -232 2079 -191 2102 -157 2133 c 0
 -144 2146 -134 2158 -128 2169 c 1
 52 2169 l 1
-412 1857 m 0
 -441 1857 -461 1846 -474 1824 c 0
 -479 1815 -482 1804 -482 1793 c 0
 -482 1777 -474 1763 -458 1750 c 0
 -444 1739 -427 1733 -408 1733 c 1
 -376 1738 -355 1752 -346 1775 c 0
 -343 1782 -342 1788 -342 1795 c 0
 -342 1824 -356 1843 -383 1852 c 0
 -392 1855 -401 1857 -412 1857 c 0
EndSplineSet
Substitution: 0 65534 'loww' uni0E4C.low
EndChar
StartChar: uni0E4D
Encoding: 195 3661 197
OldEncoding: 3661
Width: 0
Flags: HW
AnchorPoint: "AboveMark" -261 1740 basemark 0
AnchorPoint: "AboveMark" -261 1227 mark 0
AnchorPoint: "AboveBase" -105 1227 mark 0
Fore
-261 1522 m 4
 -218 1522 -181 1507 -150 1476 c 1
 -120 1444 -105 1406 -105 1362 c 0
 -105 1319 -120 1283 -150 1252 c 0
 -181 1221 -218 1206 -261 1206 c 0
 -304 1206 -341 1221 -372 1252 c 0
 -403 1283 -419 1319 -419 1362 c 0
 -419 1406 -403 1444 -372 1476 c 0
 -341 1507 -304 1522 -261 1522 c 4
-261 1310 m 0
 -238 1310 -222 1320 -212 1340 c 0
 -209 1347 -207 1354 -207 1362 c 0
 -207 1384 -217 1400 -237 1410 c 0
 -244 1413 -252 1415 -261 1415 c 0
 -284 1415 -300 1405 -310 1385 c 1
 -315 1366 l 1
 -315 1362 l 2
 -315 1340 -305 1324 -284 1315 c 0
 -277 1312 -269 1310 -261 1310 c 0
EndSplineSet
Substitution: 0 65534 'G007' uni0E4B
Substitution: 0 65534 'G006' uni0E4A
Substitution: 0 65534 'G005' uni0E49
Substitution: 0 65534 'G004' uni0E48
EndChar
StartChar: uni0E4E
Encoding: 196 3662 198
OldEncoding: 3662
Width: 0
Flags: HW
AnchorPoint: "AboveBase" -135 1227 mark 0
Fore
-102 1885 m 1
 -161 1900 -217 1908 -270 1909 c 1
 -307 1907 l 1
 -334 1902 -348 1888 -348 1866 c 0
 -348 1839 -329 1820 -292 1810 c 0
 -276 1806 -258 1804 -238 1804 c 2
 -168 1804 l 1
 -168 1675 l 1
 -233 1675 l 2
 -311 1675 -353 1659 -360 1627 c 0
 -361 1624 -361 1620 -361 1617 c 1
 -358 1605 l 1
 -345 1584 -306 1572 -240 1567 c 0
 -230 1566 -221 1566 -213 1566 c 2
 -135 1566 l 1
 -135 1444 l 5
 -219 1444 l 2
 -319 1444 -398 1461 -456 1495 c 128
 -514 1529 -543 1569 -543 1616 c 0
 -543 1655 -524 1691 -486 1722 c 0
 -473 1732 -461 1739 -450 1744 c 1
 -487 1769 -509 1804 -516 1850 c 1
 -518 1884 l 1
 -515 1929 -495 1964 -456 1991 c 0
 -413 2021 -354 2036 -279 2036 c 0
 -223 2036 -164 2028 -102 2013 c 1
 -102 1885 l 1
EndSplineSet
EndChar
StartChar: uni0E4F
Encoding: 197 3663 199
OldEncoding: 3663
Width: 1250
Flags: HW
Fore
617 852 m 0
 525 852 445 818 380 751 c 1
 314 684 280 603 280 507 c 0
 280 413 314 332 380 264 c 0
 445 197 525 163 617 163 c 0
 711 163 790 197 857 264 c 1
 922 332 955 413 955 507 c 0
 955 603 922 684 857 751 c 0
 790 818 711 852 617 852 c 0
617 406 m 0
 646 406 670 416 688 435 c 0
 706 454 716 478 716 508 c 0
 716 537 706 562 688 581 c 0
 670 600 646 609 617 609 c 0
 589 609 566 600 547 581 c 0
 529 562 520 537 520 508 c 0
 520 478 529 454 547 435 c 0
 566 416 589 406 617 406 c 0
616 1040 m 0
 760 1040 883 988 985 884 c 0
 1086 780 1137 655 1137 509 c 0
 1137 363 1086 238 985 134 c 1
 883 30 760 -21 616 -21 c 0
 473 -21 351 30 250 134 c 0
 148 238 97 363 97 509 c 0
 97 655 148 780 250 884 c 1
 351 988 473 1040 616 1040 c 0
616 258 m 0
 542 258 482 282 434 330 c 0
 387 377 363 438 363 511 c 0
 363 584 387 644 434 692 c 0
 482 739 542 763 616 763 c 0
 690 763 751 739 798 692 c 0
 846 644 870 584 870 511 c 0
 870 438 846 377 798 330 c 0
 751 282 690 258 616 258 c 0
EndSplineSet
EndChar
StartChar: uni0E50
Encoding: 198 3664 200
OldEncoding: 3664
Width: 1250
Flags: HW
Fore
624 230 m 0
 692 230 749 255 794 305 c 0
 833 348 853 399 853 458 c 0
 853 529 827 586 774 631 c 0
 731 668 681 686 624 686 c 0
 557 685 501 660 458 610 c 1
 436 580 l 1
 414 543 403 503 403 458 c 0
 403 385 429 327 480 282 c 0
 520 247 568 230 624 230 c 0
622 -10 m 0
 499 -10 393 28 305 105 c 0
 216 183 165 283 153 405 c 0
 151 422 150 440 150 458 c 0
 150 581 190 686 270 773 c 0
 351 860 454 910 581 922 c 0
 594 923 608 924 622 924 c 2
 687 921 l 1
 818 908 923 853 1003 756 c 0
 1071 674 1107 581 1112 477 c 0
 1112 467 1112 467 1112 458 c 0
 1112 343 1072 241 993 153 c 0
 916 68 821 16 707 -3 c 0
 679 -8 651 -10 622 -10 c 0
EndSplineSet
EndChar
StartChar: uni0E51
Encoding: 199 3665 201
OldEncoding: 3665
Width: 1300
Flags: HW
Fore
878 524 m 0
 850 656 768 722 633 722 c 2
 626 722 l 2
 539 721 482 685 456 616 c 0
 447 591 442 567 442 544 c 0
 442 521 447 497 458 474 c 0
 476 435 500 415 530 414 c 0
 540 414 549 417 558 422 c 1
 523 440 501 472 492 518 c 1
 489 550 l 1
 490 600 512 638 553 663 c 0
 563 669 574 674 585 677 c 0
 606 684 628 687 653 687 c 0
 681 687 707 683 730 675 c 0
 766 664 796 638 820 599 c 0
 829 584 835 569 839 553 c 1
 849 521 854 491 854 462 c 0
 854 427 846 393 831 360 c 0
 795 281 734 231 649 211 c 0
 625 206 599 203 572 203 c 0
 473 203 387 236 315 302 c 0
 294 322 275 344 259 367 c 0
 229 412 214 474 213 552 c 1
 217 609 l 1
 222 643 230 672 242 697 c 0
 307 829 414 904 561 921 c 0
 583 924 605 925 627 925 c 0
 742 924 844 893 931 832 c 0
 972 803 1006 770 1031 733 c 0
 1035 727 1039 721 1042 715 c 0
 1083 644 1104 560 1104 463 c 0
 1104 347 1075 250 1017 172 c 0
 1014 167 1010 163 1007 159 c 0
 932 66 818 12 665 -4 c 0
 634 -7 604 -9 574 -9 c 0
 433 -8 317 23 226 84 c 0
 211 93 198 104 185 115 c 1
 282 292 l 1
 341 245 396 213 449 197 c 0
 482 188 518 181 558 178 c 1
 614 178 l 1
 699 183 764 213 810 270 c 0
 860 331 885 395 885 463 c 0
 885 483 883 503 878 524 c 0
585 545 m 0
 585 520 596 503 618 492 c 0
 627 487 636 485 647 485 c 0
 678 485 698 500 706 529 c 0
 708 535 709 541 709 548 c 0
 709 569 698 585 676 596 c 0
 667 601 656 603 645 603 c 0
 618 602 600 591 590 568 c 0
 587 561 585 553 585 545 c 0
EndSplineSet
EndChar
StartChar: uni0E52
Encoding: 200 3666 202
OldEncoding: 3666
Width: 1350
Flags: HW
Fore
600 513 m 0
 600 490 610 474 631 465 c 0
 638 462 645 461 653 461 c 0
 679 461 696 473 704 496 c 0
 706 502 707 509 707 516 c 0
 707 537 696 552 674 559 c 0
 667 562 659 563 651 563 c 0
 626 562 610 551 602 530 c 0
 601 525 600 519 600 513 c 0
545 0 m 1
 428 7 341 54 286 141 c 0
 257 187 239 242 232 307 c 1
 208 611 l 1
 187 801 143 975 75 1134 c 1
 309 1134 l 1
 369 979 410 788 433 560 c 0
 444 438 452 363 457 334 c 0
 465 284 488 250 525 231 c 0
 534 226 544 223 555 221 c 0
 574 218 598 216 627 216 c 2
 1004 217 l 1
 1004 506 l 2
 1004 566 992 620 967 667 c 0
 958 684 948 695 936 702 c 1
 936 701 901 678 832 632 c 1
 718 702 l 1
 712 696 707 687 703 674 c 1
 730 668 757 651 782 624 c 1
 807 599 822 565 825 523 c 2
 826 511 l 1
 826 469 811 430 780 394 c 0
 751 360 711 343 659 343 c 0
 576 343 519 369 489 420 c 0
 467 458 456 513 456 586 c 1
 459 664 482 732 526 790 c 0
 548 819 586 851 639 885 c 0
 669 904 695 917 718 924 c 1
 718 923 756 892 832 831 c 1
 936 924 l 1
 996 908 1055 867 1112 801 c 0
 1147 760 1172 719 1187 679 c 0
 1205 631 1214 573 1214 506 c 2
 1214 0 l 1
 545 0 l 1
EndSplineSet
EndChar
StartChar: uni0E53
Encoding: 201 3667 203
OldEncoding: 3667
Width: 1400
Flags: HW
Fore
321 138 m 1
 328 115 346 104 374 104 c 2
 388 105 l 1
 415 112 428 127 428 151 c 0
 428 176 416 192 393 197 c 1
 372 198 l 1
 367 197 363 196 359 195 c 0
 338 190 325 176 322 153 c 1
 321 138 l 1
191 108 m 0
 140 219 107 337 92 460 c 0
 88 495 86 529 86 561 c 0
 86 743 150 857 279 903 c 0
 316 916 357 923 403 924 c 1
 460 922 l 1
 544 913 613 884 668 835 c 0
 683 822 695 807 705 792 c 1
 735 849 787 888 861 909 c 0
 894 919 930 924 967 924 c 0
 1188 924 1299 778 1299 487 c 0
 1300 408 1291 318 1274 217 c 0
 1263 150 1248 77 1229 0 c 1
 1000 0 l 1
 1037 166 1055 304 1055 415 c 0
 1055 557 1023 628 960 628 c 0
 886 628 839 589 819 510 c 0
 808 470 803 409 803 326 c 1
 804 216 l 1
 600 216 l 1
 600 327 599 393 598 414 c 0
 589 531 555 601 496 625 c 0
 479 632 459 636 436 636 c 0
 360 636 322 593 321 506 c 0
 321 486 323 464 327 439 c 0
 333 406 343 369 356 328 c 1
 368 331 380 333 392 333 c 0
 411 334 430 330 449 321 c 0
 462 315 473 308 483 300 c 0
 528 263 551 218 551 163 c 0
 551 48 481 -10 341 -10 c 1
 276 -3 227 33 196 96 c 0
 195 100 193 104 191 108 c 0
EndSplineSet
EndChar
StartChar: uni0E54
Encoding: 202 3668 204
OldEncoding: 3668
Width: 1550
Flags: HW
Fore
1510 1262 m 1
 1507 1164 1474 1063 1412 960 c 0
 1380 905 1346 862 1310 830 c 0
 1216 746 1087 704 924 704 c 2
 664 704 l 2
 513 704 421 659 388 568 c 0
 377 539 372 503 372 462 c 0
 372 411 393 360 436 311 c 1
 484 260 534 233 585 231 c 1
 634 231 734 252 887 295 c 0
 909 301 l 1
 882 322 861 344 846 368 c 0
 824 403 813 433 813 459 c 0
 813 533 834 590 876 631 c 0
 919 672 972 692 1036 692 c 0
 1100 692 1149 675 1182 642 c 1
 1219 603 1239 555 1240 500 c 1
 1240 442 1222 394 1187 357 c 0
 1160 329 1127 314 1088 313 c 1
 1115 302 1147 294 1184 289 c 0
 1194 288 1203 286 1210 284 c 0
 1277 267 1344 230 1410 173 c 1
 1253 -2 l 1
 1227 22 1198 41 1166 55 c 0
 1135 69 1089 76 1030 76 c 0
 987 76 924 64 841 40 c 0
 735 9 648 -6 580 -6 c 0
 454 -6 347 40 259 132 c 128
 171 224 127 336 127 469 c 0
 127 618 177 731 277 808 c 128
 377 885 509 924 672 924 c 2
 918 924 l 2
 1130 924 1250 1037 1278 1262 c 1
 1510 1262 l 1
1036 424 m 0
 1055 424 1071 431 1085 444 c 0
 1098 456 1105 471 1105 489 c 0
 1105 508 1098 524 1085 538 c 1
 1072 551 1055 557 1036 557 c 0
 1017 557 1001 550 988 537 c 0
 975 524 969 508 969 489 c 0
 969 471 975 456 988 444 c 0
 1001 431 1017 424 1036 424 c 0
EndSplineSet
EndChar
StartChar: uni0E55
Encoding: 203 3669 205
OldEncoding: 3669
Width: 1550
Flags: HW
Fore
618 922 m 1
 607 948 602 973 602 997 c 0
 602 1049 621 1093 658 1130 c 0
 695 1167 740 1186 793 1186 c 0
 845 1186 890 1167 927 1130 c 0
 964 1093 983 1049 983 997 c 0
 983 970 978 947 969 926 c 1
 1150 945 1253 1057 1278 1262 c 1
 1510 1262 l 1
 1507 1164 1474 1063 1412 960 c 0
 1380 905 1346 862 1310 830 c 0
 1216 746 1087 704 924 704 c 2
 664 704 l 2
 513 704 421 659 388 568 c 0
 377 539 372 503 372 462 c 0
 372 411 393 360 436 311 c 1
 484 260 534 233 585 231 c 1
 634 231 734 252 887 295 c 0
 909 301 l 1
 882 322 861 344 846 368 c 0
 824 403 813 433 813 459 c 0
 813 533 834 590 876 631 c 0
 919 672 972 692 1036 692 c 0
 1100 692 1149 675 1182 642 c 1
 1219 603 1239 555 1240 500 c 1
 1240 442 1222 394 1187 357 c 0
 1160 329 1127 314 1088 313 c 1
 1115 302 1147 294 1184 289 c 0
 1194 288 1203 286 1210 284 c 0
 1277 267 1344 230 1410 173 c 1
 1253 -2 l 1
 1227 22 1198 41 1166 55 c 0
 1135 69 1089 76 1030 76 c 0
 987 76 924 64 841 40 c 0
 735 9 648 -6 580 -6 c 0
 454 -6 347 40 259 132 c 128
 171 224 127 336 127 469 c 0
 127 618 177 731 277 808 c 0
 364 875 478 913 618 922 c 1
1036 424 m 0
 1055 424 1071 431 1085 444 c 0
 1098 456 1105 471 1105 489 c 0
 1105 508 1098 524 1085 538 c 1
 1072 551 1055 557 1036 557 c 0
 1017 557 1001 550 988 537 c 0
 975 524 969 508 969 489 c 0
 969 471 975 456 988 444 c 0
 1001 431 1017 424 1036 424 c 0
793 937 m 0
 809 937 823 943 836 955 c 0
 848 966 854 979 854 995 c 0
 854 1013 848 1028 836 1039 c 0
 824 1051 810 1057 793 1057 c 0
 776 1057 761 1051 749 1039 c 0
 736 1028 730 1013 730 995 c 0
 730 979 736 966 749 955 c 1
 761 943 776 937 793 937 c 0
EndSplineSet
EndChar
StartChar: uni0E56
Encoding: 204 3670 206
OldEncoding: 3670
Width: 1300
Flags: HW
Fore
477 900 m 1
 538 916 585 925 618 927 c 0
 629 928 641 928 653 928 c 0
 813 928 943 883 1044 792 c 0
 1145 702 1196 583 1196 436 c 0
 1196 301 1150 191 1059 108 c 0
 968 25 854 -16 719 -16 c 0
 608 -16 515 20 440 91 c 0
 365 162 328 245 328 338 c 0
 328 413 349 474 392 522 c 0
 435 570 488 594 551 594 c 0
 603 594 648 575 685 538 c 0
 722 501 741 457 741 406 c 0
 741 356 724 313 690 276 c 0
 679 263 666 253 651 244 c 1
 658 223 680 211 716 207 c 0
 721 206 727 206 732 206 c 0
 819 206 885 234 929 289 c 0
 960 327 975 374 975 429 c 0
 975 557 920 642 809 683 c 1
 759 697 l 1
 726 704 691 708 653 708 c 0
 540 708 439 689 348 650 c 1
 232 930 129 1124 38 1232 c 0
 29 1243 21 1253 12 1262 c 1
 315 1262 l 1
 396 1135 450 1014 477 900 c 1
553 344 m 0
 570 344 585 350 597 362 c 1
 610 373 617 386 617 402 c 0
 617 420 611 435 598 447 c 0
 585 459 570 465 553 465 c 0
 536 465 521 459 508 446 c 1
 495 435 489 420 489 402 c 0
 489 386 495 373 508 362 c 1
 521 350 536 344 553 344 c 0
EndSplineSet
EndChar
StartChar: uni0E57
Encoding: 205 3671 207
OldEncoding: 3671
Width: 1540
Flags: HW
Fore
1417 334 m 2
 1417 111 1297 -0 1057 0 c 2
 771 0 l 1
 771 10 l 1
 798 53 822 117 845 203 c 0
 868 289 879 367 879 436 c 0
 879 583 852 657 799 657 c 0
 761 657 736 643 724 614 c 0
 713 589 708 543 708 477 c 0
 708 467 l 1
 492 467 l 1
 487 550 479 602 468 624 c 0
 461 636 453 645 442 650 c 1
 421 656 l 2
 416 657 411 657 406 657 c 0
 372 657 351 632 342 582 c 1
 337 520 l 1
 336 504 336 479 336 445 c 0
 336 408 340 379 347 358 c 1
 359 363 373 366 389 366 c 0
 393 366 393 366 400 366 c 0
 450 364 493 344 530 306 c 0
 566 268 584 223 584 172 c 0
 584 120 565 76 528 39 c 0
 490 2 445 -16 393 -16 c 0
 310 -16 245 23 198 101 c 0
 151 179 127 291 127 436 c 0
 127 695 189 850 313 903 c 0
 340 915 371 922 406 924 c 1
 454 923 l 1
 524 916 573 884 602 825 c 1
 626 891 687 924 785 924 c 0
 799 924 l 0
 928 921 1015 847 1062 704 c 0
 1081 646 1093 578 1097 499 c 0
 1098 478 1098 457 1098 436 c 0
 1098 358 1095 303 1090 271 c 0
 1087 254 1082 235 1077 216 c 1
 1092 216 l 2
 1135 216 1163 239 1178 285 c 0
 1183 301 1185 319 1185 338 c 2
 1185 1130 l 1
 1417 1130 l 1
 1417 334 l 2
393 109 m 0
 417 109 435 120 446 141 c 0
 451 151 454 162 454 173 c 0
 454 196 444 214 423 225 c 0
 414 231 404 234 393 234 c 0
 370 234 352 224 340 203 c 0
 335 194 332 184 332 173 c 0
 332 147 343 128 364 116 c 0
 373 111 383 109 393 109 c 0
EndSplineSet
EndChar
StartChar: uni0E58
Encoding: 206 3672 208
OldEncoding: 3672
Width: 1580
Flags: HW
Fore
1518 1263 m 1
 1516 1195 l 1
 1507 1088 1479 990 1430 902 c 0
 1406 860 1380 827 1353 804 c 0
 1292 753 1182 719 1023 702 c 0
 987 699 l 0
 962 697 881 695 744 692 c 0
 632 690 538 671 462 636 c 0
 433 623 411 598 396 562 c 0
 386 537 381 509 381 478 c 0
 381 462 l 0
 384 411 406 369 449 336 c 0
 470 320 493 310 516 306 c 1
 516 351 525 390 543 423 c 0
 547 430 547 430 552 438 c 0
 575 475 615 500 672 511 c 0
 687 514 702 516 717 516 c 0
 752 516 787 506 824 487 c 0
 860 468 908 424 967 354 c 0
 1037 273 1037 273 1042 267 c 0
 1076 232 1114 215 1157 215 c 0
 1181 216 1198 229 1208 255 c 0
 1211 263 1213 271 1213 280 c 0
 1213 293 1209 302 1202 309 c 1
 1149 309 1104 328 1068 366 c 0
 1032 403 1014 448 1014 500 c 0
 1014 551 1033 595 1070 632 c 0
 1107 669 1152 688 1204 688 c 0
 1279 688 1340 660 1387 603 c 0
 1434 546 1458 472 1458 381 c 0
 1458 258 1430 161 1374 92 c 0
 1318 23 1245 -12 1155 -12 c 0
 1110 -12 1064 1 1017 28 c 0
 970 54 911 110 840 196 c 0
 792 254 760 283 743 283 c 0
 714 283 700 236 700 141 c 2
 700 0 l 1
 575 0 l 2
 446 0 339 45 254 134 c 0
 169 223 127 335 127 469 c 0
 127 615 177 728 277 808 c 0
 354 869 466 906 613 917 c 0
 629 918 705 921 842 925 c 0
 969 929 1061 944 1119 971 c 0
 1216 1015 1268 1102 1277 1232 c 0
 1278 1242 1278 1252 1278 1262 c 1
 1518 1263 l 1
1204 424 m 0
 1234 424 1256 437 1270 462 c 0
 1277 473 1280 485 1280 498 c 0
 1280 529 1267 552 1241 566 c 1
 1219 574 l 1
 1204 575 l 2
 1173 575 1151 562 1137 535 c 1
 1129 513 l 1
 1128 508 1128 503 1128 498 c 0
 1128 469 1141 448 1166 434 c 0
 1177 427 1190 424 1204 424 c 0
EndSplineSet
EndChar
StartChar: uni0E59
Encoding: 207 3673 209
OldEncoding: 3673
Width: 1500
Flags: HW
Fore
1414 1130 m 1
 1414 985 1397 845 1363 708 c 0
 1356 678 1348 653 1341 633 c 0
 1310 548 1261 495 1195 475 c 0
 1179 470 1163 468 1146 468 c 0
 1084 468 1038 479 1009 501 c 0
 999 508 989 518 978 530 c 1
 925 598 l 1
 913 611 901 617 888 618 c 1
 865 616 l 1
 848 608 l 1
 834 599 822 580 812 552 c 1
 1029 0 l 1
 802 0 l 1
 598 477 l 1
 581 518 566 549 553 569 c 0
 532 600 503 615 464 615 c 0
 424 615 393 598 371 564 c 1
 354 535 l 1
 343 511 337 478 337 435 c 0
 337 406 340 379 346 356 c 1
 355 361 362 363 367 363 c 2
 395 362 l 2
 449 362 494 343 530 306 c 0
 566 268 584 223 584 172 c 0
 584 120 565 76 528 39 c 0
 490 2 445 -16 393 -16 c 0
 310 -16 245 23 198 101 c 0
 151 179 127 291 127 436 c 0
 127 593 156 714 214 798 c 0
 273 882 357 924 467 924 c 0
 570 924 649 875 702 776 c 1
 745 875 802 924 874 924 c 0
 899 924 923 916 946 900 c 128
 970 884 999 849 1033 794 c 0
 1056 757 1081 738 1108 738 c 0
 1114 738 l 0
 1149 744 1173 812 1188 943 c 0
 1193 994 1198 1056 1202 1130 c 1
 1414 1130 l 1
392 107 m 0
 409 107 424 113 435 126 c 1
 448 139 454 154 454 173 c 0
 454 190 448 205 435 218 c 0
 424 230 409 236 392 236 c 0
 375 236 361 230 350 218 c 0
 337 205 331 190 331 173 c 0
 331 154 337 139 349 126 c 0
 361 113 375 107 392 107 c 0
EndSplineSet
EndChar
StartChar: uni0E5A
Encoding: 208 3674 210
OldEncoding: 3674
Width: 1400
Flags: HW
Fore
1025 1149 m 1
 1025 0 l 1
 805 0 l 1
 805 776 l 1
 762 722 687 687 581 672 c 0
 550 667 519 665 487 665 c 0
 390 665 309 683 243 719 c 0
 199 743 166 782 143 836 c 0
 132 861 126 887 125 914 c 1
 127 958 l 1
 135 1023 164 1074 214 1110 c 0
 240 1129 269 1140 300 1144 c 1
 347 1147 l 1
 422 1146 481 1117 523 1061 c 1
 525 1057 527 1053 530 1050 c 0
 542 1031 548 1005 548 972 c 0
 549 944 544 918 535 895 c 0
 530 880 523 869 514 860 c 1
 549 857 l 1
 598 858 641 871 678 895 c 0
 681 896 683 898 686 900 c 0
 745 943 783 1011 799 1103 c 0
 802 1118 804 1133 805 1149 c 1
 1025 1149 l 1
260 958 m 1
 262 936 l 1
 267 911 283 896 309 890 c 0
 314 889 319 889 324 889 c 0
 349 889 369 899 384 920 c 0
 392 932 396 945 396 958 c 0
 396 981 385 1000 364 1013 c 0
 353 1020 342 1023 330 1023 c 0
 296 1023 274 1008 264 978 c 1
 260 958 l 1
1284 0 m 1
 1065 0 l 1
 1065 1149 l 1
 1284 1149 l 1
 1284 0 l 1
EndSplineSet
EndChar
StartChar: uni0E5B
Encoding: 209 3675 211
OldEncoding: 3675
Width: 2370
Flags: HW
Fore
1776 300 m 0
 1732 300 1706 94 1600 94 c 0
 1508 94 1506 304 1452 304 c 0
 1407 304 1397 88 1292 88 c 0
 1175 88 1170 208 1144 300 c 1
 1112 296 1108 234 1014 136 c 1
 945 45 822 -12 604 -10 c 0
 469 -9 349 54 260 150 c 0
 170 246 133 342 133 483 c 0
 133 622 176 762 260 844 c 0
 369 950 488 986 578 986 c 0
 670 986 812 964 892 848 c 0
 963 746 977 600 944 504 c 0
 896 364 762 274 612 272 c 0
 484 270 392 364 382 464 c 0
 370 584 424 666 480 706 c 0
 533 744 594 742 646 714 c 0
 679 697 697 678 708 642 c 0
 719 606 716 566 702 537 c 0
 686 504 662 486 628 473 c 0
 602 463 570 458 540 471 c 1
 539 457 609 427 684 452 c 0
 736 469 779 530 776 612 c 0
 772 722 674 786 562 786 c 0
 482 786 412 730 384 690 c 0
 333 618 328 546 328 464 c 0
 328 416 360 328 416 282 c 0
 464 242 540 222 610 222 c 0
 796 222 885 317 924 368 c 1
 1006 484 1053 615 1151 615 c 0
 1292 615 1242 410 1292 410 c 0
 1368 410 1309 615 1457 615 c 8
 1567 615 1548 384 1618 384 c 0
 1672 384 1662 507 1760 507 c 0
 1846 507 1839 364 1979 364 c 2
 2358 364 l 9
 2358 198 l 17
 1973 198 l 2
 1839 198 1793 300 1776 300 c 0
620 603 m 0
 620 625 602 643 578 643 c 0
 555 643 535 624 536 601 c 0
 537 579 555 561 580 561 c 0
 603 562 621 580 620 603 c 0
EndSplineSet
EndChar
StartChar: afii61664
Encoding: 210 8204 212
OldEncoding: 8204
Width: 0
Flags: HW
Fore
36 1289 m 1
 36 -275 l 1
 -36 -275 l 1
 -36 1289 l 1
 36 1289 l 1
EndSplineSet
EndChar
StartChar: afii301
Encoding: 211 8205 213
OldEncoding: 8205
Width: 0
Flags: HW
Fore
36 -275 m 1
 -36 -275 l 1
 -36 1114 l 1
 -170 978 l 1
 -219 1027 l 1
 -48 1196 l 1
 -219 1364 l 1
 -170 1413 l 1
 0 1242 l 1
 170 1413 l 1
 219 1364 l 1
 48 1196 l 1
 219 1027 l 1
 170 978 l 1
 36 1114 l 1
 36 -275 l 1
EndSplineSet
EndChar
StartChar: afii299
Encoding: 212 8206 214
OldEncoding: 8206
Width: 0
Flags: HW
Fore
430 1198 m 1
 213 984 l 1
 164 1033 l 1
 301 1163 l 1
 35 1163 l 1
 35 -275 l 1
 -36 -275 l 1
 -36 1234 l 1
 301 1234 l 1
 164 1364 l 1
 213 1413 l 1
 430 1198 l 1
EndSplineSet
EndChar
StartChar: afii300
Encoding: 213 8207 215
OldEncoding: 8207
Width: 0
Flags: HW
Fore
35 -275 m 1
 -36 -275 l 1
 -36 1163 l 1
 -302 1163 l 1
 -165 1033 l 1
 -214 984 l 1
 -431 1198 l 1
 -214 1413 l 1
 -165 1364 l 1
 -302 1234 l 1
 35 1234 l 1
 35 -275 l 1
EndSplineSet
EndChar
StartChar: uni2010
Encoding: 214 8208 216
OldEncoding: 8208
Width: 973
Flags: HW
Fore
190 768 m 1
 815 768 l 1
 815 543 l 1
 190 543 l 1
 190 768 l 1
EndSplineSet
EndChar
StartChar: endash
Encoding: 215 8211 217
OldEncoding: 8211
Width: 1125
Flags: HW
Fore
1126 525 m 1
 0 525 l 1
 0 759 l 1
 1126 759 l 1
 1126 525 l 1
EndSplineSet
EndChar
StartChar: emdash
Encoding: 216 8212 218
OldEncoding: 8212
Width: 1886
Flags: HW
Fore
1870 525 m 1
 0 525 l 1
 0 770 l 1
 1870 770 l 1
 1870 525 l 1
EndSplineSet
EndChar
StartChar: afii00208
Encoding: 217 8213 219
OldEncoding: 8213
Width: 1862
Flags: HW
Fore
1752 572 m 1
 110 572 l 1
 110 732 l 1
 1752 732 l 1
 1752 572 l 1
EndSplineSet
EndChar
StartChar: underscoredbl
Encoding: 218 8215 220
OldEncoding: 8215
Width: 1118
Flags: HW
Fore
1134 -212 m 1
 -16 -212 l 1
 -16 -82 l 1
 1134 -82 l 1
 1134 -212 l 1
1134 -423 m 1
 -16 -423 l 1
 -16 -293 l 1
 1134 -293 l 1
 1134 -423 l 1
EndSplineSet
EndChar
StartChar: quoteleft
Encoding: 219 8216 221
OldEncoding: 8216
Width: 450
Flags: HW
Fore
379 997 m 1
 197 997 l 1
 -64 1556 l 1
 222 1556 l 1
 379 997 l 1
EndSplineSet
EndChar
StartChar: quoteright
Encoding: 220 8217 222
OldEncoding: 8217
Width: 580
Flags: HW
Fore
496 1556 m 1
 235 997 l 1
 52 997 l 1
 209 1556 l 1
 496 1556 l 1
EndSplineSet
EndChar
StartChar: quotesinglbase
Encoding: 221 8218 223
OldEncoding: 8218
Width: 432
Flags: HW
Fore
386 283 m 1
 125 -276 l 1
 -13 -276 l 1
 144 283 l 1
 386 283 l 1
EndSplineSet
EndChar
StartChar: quotereversed
Encoding: 222 8219 224
OldEncoding: 8219
Width: 432
Flags: HW
Fore
335 1556 m 1
 178 997 l 1
 -64 997 l 1
 197 1556 l 1
 335 1556 l 1
EndSplineSet
EndChar
StartChar: quotedblleft
Encoding: 223 8220 225
OldEncoding: 8220
Width: 850
Flags: HW
Fore
725 997 m 1
 546 997 l 1
 285 1556 l 1
 568 1556 l 1
 725 997 l 1
376 997 m 1
 197 997 l 1
 -64 1556 l 1
 219 1556 l 1
 376 997 l 1
EndSplineSet
EndChar
StartChar: quotedblright
Encoding: 224 8221 226
OldEncoding: 8221
Width: 1000
Flags: HW
Fore
896 1556 m 1
 635 997 l 1
 456 997 l 1
 613 1556 l 1
 896 1556 l 1
547 1556 m 1
 286 997 l 1
 107 997 l 1
 264 1556 l 1
 547 1556 l 1
EndSplineSet
EndChar
StartChar: quotedblbase
Encoding: 225 8222 227
OldEncoding: 8222
Width: 814
Flags: HW
Fore
781 283 m 1
 520 -276 l 1
 386 -276 l 1
 543 283 l 1
 781 283 l 1
387 283 m 1
 126 -276 l 1
 -8 -276 l 1
 149 283 l 1
 387 283 l 1
EndSplineSet
EndChar
StartChar: dagger
Encoding: 226 8224 228
OldEncoding: 8224
Width: 1118
Flags: HW
Fore
983 1034 m 1
 620 1039 l 1
 625 135 l 1
 493 135 l 1
 498 1039 l 1
 135 1034 l 1
 135 1163 l 1
 498 1158 l 1
 493 1556 l 1
 625 1556 l 1
 620 1158 l 1
 983 1163 l 1
 983 1034 l 1
EndSplineSet
EndChar
StartChar: daggerdbl
Encoding: 227 8225 229
OldEncoding: 8225
Width: 1118
Flags: HW
Fore
983 507 m 1
 620 512 l 1
 625 124 l 1
 493 124 l 1
 498 512 l 1
 135 507 l 1
 135 636 l 1
 498 631 l 1
 498 1049 l 1
 135 1044 l 1
 135 1173 l 1
 498 1168 l 1
 493 1556 l 1
 625 1556 l 1
 620 1168 l 1
 983 1173 l 1
 983 1044 l 1
 620 1049 l 1
 620 631 l 1
 983 636 l 1
 983 507 l 1
EndSplineSet
EndChar
StartChar: bullet
Encoding: 228 8226 230
OldEncoding: 8226
Width: 950
Flags: HW
Fore
817 662 m 0
 817 565 782 483 714 414 c 128
 644 345 562 311 465 311 c 0
 368 311 286 345 217 414 c 128
 148 483 114 565 114 662 c 128
 114 759 148 841 217 910 c 128
 286 979 368 1013 465 1013 c 0
 562 1013 645 979 714 910 c 0
 783 841 817 759 817 662 c 0
EndSplineSet
EndChar
StartChar: ellipsis
Encoding: 229 8230 231
OldEncoding: 8230
Width: 1650
Flags: HW
Fore
1497 0 m 1
 1293 0 l 1
 1293 223 l 1
 1497 223 l 1
 1497 0 l 1
939 0 m 1
 735 0 l 1
 735 223 l 1
 939 223 l 1
 939 0 l 1
381 0 m 1
 177 0 l 1
 177 223 l 1
 381 223 l 1
 381 0 l 1
EndSplineSet
EndChar
StartChar: perthousand
Encoding: 230 8240 232
OldEncoding: 8240
Width: 2848
Flags: HW
Fore
807 1076 m 0
 807 926 777 815 716 742 c 128
 656 670 569 634 455 634 c 0
 339 634 251 671 192 744 c 128
 132 817 102 928 102 1075 c 0
 102 1224 132 1335 193 1408 c 128
 254 1481 341 1517 455 1517 c 0
 571 1517 659 1480 718 1407 c 128
 777 1334 807 1223 807 1076 c 0
1473 1489 m 1
 693 0 l 1
 528 0 l 1
 1308 1489 l 1
 1473 1489 l 1
1897 413 m 0
 1897 263 1867 152 1806 80 c 128
 1746 7 1659 -29 1545 -29 c 0
 1429 -29 1341 8 1282 81 c 128
 1222 154 1192 265 1192 412 c 0
 1192 561 1222 672 1283 745 c 128
 1344 818 1431 854 1545 854 c 0
 1661 854 1749 817 1808 744 c 128
 1867 671 1897 560 1897 413 c 0
629 1076 m 0
 629 1177 617 1254 594 1306 c 128
 570 1358 524 1384 455 1384 c 128
 386 1384 340 1358 316 1305 c 128
 292 1252 280 1176 280 1075 c 0
 280 975 291 899 314 846 c 128
 337 793 384 767 455 767 c 0
 524 767 570 793 594 846 c 128
 617 899 629 975 629 1076 c 0
1719 413 m 0
 1719 514 1707 591 1684 643 c 128
 1660 695 1614 721 1545 721 c 128
 1476 721 1430 695 1406 642 c 128
 1382 589 1370 513 1370 412 c 0
 1370 312 1381 236 1404 183 c 128
 1427 130 1474 104 1545 104 c 0
 1614 104 1660 130 1684 183 c 128
 1707 236 1719 312 1719 413 c 0
2741 413 m 0
 2741 263 2711 152 2650 80 c 128
 2590 7 2503 -29 2389 -29 c 0
 2273 -29 2185 8 2126 81 c 128
 2066 154 2036 265 2036 412 c 0
 2036 561 2066 672 2127 745 c 128
 2188 818 2275 854 2389 854 c 0
 2505 854 2593 817 2652 744 c 128
 2711 671 2741 560 2741 413 c 0
2563 413 m 0
 2563 514 2551 591 2528 643 c 128
 2504 695 2458 721 2389 721 c 128
 2320 721 2274 695 2250 642 c 128
 2226 589 2214 513 2214 412 c 0
 2214 312 2225 236 2248 183 c 128
 2271 130 2318 104 2389 104 c 0
 2458 104 2504 130 2528 183 c 128
 2551 236 2563 312 2563 413 c 0
EndSplineSet
EndChar
StartChar: minute
Encoding: 231 8242 233
OldEncoding: 8242
Width: 602
Flags: HW
Fore
571 1489 m 1
 273 870 l 1
 137 870 l 1
 331 1489 l 1
 571 1489 l 1
EndSplineSet
EndChar
StartChar: second
Encoding: 232 8243 234
OldEncoding: 8243
Width: 972
Flags: HW
Fore
567 1489 m 1
 269 870 l 1
 137 870 l 1
 331 1489 l 1
 567 1489 l 1
961 1489 m 1
 663 870 l 1
 531 870 l 1
 725 1489 l 1
 961 1489 l 1
EndSplineSet
EndChar
StartChar: guilsinglleft
Encoding: 233 8249 235
OldEncoding: 8249
Width: 784
Flags: HW
Fore
633 172 m 1
 123 608 l 1
 123 697 l 1
 633 1132 l 1
 633 933 l 1
 302 652 l 1
 633 371 l 1
 633 172 l 1
EndSplineSet
EndChar
StartChar: guilsinglright
Encoding: 234 8250 236
OldEncoding: 8250
Width: 784
Flags: HW
Fore
661 608 m 1
 151 172 l 1
 151 371 l 1
 482 652 l 1
 151 933 l 1
 151 1132 l 1
 661 697 l 1
 661 608 l 1
EndSplineSet
EndChar
StartChar: uni203E
Encoding: 236 8254 238
OldEncoding: 8254
Width: 1118
Flags: HW
Fore
1118 1658 m 1
 -48 1658 l 1
 -48 1789 l 1
 1118 1789 l 1
 1118 1658 l 1
EndSplineSet
EndChar
StartChar: fraction
Encoding: 237 8260 239
OldEncoding: 8260
Width: 886
Flags: HW
Fore
916 1489 m 1
 136 0 l 1
 -29 0 l 1
 751 1489 l 1
 916 1489 l 1
EndSplineSet
EndChar
StartChar: uni207F
Encoding: 238 8319 240
OldEncoding: 8319
Width: 1010
Flags: HW
Fore
890 566 m 1
 718 566 l 1
 718 1088 l 2
 718 1135 717 1176 714 1210 c 128
 711 1244 704 1273 691 1298 c 0
 679 1322 661 1340 637 1351 c 128
 613 1362 581 1368 541 1368 c 0
 499 1368 458 1357 418 1336 c 128
 377 1314 337 1287 296 1254 c 1
 296 566 l 1
 125 566 l 1
 125 1488 l 1
 296 1488 l 1
 296 1388 l 1
 345 1430 392 1462 437 1485 c 128
 482 1508 532 1519 586 1519 c 0
 683 1519 758 1489 810 1428 c 128
 864 1368 890 1280 890 1163 c 2
 890 566 l 1
EndSplineSet
EndChar
StartChar: dottedcircle
Encoding: 239 9676 241
OldEncoding: 9676
Width: 1247
Flags: HW
Fore
143 928 m 0
 143 945 149 960 160 972 c 128
 171 983 186 989 203 989 c 0
 220 989 235 983 246 972 c 128
 258 960 264 945 264 928 c 0
 264 911 258 896 246 885 c 128
 235 874 220 868 203 868 c 0
 186 868 171 874 160 885 c 128
 149 896 143 911 143 928 c 0
332 1071 m 0
 332 1088 338 1103 349 1114 c 128
 360 1126 375 1132 392 1132 c 0
 409 1132 424 1126 436 1114 c 128
 447 1103 453 1088 453 1071 c 0
 453 1054 447 1039 436 1028 c 128
 424 1017 409 1011 392 1011 c 0
 375 1011 360 1017 349 1028 c 128
 338 1039 332 1054 332 1071 c 0
558 1139 m 0
 558 1156 564 1171 575 1182 c 128
 586 1194 601 1200 618 1200 c 0
 635 1200 650 1194 662 1182 c 128
 673 1171 679 1156 679 1139 c 0
 679 1122 673 1107 662 1096 c 128
 650 1085 635 1079 618 1079 c 0
 601 1079 586 1085 575 1096 c 128
 564 1107 558 1122 558 1139 c 0
22 505 m 0
 22 522 28 537 39 548 c 128
 50 560 65 566 82 566 c 0
 99 566 114 560 126 548 c 128
 137 537 143 522 143 505 c 0
 143 488 137 473 126 462 c 128
 114 451 99 445 82 445 c 0
 65 445 50 451 39 462 c 128
 28 473 22 488 22 505 c 0
143 309 m 0
 143 326 149 341 160 352 c 128
 171 364 186 370 203 370 c 0
 220 370 235 364 246 352 c 128
 258 341 264 326 264 309 c 0
 264 292 258 277 246 266 c 128
 235 255 220 249 203 249 c 0
 186 249 171 255 160 266 c 128
 149 277 143 292 143 309 c 0
286 158 m 0
 286 175 292 190 303 202 c 128
 314 213 329 219 346 219 c 0
 363 219 378 213 390 202 c 128
 401 190 407 175 407 158 c 0
 407 141 401 126 390 115 c 128
 378 104 363 98 346 98 c 0
 329 98 314 104 303 115 c 128
 292 126 286 141 286 158 c 0
551 67 m 0
 551 84 557 99 568 110 c 128
 579 122 594 128 611 128 c 0
 628 128 643 122 654 110 c 128
 666 99 672 84 672 67 c 0
 672 50 666 35 654 24 c 128
 643 13 628 7 611 7 c 0
 594 7 579 13 568 24 c 128
 557 35 551 50 551 67 c 0
845 128 m 0
 845 145 851 160 862 172 c 128
 873 183 888 189 905 189 c 0
 922 189 937 183 948 172 c 128
 960 160 966 145 966 128 c 0
 966 111 960 96 948 85 c 128
 937 74 922 68 905 68 c 0
 888 68 873 74 862 85 c 128
 851 96 845 111 845 128 c 0
1011 294 m 0
 1011 311 1017 326 1028 338 c 128
 1039 349 1054 355 1071 355 c 0
 1088 355 1103 349 1114 338 c 128
 1126 326 1132 311 1132 294 c 0
 1132 277 1126 262 1114 251 c 128
 1103 240 1088 234 1071 234 c 0
 1054 234 1039 240 1028 251 c 128
 1017 262 1011 277 1011 294 c 0
1086 498 m 0
 1086 515 1092 530 1103 542 c 128
 1114 553 1129 559 1146 559 c 0
 1163 559 1178 553 1190 542 c 128
 1201 530 1207 515 1207 498 c 0
 1207 481 1201 466 1190 455 c 128
 1178 444 1163 438 1146 438 c 0
 1129 438 1114 444 1103 455 c 128
 1092 466 1086 481 1086 498 c 0
1072 739 m 0
 1072 756 1078 771 1089 782 c 128
 1100 794 1115 800 1132 800 c 0
 1149 800 1164 794 1176 782 c 128
 1187 771 1193 756 1193 739 c 0
 1193 722 1187 707 1176 696 c 128
 1164 685 1149 679 1132 679 c 0
 1115 679 1100 685 1089 696 c 128
 1078 707 1072 722 1072 739 c 0
965 951 m 0
 965 968 971 983 982 994 c 128
 993 1006 1008 1012 1025 1012 c 0
 1042 1012 1057 1006 1068 994 c 128
 1080 983 1086 968 1086 951 c 0
 1086 934 1080 919 1068 908 c 128
 1057 897 1042 891 1025 891 c 0
 1008 891 993 897 982 908 c 128
 971 919 965 934 965 951 c 0
777 1094 m 0
 777 1111 783 1126 794 1138 c 128
 805 1149 820 1155 837 1155 c 0
 854 1155 869 1149 880 1138 c 128
 892 1126 898 1111 898 1094 c 0
 898 1077 892 1062 880 1051 c 128
 869 1040 854 1034 837 1034 c 0
 820 1034 805 1040 794 1051 c 128
 783 1062 777 1077 777 1094 c 0
37 739 m 0
 37 756 43 771 54 782 c 128
 65 794 80 800 97 800 c 0
 114 800 129 794 140 782 c 128
 152 771 158 756 158 739 c 0
 158 722 152 707 140 696 c 128
 129 685 114 679 97 679 c 0
 80 679 65 685 54 696 c 128
 43 707 37 722 37 739 c 0
EndSplineSet
EndChar
StartChar: uni0E10.descless
Encoding: 240 63232 242
OldEncoding: 63232
Width: 1100
Flags: HW
Fore
686 529 m 2
 686 562 671 587 641 603 c 1
 562 636 l 1
 453 672 278 707 37 742 c 1
 55 829 82 901 118 957 c 0
 155 1016 207 1063 273 1099 c 0
 334 1132 411 1149 506 1149 c 0
 583 1149 654 1134 721 1103 c 0
 778 1077 837 1064 899 1064 c 0
 926 1064 951 1067 974 1072 c 1
 935 862 l 1
 918 858 899 856 876 856 c 0
 855 855 832 857 809 861 c 0
 768 867 735 876 708 889 c 0
 647 918 582 935 515 940 c 2
 495 941 l 2
 422 941 376 925 357 892 c 1
 560 853 696 815 765 778 c 0
 859 728 906 660 906 573 c 2
 906 279 l 2
 906 86 813 -10 626 -10 c 0
 439 -10 346 88 346 283 c 2
 346 289 l 1
 336 278 323 271 308 266 c 0
 294 262 280 260 267 260 c 0
 228 261 193 277 162 308 c 0
 128 341 111 385 111 440 c 0
 111 537 148 603 221 639 c 0
 244 650 269 657 296 661 c 0
 379 672 447 655 500 610 c 1
 544 569 566 510 566 433 c 2
 566 283 l 2
 566 234 586 210 626 210 c 0
 666 210 686 233 686 279 c 2
 686 529 l 2
292 541 m 0
 268 541 249 528 236 502 c 0
 229 489 226 475 226 460 c 0
 226 456 l 0
 228 405 247 377 283 373 c 0
 286 372 289 372 292 372 c 0
 328 375 346 400 346 448 c 0
 346 454 346 454 346 461 c 0
 346 514 328 541 292 541 c 0
EndSplineSet
EndChar
StartChar: uni0E34.left
Encoding: 241 63233 243
OldEncoding: 63233
Width: 0
Flags: HW
Fore
-439 1155 m 5
 -564 1182 -757 1209 -1019 1234 c 0
 -1194 1251 -1334 1259 -1440 1259 c 1
 -1421 1326 -1376 1393 -1305 1461 c 0
 -1270 1494 -1235 1522 -1199 1543 c 0
 -1126 1586 -1043 1607 -949 1607 c 0
 -927 1607 -905 1606 -882 1603 c 0
 -795 1593 -712 1559 -635 1502 c 0
 -621 1491 -608 1480 -595 1469 c 0
 -517 1398 -465 1294 -439 1155 c 5
-694 1319 m 1
 -713 1360 -751 1393 -807 1418 c 0
 -841 1433 -877 1443 -914 1446 c 1
 -970 1447 l 1
 -1051 1443 -1112 1417 -1153 1368 c 1
 -1055 1368 -940 1359 -808 1340 c 0
 -761 1333 -723 1326 -694 1319 c 1
EndSplineSet
EndChar
StartChar: uni0E35.left
Encoding: 242 63234 244
OldEncoding: 63234
Width: 0
Flags: HW
Fore
-500 1194 m 1
 -497 1183 -495 1172 -493 1162 c 5
 -614 1188 -801 1212 -1053 1235 c 0
 -1201 1249 -1323 1256 -1418 1257 c 0
 -1428 1257 -1428 1257 -1437 1257 c 1
 -1412 1340 -1361 1411 -1283 1471 c 0
 -1192 1541 -1088 1576 -971 1576 c 0
 -864 1576 -777 1551 -709 1502 c 0
 -700 1495 -691 1488 -682 1480 c 1
 -682 1669 l 1
 -500 1669 l 1
 -500 1194 l 1
-741 1321 m 1
 -757 1354 -791 1382 -843 1405 c 0
 -875 1420 -907 1429 -940 1432 c 1
 -994 1433 l 1
 -1066 1428 -1120 1405 -1156 1363 c 1
 -1062 1363 -954 1354 -833 1337 c 0
 -796 1332 -765 1326 -741 1321 c 1
EndSplineSet
EndChar
StartChar: uni0E36.left
Encoding: 243 63235 245
OldEncoding: 63235
Width: 0
Flags: HW
Fore
-782 1509 m 1
 -767 1552 -737 1585 -692 1608 c 0
 -665 1621 -637 1628 -606 1628 c 0
 -603 1628 -603 1628 -599 1628 c 0
 -539 1625 -491 1603 -455 1560 c 1
 -436 1532 l 1
 -423 1500 l 1
 -416 1464 l 1
 -415 1449 l 1
 -415 1389 -438 1341 -485 1306 c 0
 -508 1289 -534 1277 -563 1271 c 0
 -576 1269 -590 1268 -603 1268 c 1
 -597 1251 -590 1220 -581 1175 c 5
 -702 1200 -889 1225 -1141 1248 c 0
 -1290 1261 -1411 1268 -1506 1269 c 0
 -1513 1270 -1519 1270 -1525 1270 c 1
 -1500 1355 -1445 1428 -1361 1487 c 0
 -1268 1553 -1159 1586 -1036 1587 c 0
 -1024 1587 -1012 1587 -999 1586 c 0
 -910 1581 -841 1558 -792 1517 c 0
 -782 1509 l 1
-599 1505 m 2
 -626 1505 -645 1494 -656 1472 c 1
 -662 1454 l 2
 -663 1451 -663 1449 -663 1446 c 0
 -663 1420 -651 1401 -628 1390 c 0
 -619 1386 -609 1384 -599 1384 c 0
 -568 1384 -547 1397 -538 1422 c 0
 -535 1429 -534 1437 -534 1446 c 0
 -534 1473 -547 1491 -572 1501 c 1
 -595 1505 l 1
 -599 1505 l 2
-832 1323 m 1
 -849 1356 -881 1386 -928 1413 c 0
 -961 1432 -995 1444 -1028 1447 c 1
 -1068 1446 l 1
 -1121 1440 -1168 1423 -1210 1394 c 1
 -1232 1375 l 1
 -1240 1366 l 1
 -1149 1366 -1045 1357 -926 1340 c 0
 -887 1335 -856 1329 -832 1323 c 1
EndSplineSet
EndChar
StartChar: uni0E37.left
Encoding: 244 63236 246
OldEncoding: 63236
Width: 0
Flags: HW
Fore
-796 1532 m 1
 -781 1528 -765 1516 -750 1496 c 1
 -750 1667 l 1
 -580 1667 l 1
 -580 1230 l 1
 -578 1173 l 5
 -689 1197 -866 1221 -1111 1244 c 0
 -1274 1260 -1403 1268 -1498 1268 c 1
 -1469 1354 -1415 1426 -1336 1484 c 0
 -1249 1547 -1151 1579 -1040 1579 c 0
 -1034 1579 l 0
 -1017 1579 -997 1576 -972 1570 c 1
 -972 1668 l 1
 -796 1668 l 1
 -796 1532 l 1
-792 1315 m 1
 -822 1378 -872 1419 -942 1440 c 0
 -963 1446 -986 1450 -1009 1451 c 1
 -1069 1451 l 1
 -1119 1443 l 1
 -1174 1430 -1218 1403 -1251 1362 c 2
 -1253 1359 l 1
 -1104 1353 -968 1341 -845 1324 c 0
 -820 1321 -803 1318 -792 1315 c 1
EndSplineSet
EndChar
StartChar: uni0E48.low_left
Encoding: 245 63237 247
OldEncoding: 63237
Width: 0
Flags: HW
Fore
-651 1582 m 1
 -420 1582 l 1
 -420 1302 l 1
 -651 1302 l 1
 -651 1582 l 1
EndSplineSet
EndChar
StartChar: uni0E49.low_left
Encoding: 246 63238 248
OldEncoding: 63238
Width: 0
Flags: HW
Fore
-291 1551 m 1
 -324 1416 -409 1305 -545 1220 c 0
 -631 1165 -730 1129 -842 1111 c 0
 -873 1106 -908 1102 -949 1098 c 1
 -949 1205 l 1
 -904 1216 -875 1235 -863 1262 c 0
 -860 1267 -858 1273 -857 1280 c 1
 -871 1275 -885 1273 -900 1273 c 0
 -920 1272 -939 1277 -957 1286 c 1
 -981 1301 l 2
 -986 1305 -991 1310 -996 1315 c 0
 -1023 1345 -1037 1382 -1037 1425 c 1
 -1034 1475 -1013 1514 -974 1541 c 0
 -951 1556 -925 1564 -897 1565 c 1
 -858 1562 l 1
 -803 1553 -762 1526 -733 1482 c 0
 -717 1458 -708 1432 -707 1404 c 1
 -708 1361 l 1
 -717 1320 l 1
 -721 1310 l 1
 -668 1321 -620 1348 -575 1389 c 0
 -558 1405 -542 1422 -529 1441 c 0
 -504 1476 -486 1512 -473 1551 c 1
 -291 1551 l 1
-885 1361 m 0
 -865 1361 -850 1370 -839 1389 c 0
 -834 1397 -832 1406 -832 1415 c 0
 -832 1434 -841 1449 -860 1460 c 0
 -868 1465 -876 1468 -885 1468 c 0
 -907 1468 -923 1458 -933 1439 c 1
 -939 1421 l 2
 -940 1419 -940 1417 -940 1415 c 0
 -940 1392 -929 1375 -908 1365 c 0
 -901 1362 -893 1361 -885 1361 c 0
EndSplineSet
EndChar
StartChar: uni0E4A.low_left
Encoding: 247 63239 249
OldEncoding: 63239
Width: 0
Flags: HW
Fore
-1049 1302 m 1
 -1050 1318 -1058 1330 -1074 1337 c 1
 -1092 1340 l 1
 -1093 1340 l 2
 -1108 1339 -1119 1331 -1126 1315 c 1
 -1130 1299 l 1
 -1130 1298 l 1
 -1129 1281 -1121 1270 -1106 1263 c 0
 -1101 1261 -1096 1260 -1091 1260 c 0
 -1074 1260 -1061 1269 -1053 1287 c 1
 -1049 1302 l 1
-604 1422 m 1
 -506 1673 l 1
 -326 1673 l 2
 -327 1673 -370 1561 -455 1336 c 0
 -488 1251 -571 1199 -705 1181 c 0
 -728 1178 -752 1176 -776 1176 c 1
 -751 1215 -738 1258 -738 1306 c 0
 -738 1365 -755 1415 -788 1454 c 1
 -797 1465 -806 1474 -816 1480 c 1
 -958 1362 l 1
 -1057 1450 l 1
 -1097 1479 l 1
 -1098 1480 l 1
 -1122 1471 -1141 1453 -1155 1426 c 0
 -1157 1423 -1158 1419 -1159 1416 c 0
 -1161 1410 -1163 1401 -1164 1390 c 1
 -1143 1409 -1117 1418 -1086 1418 c 0
 -1038 1418 -1005 1397 -987 1355 c 1
 -979 1330 l 1
 -976 1297 l 1
 -977 1254 -994 1221 -1028 1198 c 1
 -1043 1190 l 2
 -1067 1178 -1095 1172 -1128 1172 c 0
 -1156 1172 -1182 1176 -1205 1185 c 0
 -1254 1204 -1289 1242 -1309 1299 c 0
 -1318 1326 -1323 1355 -1323 1386 c 0
 -1323 1395 -1323 1403 -1322 1412 c 0
 -1318 1476 -1283 1535 -1217 1590 c 0
 -1180 1620 -1141 1643 -1098 1658 c 1
 -958 1540 l 1
 -816 1658 l 1
 -750 1636 -696 1600 -653 1550 c 0
 -620 1511 -603 1473 -603 1435 c 1
 -604 1422 l 1
EndSplineSet
EndChar
StartChar: uni0E4B.low_left
Encoding: 248 63240 250
OldEncoding: 63240
Width: 0
Flags: HW
Fore
-469 1151 m 1
 -592 1151 l 1
 -592 1028 l 1
 -764 1028 l 1
 -764 1151 l 1
 -895 1151 l 1
 -895 1325 l 1
 -764 1325 l 1
 -764 1454 l 1
 -592 1454 l 1
 -592 1325 l 1
 -469 1325 l 1
 -469 1151 l 1
EndSplineSet
EndChar
StartChar: uni0E4C.low_left
Encoding: 249 63241 251
OldEncoding: 63241
Width: 0
Flags: HW
Fore
-385 1740 m 1
 -405 1685 -447 1631 -511 1580 c 0
 -556 1545 -605 1518 -659 1501 c 0
 -680 1494 -699 1490 -717 1489 c 1
 -683 1472 -660 1438 -649 1388 c 1
 -647 1360 l 1
 -648 1335 -658 1305 -677 1270 c 0
 -697 1233 -735 1208 -792 1196 c 0
 -804 1194 -816 1193 -827 1192 c 1
 -870 1195 l 1
 -927 1204 -970 1222 -1000 1251 c 2
 -1003 1254 l 2
 -1034 1287 -1051 1327 -1055 1376 c 1
 -1055 1402 l 1
 -1050 1462 -1028 1508 -991 1540 c 0
 -957 1569 -892 1594 -795 1615 c 0
 -753 1624 -727 1631 -717 1634 c 0
 -669 1650 -628 1673 -594 1704 c 0
 -581 1717 -571 1729 -565 1740 c 1
 -385 1740 l 1
-849 1428 m 0
 -878 1428 -898 1417 -911 1395 c 0
 -916 1386 -919 1375 -919 1364 c 0
 -919 1347 -911 1333 -894 1320 c 0
 -880 1309 -864 1304 -845 1304 c 1
 -813 1309 -792 1323 -783 1346 c 0
 -780 1353 -779 1359 -779 1366 c 0
 -779 1395 -793 1414 -820 1423 c 0
 -829 1426 -838 1428 -849 1428 c 0
EndSplineSet
EndChar
StartChar: uni0E48.low
Encoding: 250 63242 252
OldEncoding: 63242
Width: 0
Flags: HW
AnchorPoint: "AboveBase" -119 1227 mark 0
Fore
-350 1589 m 1
 -119 1589 l 1
 -119 1309 l 5
 -350 1309 l 1
 -350 1589 l 1
EndSplineSet
Substitution: 0 65534 'amni' uni0E4D
EndChar
StartChar: uni0E49.low
Encoding: 251 63243 253
OldEncoding: 63243
Width: 0
Flags: HW
AnchorPoint: "AboveBase" -240 1227 mark 0
Fore
-70 1698 m 1
 -103 1563 -188 1452 -324 1367 c 0
 -410 1312 -509 1276 -621 1258 c 0
 -652 1253 -687 1249 -728 1245 c 1
 -728 1352 l 1
 -683 1363 -654 1382 -642 1409 c 0
 -639 1414 -637 1420 -636 1427 c 1
 -650 1422 -664 1420 -679 1420 c 0
 -699 1419 -718 1424 -736 1433 c 1
 -760 1448 l 2
 -765 1452 -770 1457 -775 1462 c 0
 -802 1492 -816 1529 -816 1572 c 1
 -813 1622 -792 1661 -753 1688 c 0
 -730 1703 -704 1711 -676 1712 c 1
 -637 1709 l 1
 -582 1700 -541 1673 -512 1629 c 0
 -496 1605 -487 1579 -486 1551 c 1
 -487 1508 l 1
 -496 1467 l 1
 -500 1457 l 1
 -447 1468 -399 1495 -354 1536 c 0
 -337 1552 -321 1569 -308 1588 c 0
 -283 1623 -265 1659 -252 1698 c 1
 -70 1698 l 1
-664 1508 m 0
 -644 1508 -629 1517 -618 1536 c 0
 -613 1544 -611 1553 -611 1562 c 0
 -611 1581 -620 1596 -639 1607 c 0
 -647 1612 -655 1615 -664 1615 c 0
 -686 1615 -702 1605 -712 1586 c 1
 -718 1568 l 2
 -719 1566 -719 1564 -719 1562 c 0
 -719 1539 -708 1522 -687 1512 c 0
 -680 1509 -672 1508 -664 1508 c 0
EndSplineSet
Substitution: 0 65534 'amni' uni0E4D
EndChar
StartChar: uni0E4A.low
Encoding: 252 63244 254
OldEncoding: 63244
Width: 0
Flags: HW
AnchorPoint: "AboveBase" 0 1227 mark 0
Fore
-544 1377 m 0
 -549 1401 -560 1414 -576 1416 c 1
 -588 1415 l 1
 -607 1410 -619 1400 -624 1385 c 1
 -625 1373 l 1
 -619 1348 -606 1335 -586 1335 c 0
 -569 1335 -557 1343 -548 1359 c 0
 -545 1364 -543 1370 -544 1377 c 0
-99 1497 m 1
 -1 1748 l 1
 179 1748 l 2
 178 1748 135 1636 50 1411 c 0
 17 1326 -66 1274 -200 1256 c 0
 -223 1253 -247 1251 -271 1251 c 1
 -246 1290 -233 1333 -233 1381 c 0
 -233 1440 -250 1490 -283 1529 c 1
 -292 1540 -301 1549 -311 1555 c 1
 -453 1437 l 1
 -552 1525 l 1
 -592 1554 l 1
 -593 1555 l 1
 -617 1546 -636 1528 -650 1501 c 0
 -652 1498 -653 1495 -654 1492 c 0
 -656 1485 -658 1477 -659 1466 c 1
 -638 1484 -612 1493 -581 1493 c 0
 -533 1493 -500 1472 -482 1430 c 1
 -474 1405 l 1
 -471 1372 l 1
 -472 1329 -489 1297 -522 1274 c 0
 -527 1271 -533 1268 -538 1265 c 0
 -562 1253 -590 1247 -623 1247 c 0
 -651 1247 -677 1251 -700 1260 c 0
 -749 1279 -784 1317 -804 1374 c 0
 -813 1401 -818 1430 -818 1461 c 0
 -818 1470 -818 1478 -817 1487 c 0
 -813 1551 -778 1610 -712 1665 c 0
 -675 1695 -636 1718 -593 1733 c 1
 -453 1615 l 1
 -311 1733 l 1
 -245 1711 -191 1675 -148 1625 c 0
 -115 1586 -98 1548 -98 1510 c 1
 -99 1497 l 1
EndSplineSet
Substitution: 0 65534 'amni' uni0E4D
EndChar
StartChar: uni0E4B.low
Encoding: 253 63245 255
OldEncoding: 63245
Width: 0
Flags: HW
AnchorPoint: "AboveBase" -60 1227 mark 0
Fore
-44 1348 m 1
 -167 1348 l 1
 -167 1225 l 1
 -339 1225 l 1
 -339 1348 l 1
 -470 1348 l 1
 -470 1522 l 1
 -339 1522 l 1
 -339 1651 l 1
 -167 1651 l 1
 -167 1522 l 1
 -44 1522 l 1
 -44 1348 l 1
EndSplineSet
Substitution: 0 65534 'amni' uni0E4D
EndChar
StartChar: uni0E4C.low
Encoding: 254 63246 256
OldEncoding: 63246
Width: 0
Flags: HW
AnchorPoint: "AboveBase" -300 1227 mark 0
Fore
-41 1798 m 1
 -61 1743 -103 1689 -167 1638 c 0
 -212 1603 -261 1576 -315 1559 c 0
 -336 1552 -355 1548 -373 1547 c 1
 -339 1530 -316 1496 -305 1446 c 1
 -303 1418 l 1
 -304 1393 -314 1363 -333 1328 c 0
 -353 1291 -391 1266 -448 1254 c 0
 -460 1252 -472 1251 -483 1250 c 1
 -526 1253 l 1
 -583 1262 -626 1280 -656 1309 c 2
 -659 1312 l 2
 -690 1345 -707 1385 -711 1434 c 1
 -711 1460 l 1
 -706 1520 -684 1566 -647 1598 c 0
 -613 1627 -548 1652 -451 1673 c 0
 -409 1682 -383 1689 -373 1692 c 0
 -325 1708 -284 1731 -250 1762 c 0
 -237 1775 -227 1787 -221 1798 c 1
 -41 1798 l 1
-505 1486 m 0
 -534 1486 -554 1475 -567 1453 c 0
 -572 1444 -575 1433 -575 1422 c 0
 -575 1406 -567 1392 -551 1379 c 0
 -537 1368 -520 1362 -501 1362 c 1
 -469 1367 -448 1381 -439 1404 c 0
 -436 1411 -435 1417 -435 1424 c 0
 -435 1453 -449 1472 -476 1481 c 0
 -485 1484 -494 1486 -505 1486 c 0
EndSplineSet
EndChar
StartChar: uni0E0D.descless
Encoding: 255 63247 257
OldEncoding: 63247
Width: 1700
Flags: HW
Fore
1080 310 m 2
 1080 275 1094 248 1122 229 c 0
 1141 216 1163 210 1189 210 c 0
 1266 210 1305 243 1305 310 c 2
 1305 1139 l 1
 1525 1139 l 1
 1525 241 l 2
 1525 157 1485 91 1406 44 c 0
 1345 8 1275 -10 1195 -10 c 0
 1189 -10 l 0
 1095 -9 1016 17 953 66 c 0
 891 114 860 175 860 249 c 2
 860 657 l 2
 860 838 781 929 622 929 c 0
 516 929 438 896 388 831 c 1
 462 795 514 739 544 663 c 1
 540 661 510 628 454 563 c 0
 422 526 406 463 406 376 c 2
 406 363 l 1
 423 382 447 391 477 391 c 0
 496 392 515 388 534 380 c 0
 555 371 573 359 588 344 c 0
 623 310 640 264 640 206 c 0
 641 182 637 158 630 133 c 0
 613 76 578 35 525 10 c 0
 496 -3 464 -10 429 -10 c 0
 380 -9 343 -3 316 9 c 0
 293 20 271 35 248 56 c 0
 211 90 190 156 187 254 c 0
 186 269 186 285 186 303 c 2
 186 366 l 2
 186 449 195 509 214 546 c 0
 229 576 263 618 314 671 c 1
 267 727 201 767 116 792 c 1
 129 855 165 917 224 979 c 1
 329 1092 462 1149 622 1149 c 0
 772 1149 889 1102 972 1008 c 0
 1044 927 1080 815 1080 673 c 2
 1080 310 l 2
449 110 m 0
 474 110 493 124 506 152 c 0
 512 165 515 179 515 195 c 1
 512 238 498 265 471 276 c 0
 464 279 457 280 449 280 c 0
 418 280 401 260 397 220 c 0
 396 215 396 210 396 204 c 0
 396 141 414 110 449 110 c 0
EndSplineSet
EndChar
